<svg width="71" height="20" viewBox="0 0 71 20" fill="none" xmlns="http://www.w3.org/2000/svg">
<path d="M69.7579 3.45667C69.5117 3.15843 69.1834 3.00912 68.7391 3.00912C68.2949 3.00912 67.9565 3.1683 67.7191 3.49607C67.4837 3.813 67.3609 4.28866 67.3609 4.91399V9.43751C66.8142 8.8023 66.2472 8.34601 65.6727 8.0382C65.3126 7.85062 64.8893 7.71223 64.4173 7.6418C64.1425 7.60232 63.8604 7.58191 63.5497 7.58191C62.1051 7.58191 60.9364 8.11783 60.039 9.18891C59.1519 10.2607 58.709 11.7487 58.709 13.662C58.709 14.566 58.8223 15.4085 59.0474 16.1828C59.2747 16.9564 59.5934 17.6303 60.0296 18.2063C60.4637 18.7817 60.9819 19.2169 61.5767 19.536C62.1709 19.8426 62.8125 20.0002 63.5111 20.0002C63.8326 20.0002 64.1331 19.9718 64.4173 19.9127C64.6058 19.8813 64.7849 19.8323 64.9646 19.7725C65.4075 19.6148 65.8226 19.387 66.2004 19.0993C66.587 18.8007 66.975 18.4145 67.3609 17.9479V18.2458C67.3609 18.8116 67.4932 19.2373 67.7475 19.5447C68.012 19.8426 68.3424 20.0002 68.7391 20.0002C69.1448 20.0002 69.4751 19.8528 69.7294 19.5651C69.9838 19.2673 70.1164 18.8314 70.1164 18.2458V4.75556C70.1164 4.18974 69.9933 3.75311 69.7579 3.45667ZM66.823 15.9349C66.5674 16.5103 66.2289 16.9367 65.8145 17.2141C65.3892 17.4923 64.926 17.6303 64.4173 17.6303H64.4085C63.8984 17.6303 63.4358 17.4821 63.0106 17.1944C62.5866 16.8973 62.2462 16.4599 62.0013 15.8849C61.7564 15.2993 61.6336 14.5955 61.6336 13.7621C61.6336 12.9786 61.7463 12.2843 61.9823 11.6991C62.2095 11.104 62.5392 10.647 62.9549 10.3298C63.3795 10.0019 63.8516 9.85372 64.3894 9.85372H64.4173C64.9172 9.85372 65.379 10.0125 65.8043 10.3195C66.2289 10.6269 66.5674 11.0745 66.823 11.6593C67.0781 12.2445 67.2002 12.9487 67.2002 13.7621C67.2002 14.6346 67.0781 15.3596 66.823 15.9349Z" fill="#003A9B"/>
<path d="M57.8098 16.0638C57.6321 15.8951 57.3859 15.8057 57.0834 15.8057C56.8101 15.8057 56.6026 15.8751 56.4513 16.0039C56.0837 16.3614 55.7913 16.6475 55.5641 16.857C55.3382 17.0557 55.0833 17.2543 54.8092 17.4419C54.546 17.6201 54.2625 17.7603 53.981 17.8399C53.6874 17.9282 53.3754 17.9676 53.0267 17.9676C52.9507 17.9676 52.8748 17.9676 52.8097 17.9574C52.3756 17.9282 51.97 17.7982 51.6023 17.5602C51.1669 17.2923 50.8278 16.8973 50.5632 16.381C50.3083 15.8451 50.1774 15.2307 50.1678 14.5367H55.8571C56.6208 14.5367 57.215 14.4166 57.6321 14.1979C58.056 13.9603 58.2636 13.4645 58.2636 12.7008C58.2636 11.8674 58.056 11.0536 57.6504 10.2512C57.2442 9.45686 56.6405 8.80229 55.8198 8.29665C55.0066 7.79147 54.0353 7.5428 52.8945 7.5428H52.8097C51.97 7.55229 51.1954 7.70197 50.507 7.97943C49.7901 8.27699 49.1857 8.70338 48.6851 9.24879C48.2049 9.80407 47.8272 10.4688 47.5728 11.2424C47.3185 12.017 47.1855 12.8596 47.1855 13.7617C47.1855 15.687 47.7051 17.1944 48.7428 18.3151C49.7229 19.3768 51.0828 19.9324 52.8097 19.9908C52.904 20.0002 53.0071 20.0002 53.1115 20.0002C53.9227 20.0002 54.6498 19.8922 55.2813 19.6644C55.9141 19.4359 56.4323 19.157 56.8494 18.8211C57.2625 18.4736 57.5745 18.1173 57.7806 17.7493C57.9896 17.3828 58.0933 17.0557 58.0933 16.787C58.0933 16.4803 57.9998 16.2321 57.8098 16.0638ZM51.0171 10.4589C51.4782 9.93327 52.0737 9.67555 52.7995 9.67555H52.8097C53.5639 9.67555 54.1777 9.93326 54.6396 10.4488C55.1036 10.965 55.3756 11.7487 55.4427 12.7998H50.1678C50.2615 11.7685 50.545 10.9839 51.0171 10.4589Z" fill="#003A9B"/>
<path d="M45.4448 15.8057C45.162 15.8057 44.9538 15.8751 44.8038 16.0039C44.4444 16.3614 44.1432 16.6482 43.916 16.857C43.6901 17.0557 43.4446 17.2543 43.1706 17.4419C42.8979 17.6201 42.6232 17.7603 42.3309 17.8399C42.0474 17.9282 41.7266 17.9676 41.3779 17.9676C41.3026 17.9676 41.2273 17.9676 41.1616 17.9574C40.7268 17.9282 40.3206 17.7982 39.9529 17.5602C39.529 17.2923 39.179 16.8973 38.9254 16.381C38.6601 15.8451 38.5279 15.2307 38.5187 14.5367H44.2178C44.9734 14.5367 45.5675 14.4166 45.9922 14.1979C46.4079 13.9603 46.6148 13.4645 46.6148 12.7008C46.6148 11.8674 46.4168 11.0536 46.0111 10.2512C45.6049 9.45686 44.9918 8.80229 44.1819 8.29665C43.3673 7.79147 42.3879 7.5428 41.2565 7.5428H41.1616C40.3206 7.55229 39.5561 7.70197 38.8589 7.97943C38.1409 8.27699 37.5372 8.70338 37.0466 9.24879C36.5559 9.80407 36.178 10.4688 35.9244 11.2424C35.6687 12.017 35.5371 12.8596 35.5371 13.7621C35.5371 15.687 36.0654 17.1944 37.1045 18.3151C38.0843 19.3768 39.4347 19.9324 41.1616 19.9908C41.2646 20.0002 41.359 20.0002 41.4634 20.0002C42.2834 20.0002 43.0017 19.8922 43.6318 19.6644C44.2647 19.4359 44.7842 19.157 45.1986 18.8211C45.6232 18.4736 45.925 18.1173 46.1332 17.7493C46.3415 17.3828 46.4445 17.0557 46.4445 16.787C46.4445 16.4803 46.351 16.2321 46.1719 16.0638C45.9834 15.8951 45.7372 15.8057 45.4448 15.8057ZM39.3686 10.4589C39.8298 9.93327 40.4236 9.67555 41.1514 9.67555H41.1616C41.9158 9.67555 42.529 9.93326 42.9922 10.4488C43.4629 10.965 43.7274 11.7487 43.8034 12.7998H38.5187C38.6232 11.7685 38.9063 10.9839 39.3686 10.4589Z" fill="#003A9B"/>
<path d="M6.7207 17.9676V10.6678C6.91876 10.6864 7.10764 10.6962 7.30569 10.6962C8.24913 10.6962 9.13731 10.4287 9.89124 9.95263V17.9676C9.89124 18.6517 9.73997 19.1577 9.44798 19.4957C9.15634 19.8323 8.76837 20.0002 8.29664 20.0002C7.83407 20.0002 7.46611 19.8323 7.16361 19.4856C6.87195 19.1482 6.7207 18.6415 6.7207 17.9676Z" fill="#003A9B"/>
<path d="M34.1306 3.45667C33.8844 3.15843 33.546 3.00912 33.1207 3.00912C32.6774 3.00912 32.337 3.1683 32.1013 3.49607C31.8575 3.813 31.7428 4.28866 31.7428 4.91399V9.43751C31.1955 8.8023 30.6294 8.34601 30.0536 8.0382C29.6867 7.85062 29.2706 7.71223 28.7995 7.6418C28.5262 7.60232 28.2426 7.58191 27.9316 7.58191C26.487 7.58191 25.3078 8.11783 24.4213 9.18891C23.5341 10.2607 23.0898 11.7487 23.0898 13.662C23.0898 14.566 23.2042 15.4085 23.4198 16.1828C23.6471 16.9564 23.9771 17.6303 24.4122 18.2063C24.8452 18.7817 25.3644 19.2169 25.96 19.536C26.5541 19.8426 27.1947 20.0002 27.893 20.0002C28.2043 20.0002 28.5069 19.9718 28.7995 19.9127C28.9877 19.8813 29.1674 19.8323 29.3468 19.7725C29.7901 19.6148 30.2052 19.387 30.5826 19.0993C30.9693 18.8007 31.3474 18.4145 31.7428 17.9479V18.2458C31.7428 18.8116 31.8757 19.2373 32.1301 19.5447C32.3851 19.8426 32.7246 20.0002 33.1207 20.0002C33.5066 20.0002 33.8475 19.8528 34.1032 19.5651C34.3575 19.2673 34.4796 18.8314 34.4796 18.2458V4.75556C34.4796 4.18974 34.3673 3.75311 34.1306 3.45667ZM31.2046 15.9349C30.9506 16.5103 30.6105 16.9367 30.1869 17.2141C29.7711 17.4923 29.2994 17.6303 28.7995 17.6303H28.7893C28.2813 17.6303 27.8177 17.4821 27.3934 17.1944C26.9593 16.8973 26.629 16.4599 26.3832 15.8849C26.1383 15.2993 26.0155 14.5955 26.0155 13.7621C26.0155 12.9786 26.1299 12.2843 26.3554 11.6991C26.5914 11.104 26.9119 10.647 27.3365 10.3298C27.7522 10.0019 28.2324 9.85372 28.7618 9.85372H28.7995C29.2994 9.85372 29.7616 10.0125 30.1764 10.3195C30.6105 10.6269 30.9506 11.0745 31.2046 11.6593C31.4495 12.2445 31.5831 12.9487 31.5831 13.7621C31.5831 14.6346 31.4495 15.3596 31.2046 15.9349Z" fill="#003A9B"/>
<path d="M14.5519 9.24879V9.62628C15.0707 8.91183 15.6279 8.39602 16.2319 8.05831C16.8454 7.73158 17.5434 7.56179 18.3359 7.56179C19.1003 7.56179 19.7891 7.7407 20.3934 8.08821C20.9974 8.43505 21.4406 8.93156 21.7428 9.57664C21.9412 9.95263 22.064 10.3604 22.1199 10.7963C22.1769 11.2223 22.2047 11.7772 22.2047 12.4526V18.137C22.2047 18.7517 22.064 19.2169 21.7987 19.525C21.5352 19.8426 21.1849 20.0002 20.7603 20.0002C20.3273 20.0002 19.9783 19.8426 19.7039 19.5147C19.4299 19.1971 19.299 18.7321 19.299 18.137V13.0469C19.299 12.036 19.1664 11.2621 18.9019 10.7265C18.6377 10.1914 18.0995 9.92303 17.308 9.92303C16.7888 9.92303 16.3164 10.0924 15.8915 10.4089C15.4679 10.7368 15.1464 11.1821 14.9476 11.7578C14.8065 12.2146 14.7398 13.0571 14.7398 14.318V18.137C14.7398 18.7612 14.6 19.2169 14.326 19.536C14.052 19.8426 13.7034 20.0002 13.2686 20.0002C12.845 20.0002 12.5038 19.8426 12.2305 19.5147C11.9572 19.1971 11.8242 18.7321 11.8242 18.137V9.29806C11.8242 8.71362 11.947 8.277 12.1929 7.99917C12.4289 7.71222 12.7585 7.56179 13.1841 7.56179C13.4388 7.56179 13.6647 7.62093 13.8719 7.75162C14.0808 7.87939 14.2497 8.06855 14.3724 8.32627C14.4949 8.58323 14.5519 8.89171 14.5519 9.24879Z" fill="#003A9B"/>
<path d="M6.74243 0.472198C8.70532 -0.272539 10.9419 -0.232689 12.6213 1.29469C12.9336 1.60212 13.2914 1.98911 13.4331 2.4454C13.6034 3.02072 12.8393 2.38521 12.7346 2.30701C12.1875 1.92959 11.6398 1.61237 11.0274 1.39368C7.7249 0.322891 4.60012 2.25744 2.65757 5.263C1.84637 6.59218 1.317 7.98999 0.883235 9.52731C0.836434 9.69665 0.798452 9.91534 0.712665 10.0625C0.627882 10.2326 0.675361 9.60798 0.675361 9.5872C0.7408 8.95304 0.864244 8.33794 1.0155 7.72278C1.91148 4.44888 3.89269 1.72145 6.74243 0.472198Z" fill="#003A9B"/>
<path d="M9.30164 8.59436C8.12252 9.2292 6.6778 8.73418 6.08332 7.49405C5.47932 6.25354 5.95174 4.73633 7.13089 4.11137C8.31074 3.47654 9.75546 3.97193 10.3492 5.21244C10.9533 6.45249 10.4815 7.9697 9.30164 8.59436Z" fill="#003A9B"/>
</svg>
