<svg width="135" height="20" viewBox="0 0 135 20" fill="none" xmlns="http://www.w3.org/2000/svg">
<g clip-path="url(#clip0_824_10465)">
<path d="M29.418 10.4118C29.418 12.9503 30.3838 14.7464 33.2567 14.7464C35.3124 14.7464 36.4764 13.4772 36.4764 13.4772L36.6498 14.0999C36.724 14.3394 36.8231 14.5069 37.0955 14.5069H37.5661C37.8138 14.5069 38.0367 14.2914 38.0367 14.0519V5.38252C38.0367 5.14303 37.8138 4.92749 37.5661 4.92749H36.7984C36.5507 4.92749 36.3278 5.14303 36.3278 5.38252V11.7768C36.3278 11.7768 35.2629 13.1419 33.3805 13.1419C31.9936 13.1419 31.1516 12.2558 31.1516 10.4357V5.38252C31.1516 5.14303 30.9287 4.92749 30.6811 4.92749H29.8885C29.6408 4.92749 29.418 5.14303 29.418 5.38252V10.4118Z" fill="#08BD80"/>
<path fill-rule="evenodd" clip-rule="evenodd" d="M55.4724 8.42492C52.9214 8.42492 51.5098 9.79001 51.5098 11.6102C51.5098 13.526 52.8224 14.7474 54.556 14.7474C56.0916 14.7474 57.107 14.005 57.6271 13.5021L57.8253 14.1487C57.8995 14.3643 57.9738 14.5079 58.2463 14.5079H58.7168C58.9645 14.5079 59.1873 14.2924 59.1873 14.0529V8.73626C59.1873 5.9343 58.5683 4.68896 56.042 4.68896C54.1845 4.68896 52.7481 5.23979 52.5995 5.31163C52.3766 5.40743 52.228 5.55112 52.327 5.83851L52.5252 6.43722C52.5995 6.65276 52.7481 6.7725 52.9958 6.67671C53.4415 6.50907 54.6056 6.14984 55.9678 6.14984C57.3794 6.14984 57.6023 6.96409 57.5776 8.73626C57.5776 8.73626 56.5373 8.42492 55.4724 8.42492ZM54.8281 13.3105C53.7632 13.3105 53.0944 12.5681 53.0944 11.6101C53.0944 10.3648 54.0851 9.69426 55.472 9.69426C56.5618 9.69426 57.2553 9.90976 57.5524 10.0774V11.9693C57.1314 12.5681 56.0664 13.3105 54.8281 13.3105Z" fill="#2D81F7"/>
<path d="M61.4941 9.74217C61.4941 12.616 63.8221 14.7474 66.5712 14.7474C68.2554 14.7474 69.6175 13.8853 70.3605 12.7358C70.5091 12.4963 70.4348 12.2328 70.1871 12.0652L69.9147 11.8736C69.6423 11.682 69.469 11.6341 69.1717 11.9215C68.6021 12.4483 68.0325 13.1668 66.5465 13.1668C64.689 13.1668 63.2773 11.6341 63.2773 9.71817C63.2773 7.8023 64.7137 6.31747 66.5712 6.31747C67.5371 6.31747 68.3545 6.7725 68.8498 7.32332C69.0726 7.51491 69.1965 7.7544 69.568 7.41911L70.0385 7.03594C70.2615 6.8683 70.311 6.58091 70.1376 6.36537C69.246 5.26373 68.082 4.68896 66.596 4.68896C63.8965 4.68896 61.4941 6.91619 61.4941 9.74217Z" fill="#2D81F7"/>
<path fill-rule="evenodd" clip-rule="evenodd" d="M76.7068 8.42492C74.1558 8.42492 72.7441 9.79001 72.7441 11.6102C72.7441 13.526 74.0568 14.7474 75.7904 14.7474C77.326 14.7474 78.3414 14.005 78.8615 13.5021L79.0596 14.1487C79.1339 14.3643 79.2082 14.5079 79.4806 14.5079H79.9512C80.1989 14.5079 80.4217 14.2924 80.4217 14.0529V8.73626C80.4217 5.9343 79.8026 4.68896 77.2764 4.68896C75.4189 4.68896 73.9825 5.23979 73.8339 5.31163C73.611 5.40743 73.4624 5.55112 73.5615 5.83851L73.7596 6.43722C73.8339 6.65276 73.9825 6.7725 74.2301 6.67671C74.676 6.50907 75.84 6.14984 77.2021 6.14984C78.6138 6.14984 78.8367 6.96409 78.812 8.73626C78.812 8.73626 77.7717 8.42492 76.7068 8.42492ZM76.0619 13.3105C74.9969 13.3105 74.3282 12.5681 74.3282 11.6101C74.3282 10.3648 75.3189 9.69426 76.7058 9.69426C77.7955 9.69426 78.489 9.90976 78.7861 10.0774V11.9693C78.3651 12.5681 77.3001 13.3105 76.0619 13.3105Z" fill="#2D81F7"/>
<path fill-rule="evenodd" clip-rule="evenodd" d="M87.4815 4.68872C84.5098 4.68872 82.7266 6.89199 82.7266 9.694C82.7266 12.4481 84.7081 14.7472 87.234 14.7472C89.0915 14.7472 90.2806 13.4779 90.2806 13.4779L90.429 14.1245C90.4781 14.34 90.6273 14.5077 90.8498 14.5077H91.3698C91.6181 14.5077 91.8406 14.2922 91.8406 14.0527V0.455025C91.8406 0.215538 91.6181 0 91.3698 0H90.6023C90.3548 0 90.1315 0.215538 90.1315 0.455025V5.31138C90.1315 5.31138 89.1165 4.68872 87.4815 4.68872ZM87.4065 13.2382C85.599 13.2382 84.4598 11.5858 84.4598 9.71783C84.4598 7.80191 85.549 6.29314 87.704 6.29314C89.0665 6.29314 90.1065 6.86791 90.1065 6.86791V11.6577C90.1065 11.6577 89.1898 13.2382 87.4065 13.2382Z" fill="#2D81F7"/>
<path fill-rule="evenodd" clip-rule="evenodd" d="M99.0026 4.68896C96.0059 4.68896 94.1484 7.01199 94.1484 9.71817C94.1484 12.4723 96.0059 14.7474 99.0026 14.7474C100.712 14.7474 102.049 14.1008 102.643 13.6458C103.015 13.3823 102.916 13.2387 102.743 13.0231C102.668 12.9273 102.6 12.8375 102.532 12.7477C102.464 12.6579 102.396 12.5681 102.322 12.4723C102.141 12.232 102.001 12.3105 101.715 12.4715C101.688 12.487 101.658 12.5033 101.628 12.5202C101.058 12.8554 100.217 13.2387 99.1759 13.2387C97.4176 13.2387 95.9568 11.7298 95.8576 10.1253H102.99C103.213 10.1253 103.411 9.95767 103.436 9.71817C103.461 9.55051 103.486 9.23917 103.486 9.07159C103.486 6.55696 101.603 4.68896 99.0026 4.68896ZM101.775 8.78417H95.8809C96.0543 7.29938 97.3426 6.14985 99.0018 6.14985C100.513 6.14985 101.701 7.39518 101.775 8.78417Z" fill="#2D81F7"/>
<path d="M105.789 14.0529C105.789 14.2924 106.012 14.5079 106.26 14.5079H107.027C107.275 14.5079 107.498 14.2924 107.498 14.0529V7.65861C107.498 7.65861 108.562 6.29353 110.322 6.29353C111.832 6.29353 112.674 7.17963 112.674 8.99976V14.0529C112.674 14.2924 112.897 14.5079 113.145 14.5079H113.937C114.185 14.5079 114.407 14.2924 114.407 14.0529V8.99976C114.407 8.49684 114.358 8.04178 114.284 7.63466C114.631 7.32332 115.696 6.29353 117.306 6.29353C118.742 6.29353 119.534 7.20358 119.534 8.99976V14.0529C119.534 14.2924 119.757 14.5079 120.005 14.5079H120.797C121.045 14.5079 121.268 14.2924 121.268 14.0529V8.99976C121.268 6.50906 120.302 4.68896 117.429 4.68896C115.448 4.68896 113.863 6.14984 113.739 6.24563C113.095 5.23979 112.03 4.68896 110.569 4.68896C108.513 4.68896 107.349 5.95825 107.349 5.95825L107.127 5.21584C107.077 5.02425 106.953 4.92846 106.73 4.92846H106.26C106.012 4.92846 105.789 5.14399 105.789 5.38348V14.0529Z" fill="#2D81F7"/>
<path d="M128.24 14.483L126.234 19.4005C126.061 19.7359 126.259 19.9993 126.63 19.9993H127.546C127.72 19.9993 127.893 19.8556 127.967 19.7119L134.406 5.47832C134.58 5.16698 134.406 4.92749 134.035 4.92749H133.094C132.92 4.92749 132.747 5.04723 132.673 5.19093L129.205 12.5192L125.516 5.19093C125.441 5.04723 125.292 4.92749 125.094 4.92749H124.005C123.633 4.92749 123.485 5.14303 123.633 5.45437L128.24 14.483Z" fill="#2D81F7"/>
<path d="M40.3359 14.0529C40.3359 14.2924 40.5589 14.5079 40.8065 14.5079H41.5743C41.8219 14.5079 42.0449 14.2924 42.0449 14.0529V7.65861C42.0449 7.65861 43.3822 6.29353 45.2397 6.29353C46.6266 6.29353 47.4687 7.17963 47.4687 8.99976V14.0529C47.4687 14.2924 47.6916 14.5079 47.9393 14.5079H48.7318C48.9794 14.5079 49.2024 14.2924 49.2024 14.0529V8.99976C49.2024 6.50906 48.2364 4.68896 45.3635 4.68896C43.3079 4.68896 41.8962 5.95825 41.8962 5.95825L41.6734 5.21584C41.6238 5.02425 41.4999 4.92846 41.277 4.92846H40.8065C40.5589 4.92846 40.3359 5.14399 40.3359 5.38348V14.0529Z" fill="#08BD80"/>
<path d="M0.603323 1.85888C1.52361 7.50488 6.5824 11.8228 12.6851 11.8228C18.726 11.8228 23.744 7.59182 24.7376 2.02986C24.8648 1.50767 24.9174 1.0906 24.9013 0.733282C24.9013 0.323909 24.5977 0.00610352 24.1769 0.00610352H23.4941H1.9908H1.20384C0.783261 0.00610352 0.479832 0.323432 0.479376 0.732358L0.476563 0.732251C0.477136 0.741398 0.477721 0.750541 0.478317 0.759682C0.46734 1.07091 0.507747 1.42756 0.603323 1.85888Z" fill="#2D81F7"/>
<path d="M18.6836 19.0549C18.2235 16.232 15.694 14.073 12.6428 14.073C9.62229 14.073 7.11328 16.1885 6.61649 18.9695C6.55289 19.2306 6.52657 19.4391 6.53461 19.6177C6.53461 19.8224 6.68639 19.9813 6.89684 19.9813H7.23823H17.9899H18.3834C18.5936 19.9813 18.7454 19.8227 18.7456 19.6182H18.747C18.7467 19.6137 18.7464 19.6092 18.7461 19.6046C18.7516 19.4489 18.7314 19.2706 18.6836 19.0549Z" fill="#08BD80"/>
</g>
<defs>
<clipPath id="clip0_824_10465">
<rect width="134.167" height="20" fill="white" transform="translate(0.476562)"/>
</clipPath>
</defs>
</svg>
