<svg width="500" height="500" viewBox="0 0 500 500" fill="none" xmlns="http://www.w3.org/2000/svg">
<g clip-path="url(#clip0_1845_3)">
<g opacity="0.4">
<path d="M27.9979 240.16C27.1239 248.011 27.5239 256.054 29.6859 263.549C31.8259 271.006 35.7899 277.957 41.4269 282.643C42.8229 283.815 44.2989 284.855 45.8349 285.745C47.3849 286.617 49.0039 287.316 50.6469 287.867C53.9319 288.986 57.3669 289.377 60.7439 289.216C67.5259 288.85 74.0569 286.285 79.9949 282.593C80.3529 282.361 80.7659 282.121 81.0769 281.899L81.9329 281.262C82.4919 280.799 83.0479 280.363 83.5879 279.853C84.6759 278.88 85.7169 277.784 86.7069 276.572C88.6899 274.184 90.5549 271.434 92.2229 268.443C95.6189 262.479 98.5079 255.727 101.223 248.754C106.623 234.734 111.37 219.779 116.703 204.651C118.033 200.863 119.42 197.066 120.868 193.256C122.281 189.434 123.811 185.616 125.397 181.778C128.605 174.097 132.082 166.405 136.812 158.614C138.011 156.663 139.3 154.703 140.785 152.733C141.528 151.751 142.34 150.751 143.197 149.785C144.06 148.839 144.952 147.933 145.873 147.075C149.566 143.637 153.654 141 157.74 138.923C165.924 134.734 174.08 132.48 181.938 130.148C189.819 127.908 197.511 125.745 204.895 122.982C212.27 120.231 219.334 116.885 225.727 112.668C232.136 108.485 237.778 103.325 242.342 97.407C246.889 91.461 250.481 84.826 252.088 78.134C252.892 74.801 253.241 71.492 253.054 68.383C252.846 65.275 252.122 62.382 250.907 59.901C248.509 54.902 244.365 51.572 239.445 49.971C236.992 49.142 234.328 48.765 231.579 48.724C228.824 48.717 225.972 49.067 223.103 49.767C222.386 49.942 221.668 50.151 220.951 50.363L218.39 51.132C216.693 51.67 215.011 52.23 213.352 52.848C210.032 54.079 206.775 55.447 203.537 57.012C197.063 60.107 190.603 64.021 183.432 68.184C176.301 72.351 168.366 76.573 159.926 79.962C151.465 83.29 142.641 85.841 133.842 87.452C132.741 87.683 131.643 87.831 130.543 88.018L127.586 88.494C125.952 88.768 124.298 89.092 122.644 89.449C119.339 90.181 116.048 91.083 112.831 92.135C99.9389 96.381 88.3259 103.106 79.4879 112.592C75.0299 117.306 71.1089 122.635 67.7809 128.608C66.1029 131.585 64.5639 134.72 63.2229 138.007C61.8299 141.279 60.6519 144.703 59.5689 148.227C58.5169 151.756 57.5989 155.393 56.8519 159.115C56.4859 160.863 56.1049 163.154 55.7119 165.219C55.2809 167.324 54.8479 169.417 54.3449 171.494C52.3429 179.801 49.7919 187.868 46.7269 195.62C43.7229 203.393 40.2249 210.846 36.7209 218.172C34.9599 221.832 33.2019 225.467 31.5879 229.119C30.0059 232.76 28.4889 236.491 27.9979 240.16ZM24.8979 239.826C25.1269 237.641 25.6779 235.599 26.2849 233.614C26.8799 231.623 27.5939 229.703 28.2869 227.79C29.6869 223.967 31.1479 220.212 32.4359 216.411C33.7479 212.621 34.9199 208.8 35.9219 204.953C36.9239 201.106 37.6869 197.212 38.3269 193.327C39.5299 185.535 39.9449 177.702 39.5889 169.975C39.5209 168.045 39.3739 166.118 39.2259 164.203C39.0449 162.244 38.8389 160.508 38.6619 158.232C38.3049 153.904 38.1419 149.508 38.2729 145.064C38.5029 136.18 39.8469 127.066 42.7259 118.145C45.5899 109.242 50.0149 100.567 55.8989 92.911C61.7769 85.251 68.9619 78.595 76.8229 73.168C84.6969 67.734 93.2369 63.528 102.058 60.457C106.47 58.912 110.958 57.656 115.528 56.672C117.811 56.168 120.121 55.758 122.468 55.41L128.155 54.58C135.238 53.446 142.078 51.929 148.741 49.671C155.446 47.509 161.996 44.561 169.079 41.142C176.134 37.74 183.791 33.817 192.145 30.563C196.309 28.939 200.605 27.466 204.971 26.272C207.153 25.669 209.351 25.14 211.55 24.65L214.859 23.974C216.11 23.752 217.364 23.548 218.635 23.39C223.709 22.748 228.981 22.713 234.245 23.553C239.504 24.358 244.748 26.054 249.577 28.693C254.396 31.341 258.761 34.973 262.169 39.34C265.601 43.685 268.044 48.743 269.312 53.926C270.617 59.109 270.776 64.368 270.136 69.299C269.517 74.243 268.106 78.882 266.233 83.146C262.396 91.662 257.023 98.763 251.032 104.972C248.04 108.109 244.784 110.961 241.429 113.631C238.04 116.262 234.517 118.676 230.893 120.865C216.363 129.645 200.443 134.666 185.839 141.023C178.565 144.158 171.554 147.71 166.048 152.099C163.319 154.312 161.019 156.712 159.292 159.249C158.86 159.884 158.464 160.528 158.095 161.177C157.736 161.818 157.395 162.47 157.048 163.183C156.36 164.607 155.703 166.183 155.084 167.826C153.842 171.122 152.756 174.711 151.745 178.377C150.684 182.035 149.757 185.809 148.769 189.609L145.854 201.135C144.878 205.012 143.875 208.911 142.797 212.815C138.475 228.426 133.457 244.273 125.755 259.736C121.852 267.443 117.297 275.09 111.259 282.217C109.724 283.983 108.132 285.723 106.39 287.397C104.675 289.078 102.832 290.702 100.82 292.194C98.8359 293.701 96.6959 295.101 94.4069 296.326C93.2869 296.96 92.0729 297.495 90.8779 298.019L89.0339 298.741C88.4399 298.96 87.9229 299.112 87.3649 299.298C82.9669 300.698 78.3979 301.729 73.7129 302.164C69.0379 302.608 64.2519 302.446 59.6069 301.533C54.9579 300.655 50.4869 298.921 46.4989 296.564C44.5069 295.377 42.6379 294.024 40.9329 292.519C39.2089 291.041 37.6349 289.425 36.2209 287.71C30.5559 280.81 27.3879 272.65 25.7729 264.49C24.1629 256.292 24.0749 247.984 24.8979 239.826Z" fill="#EBEBEB"/>
<path d="M336.036 440.151C326.895 441.453 318.04 444.346 309.538 448.004C301.01 451.636 292.804 456.017 284.528 460.482C280.37 462.679 276.219 464.966 271.919 467.099C267.628 469.27 263.203 471.331 258.477 473.076C253.75 474.803 248.708 476.258 243.128 476.842C237.59 477.419 231.358 477.042 225.281 474.825C223.773 474.284 222.319 473.558 220.833 472.888C219.421 472.111 218.028 471.268 216.64 470.408C215.352 469.468 214.061 468.491 212.808 467.48C211.654 466.419 210.504 465.337 209.36 464.237C205.185 459.994 201.639 454.991 198.836 449.668C196.02 444.343 194.062 438.702 192.703 433.147C191.368 427.577 190.622 422.076 190.247 416.732C189.51 406.039 190.094 395.944 190.804 386.34L191.943 372.232C192.133 369.927 192.255 367.657 192.408 365.395L192.608 362.033L192.737 358.708C192.834 354.301 192.887 349.985 192.551 345.789C192.299 341.59 191.682 337.473 190.781 333.683C189.834 329.759 188.316 325.665 186.502 321.55C184.689 317.431 182.606 313.272 180.361 309.106C175.861 300.75 170.756 292.413 165.781 283.8L162.083 277.279C160.884 275.058 159.701 272.835 158.573 270.547C156.266 266.009 154.212 261.26 152.578 256.248C150.974 251.241 149.847 245.883 149.894 240.366C149.911 234.863 151.228 229.314 153.623 224.492C154.789 222.047 156.283 219.864 157.836 217.755L160.309 214.756C161.151 213.802 162.027 212.947 162.888 212.039C166.417 208.532 170.232 205.276 174.375 202.444C178.559 199.686 182.978 197.235 187.646 195.319C188.821 194.867 189.971 194.327 191.166 193.926L194.756 192.706C197.184 192.021 199.624 191.325 202.104 190.824C212.015 188.71 222.275 188.255 232.382 189.142C237.438 189.561 242.482 190.248 247.451 191.252C252.447 192.182 257.347 193.48 262.217 194.896C264.624 195.662 267.074 196.362 269.449 197.222L273.04 198.468L276.587 199.815C281.307 201.651 285.944 203.663 290.512 205.83C292.787 206.926 295.04 208.061 297.302 209.19C299.527 210.371 301.757 211.56 303.959 212.788C306.138 214.047 308.359 215.257 310.509 216.565C312.645 217.894 314.826 219.17 316.927 220.549L329.064 228.4C331.032 229.675 333.035 230.88 335.016 232.123L337.995 233.974L341.003 235.762C357.012 245.412 373.467 253.703 390.406 261.285C398.932 265.066 407.536 268.693 416.645 272.81C421.193 274.843 425.856 277.139 430.68 279.839C435.461 282.576 440.439 285.767 445.147 289.792C449.866 293.779 454.241 298.556 457.801 303.66C461.43 308.753 464.16 314.108 466.429 319.351C467.625 321.989 468.535 324.589 469.5 327.206C469.955 328.508 470.345 329.796 470.768 331.091C471.183 332.383 471.607 333.658 471.953 335.053L473.03 339.15L473.551 341.199L473.951 343.321C474.469 346.159 475.025 348.951 475.225 351.909C475.363 353.369 475.5 354.823 475.599 356.282L475.614 360.75L475.598 362.975C475.579 363.717 475.477 364.476 475.416 365.224L474.964 369.709C474.739 371.199 474.391 372.688 474.095 374.165L473.622 376.376C473.438 377.108 473.19 377.829 472.974 378.553C472.521 379.997 472.076 381.438 471.589 382.858C471.013 384.249 470.402 385.621 469.788 386.983C467.191 392.341 463.998 397.343 460.123 401.444L458.715 403.022C458.225 403.52 457.715 403.988 457.215 404.469C456.207 405.418 455.217 406.386 454.186 407.286C452.045 408.954 449.985 410.73 447.752 412.139C443.405 415.2 438.788 417.506 434.22 419.689C429.588 421.709 424.957 423.546 420.26 424.988C410.892 427.967 401.491 430.098 392.106 431.84C389.755 432.251 387.423 432.732 385.069 433.081C382.722 433.461 380.395 433.91 378.047 434.246C375.708 434.621 373.362 434.954 371.025 435.301L364.015 436.319L336.036 440.151ZM335.52 437.092C344.786 435.747 353.993 434.061 363.063 431.895L366.461 431.077L369.836 430.179C372.093 429.609 374.315 428.919 376.54 428.252C380.997 426.947 385.379 425.427 389.704 423.812C398.346 420.572 406.683 416.666 414.376 412.056C418.257 409.805 421.87 407.242 425.34 404.637C428.701 401.915 431.955 399.144 434.68 396.078C436.151 394.63 437.304 392.98 438.583 391.461L440.246 389.046C440.519 388.646 440.808 388.257 441.067 387.855L441.763 386.608C443.736 383.355 445.045 379.945 445.993 376.534C446.192 375.665 446.393 374.807 446.629 373.968L447.017 371.346C447.077 370.91 447.172 370.489 447.21 370.048L447.263 368.707C447.291 367.813 447.382 366.946 447.385 366.051L447.29 363.336C447.268 362.883 447.293 362.445 447.24 361.983L447.068 360.595L446.771 357.836L446.218 355.016C445.534 351.267 444.356 347.416 443.038 343.555C442.757 342.605 442.347 341.596 441.957 340.595C441.564 339.602 441.194 338.582 440.787 337.611C439.934 335.719 439.15 333.759 438.236 332.01C436.465 328.418 434.551 325.153 432.419 322.398C430.278 319.624 427.975 317.25 425.256 315.05C419.87 310.671 412.459 306.838 404.106 302.902C399.961 300.925 395.643 298.958 391.244 296.928C386.857 294.923 382.434 292.742 378.005 290.578C360.245 281.804 342.885 271.601 326.484 260.355L323.395 258.26L320.348 256.109C318.324 254.667 316.275 253.26 314.274 251.791L302.602 243.17C298.875 240.44 295.102 237.798 291.311 235.19L285.569 231.386C283.638 230.16 281.709 228.918 279.763 227.716C275.848 225.372 271.938 222.991 267.926 220.872L264.93 219.24L261.904 217.696C259.891 216.629 257.837 215.73 255.794 214.745C247.579 211.049 239.147 207.875 230.523 205.867C226.21 204.818 221.864 204.185 217.505 203.752C213.138 203.291 208.784 203.345 204.469 203.709C195.821 204.398 187.458 207.034 179.954 211.337C176.235 213.543 172.736 216.158 169.545 219.155C168.769 219.919 167.938 220.667 167.202 221.442L165.117 223.799C163.877 225.46 162.676 227.148 161.789 228.974C159.927 232.582 158.992 236.561 159.06 240.689C159.113 244.816 160.117 249.068 161.723 253.212C163.312 257.372 165.527 261.406 167.92 265.382C170.378 269.327 173.084 273.199 175.967 277.007C181.704 284.638 187.984 292.084 194.133 300.015C197.196 304.002 200.215 308.137 203.073 312.555C205.927 316.971 208.643 321.681 210.891 326.941C215.426 337.697 217.177 348.569 217.934 359.033C219.298 379.91 216.631 399.123 217.017 416.344C217.196 424.935 218.139 432.861 220.638 439.88C221.873 443.406 223.581 446.708 225.689 449.88C227.665 452.791 229.827 455.146 232.529 456.853C235.213 458.572 238.548 459.759 242.407 460.228C246.253 460.715 250.508 460.54 254.836 459.955C259.174 459.373 263.606 458.413 268.05 457.282C272.473 456.076 276.932 454.746 281.353 453.262C290.235 450.365 299.053 447.055 308.012 444.108C316.958 441.136 326.08 438.517 335.52 437.092Z" fill="#EBEBEB"/>
<path d="M293.155 88.995C296.337 88.178 299.332 87.688 302.252 87.349C303.714 87.157 305.131 87.048 306.563 86.923C307.968 86.842 309.395 86.763 310.776 86.735C313.561 86.626 316.272 86.701 318.977 86.79C329.725 87.217 339.993 88.862 350.119 90.428L353.709 90.968L355.302 91.204L356.929 91.327C358.016 91.434 359.15 91.401 360.273 91.427C361.413 91.38 362.552 91.334 363.719 91.243C364.883 91.142 366.042 91.032 367.228 90.846C368.398 90.676 369.585 90.489 370.775 90.256C373.139 89.774 375.558 89.26 377.94 88.593C387.583 86.048 397.113 82.277 407.745 79.843C413.091 78.72 418.829 77.893 424.921 78.543C427.975 78.787 431.023 79.568 434.023 80.545C435.492 81.096 436.993 81.645 438.389 82.357C439.102 82.707 439.83 83.041 440.518 83.412L442.544 84.606C445.247 86.231 447.68 88.138 449.996 90.145C451.176 91.163 452.296 92.403 453.443 93.567C454.558 94.765 455.487 96.057 456.51 97.335C457.5 98.614 458.293 99.958 459.169 101.314C459.617 101.988 459.969 102.677 460.331 103.362L461.429 105.446L461.965 106.498L462.416 107.561L463.303 109.704C463.948 111.127 464.386 112.561 464.854 114.018C466.69 119.804 467.672 125.683 467.993 131.492C468.268 137.297 467.931 143.046 467.052 148.658C466.16 154.264 464.619 159.717 462.635 164.973C462.123 166.282 461.585 167.579 461.042 168.866C460.477 170.151 459.834 171.41 459.225 172.667C458.629 173.93 457.956 175.167 457.262 176.379C456.572 177.6 455.901 178.814 455.131 179.999C452.207 184.746 448.794 189.203 445.18 193.369C441.539 197.523 437.659 201.401 433.481 204.848C429.33 208.307 424.982 211.429 420.357 214.001C415.729 216.563 410.808 218.536 405.658 219.65C400.462 220.76 394.936 220.627 389.679 219.279C384.419 217.954 379.431 215.623 374.713 212.921C365.29 207.435 356.637 200.62 348.674 193.452C344.68 189.85 340.929 186.1 337.365 182.255C336.866 181.678 336.583 181.519 336.257 181.221L335.323 180.41C334.604 179.928 334.053 179.36 333.303 178.913L332.281 178.191C331.906 177.967 331.525 177.757 331.175 177.513C330.489 177.03 329.626 176.637 328.902 176.168C325.712 174.406 322.084 172.69 317.908 171.028L311.33 168.438L307.808 167.059L304.132 165.539C301.643 164.533 299.025 163.276 296.362 161.958C293.681 160.536 290.909 158.993 288.125 157.042C285.323 155.043 282.509 152.837 279.887 150.001C277.284 147.213 274.853 144.004 273.013 140.446L272.297 139.128L271.688 137.77C271.296 136.863 270.881 135.953 270.528 135.031C269.928 133.202 269.253 131.323 268.91 129.496L268.332 126.735L267.984 124.052C267.72 122.228 267.704 120.531 267.642 118.796C267.622 118.336 267.61 117.985 267.606 117.452C267.615 116.748 267.65 116.055 267.695 115.359C267.74 113.995 268.004 112.503 268.325 111.044C268.402 110.692 268.484 110.327 268.58 109.967L268.926 108.866C269.171 108.138 269.432 107.426 269.703 106.71C270.32 105.328 271.039 103.95 271.834 102.711C272.248 102.107 272.666 101.513 273.102 100.935C273.323 100.639 273.543 100.343 273.765 100.08L274.452 99.316C274.907 98.819 275.38 98.338 275.862 97.853C276.334 97.372 276.799 97.016 277.284 96.596C277.757 96.203 278.249 95.803 278.733 95.44L280.145 94.477C280.619 94.173 281.11 93.829 281.569 93.576L282.937 92.818C286.615 90.897 289.977 89.822 293.155 88.995Z" fill="#EBEBEB"/>
<path d="M146.71 354.004C147.315 357.52 147.513 360.862 147.42 364.087C147.327 370.549 145.871 376.464 144.276 382.228C142.658 388.003 140.69 393.615 138.233 399.03C135.73 404.421 132.679 409.591 128.883 414.33C125.076 419.057 120.698 423.493 115.47 427.289C110.219 431.015 103.698 433.751 96.549 434.822C92.986 435.346 89.272 435.451 85.651 435.043C82.042 434.612 78.548 433.693 75.498 432.307C72.424 430.945 69.804 429.21 67.534 427.37C65.252 425.519 63.284 423.563 61.375 421.595C60.374 420.5 59.477 419.324 58.685 418.055C57.94 416.762 57.323 415.4 56.787 413.98C55.797 411.139 55.169 408.112 54.761 405.026C53.946 398.855 53.771 392.253 54.551 385.931C55.331 379.608 57.287 373.717 60.361 368.687C63.435 363.657 67.464 359.384 72.214 355.972C76.941 352.525 82.495 350.057 87.933 347.81C93.452 345.621 98.796 343.56 103.873 341.161C109.043 338.844 113.863 336.096 120.046 334.175C121.606 333.709 123.26 333.278 125.111 333.08C126.939 332.847 128.953 332.801 131.142 333.173C133.494 333.569 136.312 334.884 138.384 336.701C138.885 337.155 139.42 337.644 139.851 338.133C140.282 338.622 140.713 339.123 141.12 339.647C141.83 340.637 142.54 341.708 143.041 342.698C143.623 343.746 144.007 344.677 144.438 345.702C144.787 346.634 145.183 347.658 145.428 348.555L145.836 349.964L146.174 351.326C146.396 352.246 146.547 353.107 146.71 354.004Z" fill="#EBEBEB"/>
</g>
<path d="M169.243 230.369C169.243 237.255 163.69 242.585 156.803 242.585H154.582V259.468C154.582 266.354 149.251 271.684 142.367 271.684C135.48 271.684 130.149 266.353 130.149 259.468V242.585H60.624H60.402H60.18C57.515 242.585 54.849 241.919 52.627 239.92C47.074 235.7 46.408 228.149 50.629 222.816L132.815 120.638C133.037 120.638 133.037 120.416 133.26 120.195C133.482 119.973 133.705 119.75 133.927 119.306C134.591 119.084 134.813 118.863 135.036 118.64C135.258 118.418 135.703 118.195 135.925 117.973C136.37 117.751 136.592 117.528 137.256 117.528C137.478 117.085 137.701 116.862 138.145 116.862C138.367 116.64 138.812 116.64 139.479 116.417C139.701 116.417 140.143 116.417 140.366 116.195C140.811 116.195 141.478 116.195 141.922 116.195C141.922 116.195 142.144 116.195 142.367 116.195C142.59 116.195 142.59 116.195 142.809 116.195C143.254 116.195 143.921 116.195 144.143 116.195C144.588 116.417 144.81 116.417 145.255 116.417C145.475 116.64 146.142 116.64 146.586 116.862C146.808 116.862 147.253 117.084 147.475 117.084C147.92 117.527 148.362 117.75 148.584 117.972C149.029 118.194 149.251 118.417 149.696 118.639C149.696 118.639 149.918 118.639 149.918 118.862C150.14 118.862 150.585 119.083 150.585 119.305C151.03 119.75 151.249 119.972 151.472 120.194C151.694 120.415 151.917 120.86 152.139 121.082C152.361 121.305 152.584 121.527 153.028 122.192C153.028 122.415 153.251 122.859 153.473 123.082C153.695 123.525 153.695 123.748 153.918 124.415C153.918 124.636 154.138 125.081 154.138 125.303C154.36 125.748 154.36 125.969 154.36 126.636C154.36 127.081 154.582 127.303 154.582 127.746C154.582 127.968 154.582 128.191 154.582 128.413V218.152H156.803C163.69 218.153 169.243 223.706 169.243 230.369ZM130.15 163.287L85.947 218.153H130.15V163.287Z" fill="#455A64"/>
<path d="M452.105 230.369C452.105 237.255 446.552 242.585 439.665 242.585H437.442V259.468C437.442 266.354 432.111 271.684 425.23 271.684C418.343 271.684 413.012 266.353 413.012 259.468V242.585H343.485H343.263H343.04C340.372 242.585 337.709 241.919 335.486 239.92C329.933 235.7 329.266 228.149 333.49 222.816L415.674 120.638C415.896 120.638 415.896 120.416 416.119 120.195C416.341 119.973 416.564 119.75 416.786 119.306C417.453 119.084 417.675 118.863 417.898 118.64C418.12 118.418 418.565 118.195 418.787 117.973C419.231 117.751 419.454 117.528 420.115 117.528C420.337 117.085 420.56 116.862 421.004 116.862C421.227 116.64 421.671 116.64 422.338 116.417C422.56 116.417 423.005 116.417 423.227 116.195C423.672 116.195 424.339 116.195 424.783 116.195C424.783 116.195 425.006 116.195 425.228 116.195C425.45 116.195 425.45 116.195 425.667 116.195C426.112 116.195 426.779 116.195 427.001 116.195C427.446 116.417 427.668 116.417 428.113 116.417C428.335 116.64 429.003 116.64 429.447 116.862C429.669 116.862 430.114 117.084 430.336 117.084C430.78 117.527 431.22 117.75 431.442 117.972C431.887 118.194 432.109 118.417 432.553 118.639C432.553 118.639 432.776 118.639 432.776 118.862C432.998 118.862 433.443 119.083 433.443 119.305C433.888 119.75 434.11 119.972 434.332 120.194C434.554 120.415 434.777 120.86 434.999 121.082C435.222 121.305 435.444 121.527 435.888 122.192C435.888 122.415 436.11 122.859 436.333 123.082C436.555 123.525 436.555 123.748 436.778 124.415C436.778 124.636 436.995 125.081 436.995 125.303C437.217 125.748 437.217 125.969 437.217 126.636C437.217 127.081 437.439 127.303 437.439 127.746C437.439 127.968 437.439 128.191 437.439 128.413V218.152H439.662C446.552 218.153 452.105 223.706 452.105 230.369ZM413.012 163.287L368.804 218.153H413.012V163.287Z" fill="#455A64"/>
<path d="M190.808 96.669V87.738C190.808 87.284 191.171 86.906 191.641 86.906C192.11 86.906 192.489 87.284 192.489 87.738V95.821H196.591C197.03 95.821 197.424 96.199 197.424 96.669C197.424 97.123 197.03 97.502 196.591 97.502H191.687C191.657 97.502 191.657 97.502 191.657 97.502C191.642 97.502 191.642 97.502 191.642 97.502C191.171 97.502 190.808 97.123 190.808 96.669Z" fill="#263238"/>
<path d="M207.081 88.223C208.019 89.222 208.61 90.554 208.61 92.052C208.61 93.551 208.02 94.898 207.081 95.882C206.188 96.866 204.856 97.502 203.463 97.502C202.01 97.502 200.678 96.866 199.755 95.882C198.816 94.898 198.256 93.551 198.256 92.052C198.256 90.554 198.816 89.222 199.755 88.223C200.678 87.224 202.01 86.603 203.463 86.603C204.855 86.603 206.187 87.224 207.081 88.223ZM206.884 92.052C206.884 91.023 206.475 90.069 205.855 89.403C205.219 88.722 204.372 88.328 203.463 88.328C202.494 88.328 201.647 88.722 201.011 89.403C200.375 90.069 199.982 91.023 199.982 92.052C199.982 93.081 200.376 94.035 201.011 94.686C201.647 95.367 202.494 95.776 203.463 95.776C204.371 95.776 205.219 95.367 205.855 94.686C206.475 94.035 206.884 93.081 206.884 92.052Z" fill="#263238"/>
<path d="M211.185 94.868C211.457 94.535 211.957 94.49 212.29 94.762C212.956 95.307 214.106 95.943 215.181 95.927C215.938 95.927 216.619 95.7 217.073 95.367C217.527 95.034 217.724 94.656 217.724 94.277C217.724 94.08 217.679 93.944 217.588 93.793C217.497 93.642 217.361 93.49 217.134 93.339C216.695 93.051 215.953 92.794 215.06 92.628H215.03C214.319 92.492 213.653 92.31 213.077 92.038C212.501 91.766 212.002 91.387 211.669 90.857C211.442 90.494 211.321 90.07 211.321 89.616C211.321 88.708 211.836 87.921 212.532 87.406C213.244 86.891 214.167 86.604 215.151 86.604C216.604 86.604 217.679 87.316 218.451 87.815C218.799 88.057 218.905 88.541 218.663 88.89C218.436 89.253 217.952 89.359 217.588 89.117C216.816 88.602 216.074 88.148 215.151 88.148C214.47 88.148 213.864 88.36 213.456 88.663C213.047 88.966 212.881 89.299 212.881 89.617C212.881 89.799 212.911 89.92 212.987 90.041C213.063 90.162 213.199 90.298 213.396 90.435C213.79 90.707 214.471 90.95 215.288 91.101H215.318C216.09 91.252 216.801 91.449 217.407 91.737C218.028 92.04 218.572 92.433 218.921 92.993C219.148 93.356 219.284 93.81 219.284 94.28C219.284 95.249 218.739 96.081 217.982 96.626C217.24 97.171 216.256 97.489 215.182 97.489C213.547 97.474 212.17 96.657 211.307 95.975C210.973 95.7 210.927 95.201 211.185 94.868Z" fill="#263238"/>
<path d="M227.867 88.586H225.46V96.669C225.46 97.138 225.097 97.502 224.627 97.502C224.173 97.502 223.794 97.139 223.794 96.669V88.586H221.402C220.933 88.586 220.569 88.192 220.569 87.738C220.569 87.269 220.932 86.906 221.402 86.906H227.865C228.319 86.906 228.698 87.269 228.698 87.738C228.699 88.192 228.321 88.586 227.867 88.586Z" fill="#263238"/>
<path d="M235.846 87.738C235.846 87.269 236.209 86.906 236.679 86.906C237.133 86.906 237.527 87.269 237.527 87.738V96.669C237.527 97.138 237.133 97.502 236.679 97.502C236.21 97.502 235.846 97.139 235.846 96.669V87.738Z" fill="#263238"/>
<path d="M242.022 96.669C242.022 97.123 241.644 97.502 241.205 97.502C240.736 97.502 240.372 97.123 240.372 96.669V87.875C240.372 87.875 240.372 87.875 240.372 87.86C240.357 87.603 240.478 87.33 240.705 87.164C241.083 86.907 241.598 86.982 241.855 87.346L246.744 94.112V87.876C246.744 87.437 247.107 87.059 247.561 87.059C248.015 87.059 248.393 87.437 248.393 87.876V96.67C248.393 97.124 248.015 97.503 247.561 97.503C247.319 97.503 247.092 97.382 246.94 97.2C246.91 97.17 246.879 97.139 246.864 97.109L242.02 90.388V96.669H242.022Z" fill="#263238"/>
<path d="M256.238 94.868C256.51 94.535 257.01 94.49 257.343 94.762C258.009 95.307 259.159 95.943 260.234 95.927C260.991 95.927 261.671 95.7 262.127 95.367C262.58 95.034 262.777 94.656 262.777 94.277C262.777 94.08 262.732 93.944 262.64 93.793C262.55 93.642 262.413 93.49 262.187 93.339C261.747 93.051 261.005 92.794 260.113 92.628H260.083C259.371 92.492 258.705 92.31 258.131 92.038C257.555 91.766 257.056 91.387 256.723 90.857C256.496 90.494 256.375 90.07 256.375 89.616C256.375 88.708 256.889 87.921 257.586 87.406C258.297 86.891 259.221 86.604 260.204 86.604C261.657 86.604 262.732 87.316 263.504 87.815C263.852 88.057 263.958 88.541 263.716 88.89C263.488 89.253 263.004 89.359 262.641 89.117C261.869 88.602 261.127 88.148 260.205 88.148C259.524 88.148 258.919 88.36 258.51 88.663C258.101 88.966 257.935 89.299 257.935 89.617C257.935 89.799 257.965 89.92 258.04 90.041C258.116 90.162 258.253 90.298 258.449 90.435C258.843 90.707 259.524 90.95 260.341 91.101H260.372C261.143 91.252 261.854 91.449 262.46 91.737C263.081 92.04 263.626 92.433 263.974 92.993C264.202 93.356 264.337 93.81 264.337 94.28C264.337 95.249 263.792 96.081 263.036 96.626C262.294 97.171 261.309 97.489 260.235 97.489C258.6 97.474 257.223 96.657 256.36 95.975C256.026 95.7 255.98 95.201 256.238 94.868Z" fill="#263238"/>
<path d="M270.211 93.384H268.35V96.669C268.35 97.123 267.971 97.502 267.502 97.502C267.047 97.502 266.669 97.123 266.669 96.669V87.738C266.669 87.269 267.047 86.906 267.502 86.906H267.517H270.211C272.012 86.906 273.465 88.359 273.465 90.16C273.465 91.931 272.012 93.384 270.211 93.384ZM268.35 91.704H270.211C271.089 91.704 271.77 91.008 271.785 90.16C271.769 89.282 271.089 88.586 270.211 88.586H268.35V91.704Z" fill="#263238"/>
<path d="M279.84 95.004H276.161L275.42 96.972C275.283 97.305 274.965 97.502 274.633 97.502C274.527 97.502 274.436 97.487 274.345 97.457C273.907 97.29 273.694 96.806 273.846 96.367L277.191 87.451C277.327 87.118 277.661 86.906 277.993 86.921C278.342 86.906 278.659 87.118 278.796 87.451L282.142 96.367C282.292 96.806 282.081 97.29 281.642 97.457C281.566 97.487 281.46 97.502 281.355 97.502C281.021 97.502 280.704 97.305 280.583 96.972L279.84 95.004ZM279.219 93.339L277.992 90.085L276.766 93.339H279.219Z" fill="#263238"/>
<path d="M283.141 92.052C283.156 89.055 285.668 86.618 288.696 86.603C290.028 86.603 291.239 87.042 292.192 87.784C292.555 88.087 292.616 88.617 292.344 88.995C292.041 89.373 291.481 89.434 291.133 89.162C290.467 88.617 289.634 88.329 288.695 88.329C287.65 88.329 286.681 88.753 285.97 89.419C285.288 90.115 284.865 91.023 284.865 92.053C284.865 93.083 285.289 94.021 285.97 94.687C286.681 95.353 287.65 95.777 288.695 95.777C289.634 95.777 290.451 95.489 291.133 94.944C291.481 94.687 292.041 94.747 292.344 95.111C292.615 95.489 292.555 96.034 292.192 96.322C291.239 97.064 290.028 97.503 288.696 97.503C285.668 97.502 283.155 95.064 283.141 92.052Z" fill="#263238"/>
<path d="M295.281 96.669V87.738C295.281 87.269 295.644 86.906 296.113 86.906H296.129C296.129 86.906 296.129 86.906 296.159 86.906H301.063C301.502 86.906 301.896 87.269 301.896 87.738C301.896 88.207 301.502 88.586 301.063 88.586H296.96V91.356H300.487C300.941 91.356 301.319 91.749 301.319 92.188C301.319 92.657 300.941 93.036 300.487 93.036H296.96V95.821H301.063C301.502 95.821 301.896 96.199 301.896 96.669C301.896 97.123 301.502 97.502 301.063 97.502H296.159C296.129 97.502 296.129 97.487 296.129 97.487L296.113 97.502C295.645 97.502 295.281 97.123 295.281 96.669Z" fill="#263238"/>
<path d="M306.938 93.172V94.156C306.938 94.58 306.621 94.898 306.197 94.898C305.803 94.898 305.456 94.58 305.456 94.156V92.582C305.456 92.567 305.471 92.567 305.471 92.552C305.456 92.537 305.456 92.537 305.456 92.522C305.456 92.128 305.804 91.78 306.197 91.78C307.151 91.78 307.923 91.023 307.923 90.085C307.923 89.131 307.152 88.39 306.197 88.39C305.577 88.39 305.032 88.723 304.744 89.223C304.532 89.586 304.078 89.707 303.715 89.495C303.366 89.283 303.245 88.844 303.458 88.481C304.003 87.542 305.032 86.907 306.197 86.907C307.953 86.907 309.391 88.33 309.391 90.086C309.391 91.583 308.346 92.839 306.938 93.172ZM306.938 96.487V96.76C306.938 97.184 306.621 97.502 306.197 97.502C305.803 97.502 305.456 97.184 305.456 96.76V96.487C305.456 96.078 305.804 95.745 306.197 95.745C306.62 95.746 306.938 96.079 306.938 96.487Z" fill="#263238"/>
<path d="M179.86 189.008L182.121 176.344C182.768 172.719 180.355 169.256 176.73 168.609C173.105 167.962 169.642 170.376 168.995 174L166.734 186.663C166.087 190.288 168.5 193.751 172.125 194.398C175.749 195.047 179.213 192.634 179.86 189.008Z" fill="#FFC727"/>
<path d="M333.302 191.937L331.464 179.205C330.938 175.56 327.557 173.033 323.913 173.559C320.269 174.085 317.741 177.466 318.267 181.11L320.105 193.842C320.631 197.486 324.012 200.014 327.656 199.488C331.3 198.962 333.828 195.581 333.302 191.937Z" fill="#FFC727"/>
<path d="M201.759 142.446L206.811 137.732C209.503 135.22 209.649 131.001 207.137 128.309C204.625 125.617 200.406 125.471 197.714 127.983L192.662 132.697C189.97 135.209 189.824 139.428 192.336 142.12C194.848 144.812 199.067 144.958 201.759 142.446Z" fill="#FFC727"/>
<path d="M208.832 247.508L204.118 242.456C201.606 239.764 197.387 239.618 194.695 242.13C192.003 244.642 191.857 248.861 194.369 251.553L199.083 256.605C201.595 259.297 205.814 259.443 208.506 256.931C211.198 254.42 211.344 250.201 208.832 247.508Z" fill="#FFC727"/>
<path d="M323.471 155.533L314.365 142.468C313.683 141.49 312.337 141.249 311.359 141.931L303.963 147.086C302.985 147.768 302.744 149.114 303.426 150.092L312.532 163.157C313.214 164.135 314.56 164.376 315.538 163.694L322.934 158.539C323.912 157.857 324.153 156.511 323.471 155.533Z" fill="#FFC727"/>
<path d="M276.341 271.102L282.839 268.753C286.302 267.501 288.094 263.679 286.842 260.216C285.59 256.753 281.768 254.961 278.305 256.213L271.807 258.562C268.344 259.814 266.552 263.636 267.804 267.099C269.056 270.561 272.878 272.353 276.341 271.102Z" fill="#FFC727"/>
<path d="M263.478 269.093C305.333 261.812 333.36 221.978 326.079 180.123C318.797 138.268 278.964 110.241 237.108 117.522C195.253 124.804 167.226 164.638 174.508 206.493C181.789 248.348 221.623 276.375 263.478 269.093Z" fill="#FFC727"/>
<path opacity="0.2" d="M242.981 135.095C245.258 137.887 246.467 141.563 246.618 145.288C246.797 149.036 245.785 152.834 243.983 156.128C242.1 159.445 238.986 162.324 235.266 163.377C231.615 164.515 227.725 164.27 224.423 162.873C227.983 162.896 231.406 162.312 234.323 160.932C235.775 160.236 237.101 159.357 238.198 158.237C239.371 157.2 240.245 155.859 241.051 154.494C241.435 153.787 241.812 153.05 242.151 152.312C242.434 151.55 242.778 150.805 242.993 150.021C243.564 148.485 243.786 146.86 244.008 145.225C244.327 141.938 244.004 138.509 242.981 135.095Z" fill="black"/>
<path opacity="0.2" d="M222.827 154.536C221.077 152.735 220.112 150.193 219.935 147.588C219.749 144.97 220.387 142.259 221.676 139.959C222.98 137.591 225.288 135.579 227.928 134.895C230.53 134.159 233.252 134.458 235.459 135.629C232.995 135.833 230.74 136.362 228.872 137.341C226.983 138.297 225.646 139.816 224.61 141.593C222.499 145.336 221.83 149.694 222.827 154.536Z" fill="black"/>
<path opacity="0.2" d="M250.63 239.389C251.606 240.889 251.913 242.811 251.635 244.661C251.348 246.516 250.475 248.319 249.156 249.683C247.835 251.119 245.852 252.047 243.923 252.051C242.005 252.079 240.189 251.422 238.847 250.251C240.594 250.482 242.24 250.482 243.704 250.145C245.175 249.806 246.367 249.038 247.369 247.995C248.409 246.91 249.222 245.629 249.781 244.197C250.32 242.752 250.615 241.15 250.63 239.389Z" fill="black"/>
<path opacity="0.2" d="M240.152 247.57C239.326 246.59 239.032 245.233 239.164 243.906C239.316 242.573 239.931 241.268 240.87 240.294C241.821 239.258 243.292 238.588 244.681 238.64C246.061 238.685 247.323 239.227 248.172 240.177C246.919 240.173 245.824 240.267 244.902 240.561C243.978 240.846 243.287 241.331 242.657 241.982C241.333 243.385 240.49 245.094 240.152 247.57Z" fill="black"/>
<path opacity="0.2" d="M203.415 219.295C205.204 219.505 206.873 220.534 208.038 222.093C209.203 223.674 209.716 225.776 209.359 227.797C209.055 229.93 207.508 231.737 205.842 232.601C204.156 233.499 202.317 233.802 200.55 233.467C201.996 232.437 203.303 231.515 204.285 230.467C205.281 229.431 205.874 228.385 206.049 227.225C206.263 225.995 206.176 224.669 205.734 223.369C205.305 222.036 204.487 220.707 203.415 219.295Z" fill="black"/>
<path opacity="0.2" d="M199.867 230.873C198.534 230.922 197.263 230.27 196.353 229.172C195.444 228.051 195.027 226.496 195.293 224.995C195.521 223.387 196.725 222.037 197.967 221.476C199.226 220.889 200.563 220.782 201.817 221.227C200.884 222.146 200.08 222.872 199.523 223.61C198.952 224.342 198.701 224.933 198.602 225.567C198.479 226.278 198.47 227.056 198.655 227.896C198.832 228.768 199.253 229.721 199.867 230.873Z" fill="black"/>
<path opacity="0.2" d="M290.223 141.844C291.421 143.19 291.985 145.068 291.82 147.007C291.641 148.963 290.627 150.875 289.018 152.148C287.373 153.541 285.017 153.863 283.198 153.402C281.342 152.953 279.766 151.957 278.667 150.534C280.432 150.725 282.021 150.904 283.452 150.774C284.885 150.662 286.023 150.273 286.925 149.523C287.902 148.746 288.718 147.697 289.252 146.432C289.815 145.148 290.086 143.611 290.223 141.844Z" fill="black"/>
<path opacity="0.2" d="M279.879 148.141C278.85 147.292 278.333 145.959 278.382 144.535C278.447 143.094 279.169 141.654 280.365 140.709C281.603 139.658 283.401 139.45 284.701 139.855C286.032 140.253 287.103 141.061 287.744 142.227C286.436 142.294 285.352 142.302 284.446 142.484C283.532 142.652 282.952 142.927 282.457 143.335C281.893 143.785 281.369 144.36 280.949 145.111C280.504 145.879 280.186 146.871 279.879 148.141Z" fill="black"/>
<path d="M271.361 207.867C280.556 206.106 286.575 197.185 284.804 187.94C283.034 178.695 274.145 172.628 264.95 174.389C255.755 176.15 249.737 185.071 251.507 194.316C253.278 203.56 262.166 209.628 271.361 207.867Z" fill="#FFC727"/>
<path opacity="0.1" d="M271.361 207.867C280.556 206.106 286.575 197.185 284.804 187.94C283.034 178.695 274.145 172.628 264.95 174.389C255.755 176.15 249.737 185.071 251.507 194.316C253.278 203.56 262.166 209.628 271.361 207.867Z" fill="black"/>
<path opacity="0.2" d="M270.111 179.996C275.12 179.037 280.035 180.633 283.506 183.888C280.28 177.008 272.73 172.891 264.944 174.382C255.754 176.142 249.731 185.069 251.501 194.309C252.778 200.977 257.75 205.993 263.881 207.6C260.868 205.38 258.663 202.061 257.9 198.076C256.295 189.7 261.763 181.595 270.111 179.996Z" fill="black"/>
<path opacity="0.2" d="M289.077 180.031C291.741 183.551 293.13 188.061 293.261 192.608C293.419 197.18 292.172 201.794 289.97 205.806C287.684 209.837 283.942 213.325 279.441 214.661C275.019 216.094 270.272 215.889 266.165 214.325C270.53 214.514 274.81 213.891 278.498 212.215C279.429 211.813 280.271 211.267 281.128 210.764C281.91 210.15 282.761 209.627 283.42 208.878C284.911 207.575 286.018 205.886 287.037 204.172C287.517 203.283 287.985 202.36 288.407 201.433C288.759 200.477 289.189 199.544 289.45 198.558C290.143 196.627 290.413 194.59 290.651 192.544C290.99 188.435 290.487 184.173 289.077 180.031Z" fill="black"/>
<path d="M308.051 174.695C311.292 173.395 312.861 169.7 311.554 166.44C310.247 163.181 306.56 161.593 303.318 162.893C300.077 164.193 298.508 167.888 299.815 171.147C301.123 174.406 304.81 175.994 308.051 174.695Z" fill="#FFC727"/>
<path opacity="0.1" d="M308.051 174.695C311.292 173.395 312.861 169.7 311.554 166.44C310.247 163.181 306.56 161.593 303.318 162.893C300.077 164.193 298.508 167.888 299.815 171.147C301.123 174.406 304.81 175.994 308.051 174.695Z" fill="black"/>
<path opacity="0.2" d="M305.608 164.578C307.374 163.87 309.287 164.104 310.79 165.049C309.118 162.759 306.061 161.79 303.316 162.891C300.076 164.19 298.507 167.888 299.813 171.146C300.755 173.496 302.934 174.979 305.293 175.131C304.031 174.533 302.988 173.474 302.424 172.069C301.24 169.115 302.665 165.758 305.608 164.578Z" fill="black"/>
<path opacity="0.2" d="M312.555 163.239C313.852 164.284 314.74 165.842 315.147 167.519C315.569 169.205 315.448 171.024 314.921 172.68C314.357 174.357 313.188 175.947 311.582 176.747C310.016 177.581 308.224 177.798 306.608 177.429C308.219 177.099 309.703 176.52 310.885 175.637C312.075 174.763 312.87 173.537 313.325 172.158C314.275 169.319 314.043 166.182 312.555 163.239Z" fill="black"/>
<path d="M295.796 233.419C300.013 230.803 301.3 225.245 298.67 221.006C296.04 216.766 290.489 215.449 286.272 218.065C282.055 220.681 280.768 226.239 283.398 230.479C286.028 234.718 291.579 236.035 295.796 233.419Z" fill="#FFC727"/>
<path opacity="0.1" d="M295.796 233.419C300.013 230.803 301.3 225.245 298.67 221.006C296.04 216.766 290.489 215.449 286.272 218.065C282.055 220.681 280.768 226.239 283.398 230.479C286.028 234.718 291.579 236.035 295.796 233.419Z" fill="black"/>
<path opacity="0.2" d="M289.89 219.861C292.187 218.436 294.923 218.293 297.258 219.246C294.356 216.453 289.838 215.847 286.267 218.062C282.052 220.677 280.764 226.238 283.393 230.476C285.29 233.534 288.703 235.074 292.042 234.706C290.129 234.178 288.409 232.954 287.275 231.126C284.892 227.285 286.061 222.236 289.89 219.861Z" fill="black"/>
<path opacity="0.2" d="M299.284 216.281C301.239 217.549 302.795 219.495 303.704 221.726C304.64 223.955 304.894 226.466 304.566 228.863C304.201 231.283 303.02 233.706 301.058 235.221C299.156 236.782 296.768 237.555 294.449 237.603C296.656 236.911 298.657 235.765 300.179 234.248C301.719 232.733 302.595 230.732 302.904 228.625C303.226 226.474 303.077 224.268 302.473 222.164C301.843 220.069 300.799 218.033 299.284 216.281Z" fill="black"/>
<path d="M212.188 185.127C212.395 192.07 206.205 197.887 198.362 198.121C190.519 198.355 183.993 192.916 183.787 185.973C183.58 179.03 189.77 173.213 197.613 172.979C205.455 172.745 211.981 178.184 212.188 185.127Z" fill="#FFC727"/>
<path opacity="0.1" d="M212.188 185.127C212.395 192.07 206.205 197.887 198.362 198.121C190.519 198.355 183.993 192.916 183.787 185.973C183.58 179.03 189.77 173.213 197.613 172.979C205.455 172.745 211.981 178.184 212.188 185.127Z" fill="black"/>
<path opacity="0.2" d="M189.272 188.789C189.385 192.571 191.561 195.867 194.83 197.845C188.653 196.637 183.954 191.848 183.779 185.969C183.572 179.03 189.767 173.208 197.606 172.975C203.263 172.807 208.234 175.583 210.637 179.757C208.292 177.94 205.196 176.888 201.816 176.989C194.708 177.2 189.085 182.485 189.272 188.789Z" fill="black"/>
<path opacity="0.2" d="M210.497 174.598C213.696 175.87 216.459 178.52 217.884 181.948C218.647 183.649 218.875 185.563 218.84 187.418C218.819 189.296 218.305 191.081 217.627 192.871C216.768 194.561 215.687 196.145 214.303 197.383C212.904 198.582 211.414 199.657 209.767 200.351C206.536 201.843 203.045 202.549 199.603 202.406C202.828 201.262 205.889 199.93 208.593 198.202C211.292 196.481 213.539 194.269 214.769 191.579C215.32 190.239 215.787 188.743 215.883 187.233C216.061 185.733 215.955 184.213 215.573 182.73C214.792 179.769 212.973 176.953 210.497 174.598Z" fill="black"/>
<path d="M260.78 410.355L264.839 411.105L265.746 415.384L266.653 411.105L270.712 410.353L266.671 409.365L265.746 405.324L264.822 409.365L260.78 410.355Z" fill="#455A64"/>
<path d="M169.966 260.058L174.025 260.809L174.932 265.087L175.839 260.809L179.898 260.056L175.856 259.069L174.932 255.027L174.007 259.069L169.966 260.058Z" fill="#455A64"/>
<path d="M395.483 258.292L399.542 259.042L400.449 263.321L401.356 259.042L405.415 258.289L401.373 257.302L400.449 253.26L399.524 257.302L395.483 258.292Z" fill="#455A64"/>
<path d="M439.361 372.849L441.629 373.268L442.136 375.66L442.643 373.268L444.912 372.848L442.653 372.296L442.136 370.037L441.62 372.296L439.361 372.849Z" fill="#455A64"/>
<path d="M408.297 95.172L410.565 95.591L411.072 97.983L411.579 95.591L413.848 95.171L411.589 94.619L411.072 92.36L410.556 94.619L408.297 95.172Z" fill="#455A64"/>
<path d="M452.999 166.293L455.268 166.712L455.775 169.104L456.282 166.712L458.55 166.292L456.291 165.74L455.775 163.481L455.258 165.74L452.999 166.293Z" fill="#455A64"/>
<path d="M106.578 198.363L108.847 198.782L109.354 201.174L109.861 198.782L112.13 198.361L109.871 197.81L109.354 195.551L108.837 197.81L106.578 198.363Z" fill="#455A64"/>
<path d="M48.705 384.688L50.974 385.107L51.481 387.498L51.988 385.107L54.256 384.686L51.997 384.134L51.481 381.875L50.964 384.134L48.705 384.688Z" fill="#455A64"/>
<path d="M425.056 325.777L427.325 326.196L427.832 328.588L428.339 326.196L430.608 325.775L428.349 325.224L427.832 322.965L427.315 325.224L425.056 325.777Z" fill="#455A64"/>
<path d="M115.681 398.489L117.949 398.908L118.456 401.3L118.963 398.908L121.232 398.487L118.973 397.936L118.456 395.677L117.94 397.936L115.681 398.489Z" fill="#455A64"/>
<path d="M195.592 104.866L197.861 105.285L198.368 107.677L198.875 105.285L201.143 104.865L198.884 104.313L198.368 102.054L197.851 104.313L195.592 104.866Z" fill="#455A64"/>
<path d="M329.91 171.916L332.178 172.335L332.686 174.727L333.192 172.335L335.461 171.915L333.202 171.363L332.686 169.104L332.169 171.363L329.91 171.916Z" fill="#455A64"/>
<path d="M149.637 351.769L151.905 352.189L152.412 354.58L152.919 352.189L155.188 351.768L152.929 351.216L152.412 348.957L151.896 351.216L149.637 351.769Z" fill="#455A64"/>
<path d="M51.481 425.74C52.327 425.74 52.328 427.055 51.481 427.055C50.634 427.055 50.633 425.74 51.481 425.74Z" fill="#455A64"/>
<path d="M379.145 345.682C379.991 345.682 379.993 346.997 379.145 346.997C378.299 346.997 378.297 345.682 379.145 345.682Z" fill="#455A64"/>
<path d="M385.355 251.647C386.201 251.647 386.203 252.962 385.355 252.962C384.509 252.962 384.507 251.647 385.355 251.647Z" fill="#455A64"/>
<path d="M339.364 203.165C340.21 203.165 340.212 204.48 339.364 204.48C338.518 204.48 338.516 203.165 339.364 203.165Z" fill="#455A64"/>
<path d="M136.328 434.635C137.174 434.635 137.176 435.95 136.328 435.95C135.482 435.95 135.48 434.635 136.328 434.635Z" fill="#455A64"/>
<path d="M109.354 396.518C110.2 396.518 110.202 397.833 109.354 397.833C108.508 397.833 108.506 396.518 109.354 396.518Z" fill="#455A64"/>
<path d="M177.137 379.064C177.983 379.064 177.985 380.379 177.137 380.379C176.291 380.379 176.29 379.064 177.137 379.064Z" fill="#455A64"/>
<path d="M301.658 396.518C302.504 396.518 302.506 397.833 301.658 397.833C300.812 397.833 300.81 396.518 301.658 396.518Z" fill="#455A64"/>
<path d="M410.437 354.299C411.283 354.299 411.285 355.614 410.437 355.614C409.591 355.614 409.59 354.299 410.437 354.299Z" fill="#455A64"/>
<path d="M382.919 281.555C383.765 281.555 383.767 282.87 382.919 282.87C382.073 282.87 382.072 281.555 382.919 281.555Z" fill="#455A64"/>
<path d="M271.227 395.211C271.826 395.211 271.827 396.142 271.227 396.142C270.628 396.142 270.627 395.211 271.227 395.211Z" fill="#455A64"/>
<path d="M127.498 106.664C128.097 106.664 128.098 107.595 127.498 107.595C126.899 107.594 126.898 106.664 127.498 106.664Z" fill="#455A64"/>
<path d="M308.033 340.912C308.632 340.912 308.633 341.843 308.033 341.843C307.435 341.842 307.434 340.912 308.033 340.912Z" fill="#455A64"/>
<path d="M128.672 400.834C129.271 400.834 129.272 401.765 128.672 401.765C128.073 401.765 128.072 400.834 128.672 400.834Z" fill="#455A64"/>
<path d="M247.641 288.593C248.24 288.593 248.241 289.523 247.641 289.523C247.043 289.524 247.042 288.593 247.641 288.593Z" fill="#455A64"/>
<path d="M348.258 293.935C349.881 293.935 349.883 296.457 348.258 296.457C346.635 296.457 346.633 293.935 348.258 293.935Z" fill="#455A64"/>
<path d="M171.536 120.162L175.595 120.912L176.502 125.191L177.409 120.912L181.468 120.16L177.426 119.172L176.502 115.131L175.578 119.172L171.536 120.162Z" fill="#455A64"/>
<path d="M342.192 154.51L346.251 155.26L347.158 159.538L348.065 155.26L352.124 154.507L348.083 153.52L347.158 149.478L346.234 153.52L342.192 154.51Z" fill="#455A64"/>
<path d="M46.515 257.112L50.574 257.862L51.481 262.141L52.388 257.862L56.447 257.11L52.405 256.122L51.481 252.081L50.556 256.122L46.515 257.112Z" fill="#455A64"/>
<path d="M406.106 53.296L410.165 54.047L411.072 58.325L411.979 54.047L416.038 53.294L411.997 52.307L411.072 48.265L410.148 52.307L406.106 53.296Z" fill="#455A64"/>
<path d="M260.195 62.949L262.464 63.369L262.971 65.76L263.478 63.369L265.746 62.948L263.487 62.396L262.971 60.137L262.454 62.396L260.195 62.949Z" fill="#455A64"/>
<path d="M51.481 142.842L53.749 143.262L54.256 145.653L54.763 143.262L57.032 142.841L54.773 142.289L54.256 140.03L53.74 142.289L51.481 142.842Z" fill="#455A64"/>
<path d="M93.1489 138.873C93.9949 138.873 93.9969 140.188 93.1489 140.188C92.3029 140.188 92.3019 138.873 93.1489 138.873Z" fill="#455A64"/>
<path d="M43.1439 374.454C43.9899 374.454 43.9919 375.769 43.1439 375.769C42.2979 375.769 42.2959 374.454 43.1439 374.454Z" fill="#455A64"/>
<path d="M97.0909 351.768C97.9369 351.768 97.9389 353.083 97.0909 353.083C96.2449 353.083 96.2429 351.768 97.0909 351.768Z" fill="#455A64"/>
<path d="M43.7789 185.247C44.6249 185.247 44.6269 186.562 43.7789 186.562C42.9329 186.563 42.9319 185.247 43.7789 185.247Z" fill="#455A64"/>
<path d="M97.0909 86.361C97.9369 86.361 97.9379 87.676 97.0909 87.676C96.2439 87.676 96.2429 86.361 97.0909 86.361Z" fill="#455A64"/>
<path d="M183.214 52.638C184.06 52.638 184.062 53.953 183.214 53.953C182.368 53.953 182.366 52.638 183.214 52.638Z" fill="#455A64"/>
<path d="M156.787 287.797C157.386 287.797 157.387 288.728 156.787 288.728C156.189 288.728 156.188 287.797 156.787 287.797Z" fill="#455A64"/>
<path d="M156.338 407.629C156.937 407.629 156.938 408.56 156.338 408.56C155.739 408.56 155.738 407.629 156.338 407.629Z" fill="#455A64"/>
<path d="M394 134.228L396.268 134.648L396.775 137.039L397.283 134.648L399.551 134.227L397.292 133.675L396.775 131.416L396.259 133.675L394 134.228Z" fill="#455A64"/>
<path d="M444.774 252.976L447.043 253.396L447.55 255.787L448.057 253.396L450.325 252.975L448.067 252.423L447.55 250.164L447.033 252.423L444.774 252.976Z" fill="#455A64"/>
<path d="M387.673 136.486C388.519 136.486 388.521 137.801 387.673 137.801C386.827 137.801 386.826 136.486 387.673 136.486Z" fill="#455A64"/>
<path d="M320.499 70.747C321.098 70.747 321.099 71.677 320.499 71.677C319.9 71.678 319.899 70.747 320.499 70.747Z" fill="#455A64"/>
<path d="M221.546 450.804C222.145 450.804 222.146 451.735 221.546 451.735C220.947 451.735 220.946 450.804 221.546 450.804Z" fill="#455A64"/>
<path d="M434.657 147.597C435.256 147.597 435.257 148.528 434.657 148.528C434.059 148.528 434.058 147.597 434.657 147.597Z" fill="#455A64"/>
<path d="M341.059 124.726C341.658 124.726 341.659 125.657 341.059 125.657C340.461 125.656 340.46 124.726 341.059 124.726Z" fill="#455A64"/>
<path d="M342.405 53.487C343.004 53.487 343.005 54.418 342.405 54.418C341.806 54.418 341.805 53.487 342.405 53.487Z" fill="#455A64"/>
<path d="M212.067 271.268C213.69 271.268 213.692 273.79 212.067 273.79C210.445 273.79 210.442 271.268 212.067 271.268Z" fill="#455A64"/>
<path d="M384.137 206.745C385.76 206.745 385.762 209.267 384.137 209.267C382.515 209.266 382.512 206.745 384.137 206.745Z" fill="#455A64"/>
<path d="M99.228 208.006C100.851 208.006 100.853 210.528 99.228 210.528C97.606 210.527 97.603 208.006 99.228 208.006Z" fill="#455A64"/>
<path d="M446.13 215.608C447.753 215.608 447.755 218.13 446.13 218.13C444.507 218.129 444.504 215.608 446.13 215.608Z" fill="#455A64"/>
<path d="M81.6599 331.027C83.2829 331.027 83.2849 333.549 81.6599 333.549C80.0369 333.549 80.0339 331.027 81.6599 331.027Z" fill="#455A64"/>
<path d="M145.247 84.866L147.515 85.285L148.022 87.676L148.529 85.285L150.798 84.864L148.539 84.312L148.022 82.054L147.506 84.312L145.247 84.866Z" fill="#455A64"/>
<path d="M268.947 322.627L271.215 323.047L271.722 325.438L272.229 323.047L274.498 322.626L272.239 322.074L271.722 319.815L271.206 322.074L268.947 322.627Z" fill="#455A64"/>
<path d="M342.192 431.941C343.038 431.941 343.04 433.256 342.192 433.256C341.346 433.256 341.345 431.941 342.192 431.941Z" fill="#455A64"/>
<path d="M298.598 425.74C299.444 425.74 299.446 427.055 298.598 427.055C297.752 427.055 297.751 425.74 298.598 425.74Z" fill="#455A64"/>
<path d="M312.626 250.001L314.895 250.42L315.402 252.811L315.909 250.42L318.177 249.999L315.918 249.447L315.402 247.189L314.885 249.447L312.626 250.001Z" fill="#455A64"/>
<path d="M390.381 386.332L392.65 386.751L393.156 389.143L393.664 386.751L395.932 386.33L393.673 385.779L393.156 383.52L392.64 385.779L390.381 386.332Z" fill="#455A64"/>
<path d="M411.072 443.647L413.341 444.067L413.848 446.458L414.355 444.067L416.623 443.646L414.365 443.094L413.848 440.835L413.331 443.094L411.072 443.647Z" fill="#455A64"/>
<path d="M322.199 123.876C323.045 123.876 323.047 125.191 322.199 125.191C321.352 125.191 321.351 123.876 322.199 123.876Z" fill="#455A64"/>
<path d="M395.932 416.524C396.531 416.524 396.532 417.454 395.932 417.454C395.333 417.454 395.332 416.524 395.932 416.524Z" fill="#455A64"/>
<path d="M68.3109 271.268L70.5799 271.688L71.0869 274.079L71.5939 271.688L73.8629 271.267L71.6039 270.715L71.0869 268.457L70.5699 270.715L68.3109 271.268Z" fill="#455A64"/>
<path d="M42.085 319.949C42.931 319.949 42.933 321.264 42.085 321.264C41.239 321.264 41.237 319.949 42.085 319.949Z" fill="#455A64"/>
<path d="M204.559 216.211C205.405 216.211 205.407 217.526 204.559 217.526C203.713 217.526 203.711 216.211 204.559 216.211Z" fill="#455A64"/>
<path d="M156.338 143.417C156.937 143.417 156.938 144.348 156.338 144.348C155.739 144.347 155.738 143.417 156.338 143.417Z" fill="#455A64"/>
<path d="M80.442 61.688C82.065 61.688 82.067 64.21 80.442 64.21C78.819 64.21 78.816 61.688 80.442 61.688Z" fill="#455A64"/>
<path d="M379.334 89.838C380.957 89.838 380.959 92.36 379.334 92.36C377.711 92.36 377.708 89.838 379.334 89.838Z" fill="#455A64"/>
<path d="M367.651 440.835C361.964 440.835 356.189 440.082 350.443 438.552C336.21 434.761 325.285 426.223 318.848 413.859C311.316 399.392 311.446 383.066 314.752 374.019L317.57 375.048C314.382 383.766 314.713 399.42 321.509 412.473C327.546 424.07 337.818 432.085 351.214 435.654C370.443 440.774 390.021 436.774 404.936 424.679C421.499 411.247 429.887 389.86 428.557 364.454C427.229 339.069 415.514 308.379 403.112 275.886C391.148 244.539 378.776 212.126 376.191 184.155C373.503 155.081 381.477 129.147 399.253 109.155C421.041 84.651 456.807 70.562 499.963 69.482L500.037 72.481C457.721 73.54 422.724 87.272 401.495 111.148C384.285 130.503 376.568 155.652 379.178 183.878C381.726 211.439 394.024 243.658 405.916 274.816C418.404 307.536 430.2 338.44 431.554 364.297C432.935 390.685 424.154 412.956 406.826 427.008C395.623 436.095 381.921 440.835 367.651 440.835Z" fill="#C7C7C7"/>
<path d="M288.007 355.551C287.7 356.266 305.942 394.396 307.381 395.928C307.433 395.989 307.513 396.052 307.613 396.124C309.773 397.825 324.2 403.492 325.363 403.878C328.231 404.83 356.999 360.513 359.201 352.665C359.753 350.696 347.934 327.305 343.914 324.079C342.193 322.699 335.658 320.514 334.835 320.777C334.835 320.777 334.835 320.777 334.828 320.783C333.659 321.225 288.321 354.83 288.007 355.551Z" fill="#FFC727"/>
<path opacity="0.1" d="M288.007 355.551C287.7 356.266 305.942 394.396 307.381 395.928C307.433 395.989 307.513 396.052 307.613 396.124C309.773 397.825 324.2 403.492 325.363 403.878C328.231 404.83 356.999 360.513 359.201 352.665C359.753 350.696 347.934 327.305 343.914 324.079C342.193 322.699 335.658 320.514 334.835 320.777C334.835 320.777 334.835 320.777 334.828 320.783C333.659 321.225 288.321 354.83 288.007 355.551Z" fill="black"/>
<path opacity="0.1" d="M288.007 355.551C287.7 356.266 305.942 394.396 307.381 395.928C307.433 395.989 307.513 396.052 307.613 396.124C315.036 387.885 349.854 349.184 349.882 348.565C349.909 347.96 338.014 325.894 334.828 320.783C333.659 321.225 288.321 354.83 288.007 355.551Z" fill="black"/>
<path d="M184.31 324.455C184.31 324.455 148.896 329.361 148.872 329.365C142.104 330.339 136.154 331.072 133.041 331.164C133.025 331.167 133.008 331.17 132.99 331.165C131.815 331.201 131.054 331.145 130.828 330.966C130.809 330.953 130.791 330.947 130.78 330.932C129.126 329.114 119.766 275.259 120.073 273.271C120.37 271.276 126.069 271.998 128.1 273.798C130.134 275.615 142.937 294.623 142.937 294.623L178.382 290.055L184.31 324.455Z" fill="#455A64"/>
<path d="M125.621 331.978L125.091 329.205C125.389 329.129 125.68 329.002 125.949 328.816C127.199 327.953 127.515 326.23 126.651 324.98C126.051 324.111 125.041 323.691 124.055 323.8L123.571 321.281C123.88 321.207 124.183 321.071 124.458 320.881C125.715 320.013 126.028 318.301 125.16 317.045C124.556 316.17 123.529 315.752 122.539 315.882L122.051 313.357C122.37 313.284 122.684 313.151 122.972 312.952C124.229 312.084 124.538 310.366 123.675 309.116C123.058 308.222 122.025 307.809 121.02 307.958L120.536 305.439C120.868 305.358 121.188 305.22 121.488 305.013C122.738 304.15 123.058 302.433 122.19 301.177C121.573 300.283 120.508 299.864 119.501 300.024L119.017 297.505C119.364 297.432 119.694 297.296 120.001 297.084C121.251 296.221 121.567 294.498 120.703 293.248C120.073 292.335 118.995 291.925 117.976 292.093L117.497 289.58C117.858 289.515 118.202 289.37 118.514 289.155C119.771 288.287 120.08 286.569 119.217 285.319C118.582 284.4 117.495 283.988 116.463 284.165L115.979 281.646C116.351 281.583 116.705 281.44 117.03 281.216C118.281 280.353 118.6 278.636 117.733 277.38C117.094 276.455 115.985 276.039 114.943 276.241L114.487 273.869L120.068 273.275L130.823 330.974L125.621 331.978Z" fill="#37474F"/>
<path d="M142.513 328.746C142.331 325.32 140.395 322.136 138.187 320.467C136.065 318.863 133.175 317.592 130.2 317.975C130.115 317.986 130.127 318.144 130.217 318.149C135.926 318.44 141.356 323.097 142.333 328.764C142.353 328.877 142.52 328.863 142.513 328.746Z" fill="#37474F"/>
<path d="M149.287 327.031C149.047 323.088 148.48 319.172 147.878 315.27C147.283 311.409 146.666 307.553 146.023 303.699C145.655 301.494 145.281 299.281 144.795 297.099C144.763 296.954 144.555 296.992 144.566 297.137C144.864 301.071 145.457 304.988 145.981 308.897C146.5 312.769 147.049 316.638 147.671 320.495C148.028 322.709 148.437 324.903 148.957 327.085C149.007 327.295 149.299 327.24 149.287 327.031Z" fill="#37474F"/>
<path d="M152.277 326.176C152.037 322.233 151.47 318.317 150.868 314.415C150.273 310.554 149.655 306.698 149.013 302.844C148.645 300.639 148.271 298.426 147.785 296.244C147.753 296.099 147.545 296.137 147.556 296.283C147.854 300.216 148.447 304.134 148.971 308.043C149.49 311.916 150.039 315.784 150.661 319.641C151.018 321.855 151.427 324.049 151.947 326.231C151.998 326.44 152.29 326.385 152.277 326.176Z" fill="#37474F"/>
<path d="M159.435 327.901L155.427 293.015C155.427 293.015 158.886 289.324 165.57 288.167C180.338 285.609 207.384 284.698 223.131 287.465C236.418 289.8 278.617 329.397 285.263 334.646C287.687 336.56 293.331 333.119 293.331 333.119L312.551 372.444C312.551 372.444 297.386 382.599 282.377 373.785C263.905 362.939 225.963 324.718 218.459 323.171C211.68 321.773 182.655 328.521 168.015 330.31C162.898 330.935 159.435 327.901 159.435 327.901Z" fill="#FFC727"/>
<path d="M164.54 324.827C164.455 320.878 164.042 316.942 163.594 313.02C163.151 309.139 162.686 305.261 162.195 301.386C161.914 299.168 161.627 296.942 161.227 294.743C161.2 294.597 160.991 294.627 160.996 294.772C161.139 298.714 161.578 302.652 161.948 306.578C162.315 310.468 162.711 314.355 163.181 318.234C163.451 320.461 163.773 322.668 164.207 324.87C164.25 325.08 164.544 325.036 164.54 324.827Z" fill="#263238"/>
<path opacity="0.1" d="M223.98 301.737C223.064 302.128 222.364 302.881 221.717 303.627C221.113 304.408 220.558 305.244 220.136 306.131C219.269 307.9 218.68 309.784 218.317 311.687C218.133 312.639 218.016 313.599 217.912 314.558C217.857 315.52 217.782 316.481 217.801 317.442C217.825 318.403 217.87 319.363 217.967 320.318C218.101 321.274 218.227 322.226 218.459 323.171C218.735 322.229 218.907 321.294 219.086 320.363C219.246 319.432 219.455 318.51 219.589 317.587C219.743 316.665 219.923 315.754 220.057 314.838L220.31 313.477C220.394 313.025 220.447 312.564 220.556 312.12C220.898 310.315 221.298 308.54 221.798 306.79C222.323 305.051 222.866 303.304 223.98 301.737Z" fill="black"/>
<path d="M237.717 301.703C240.267 297.284 237.286 290.789 231.06 287.196C224.833 283.603 217.719 284.272 215.169 288.691C212.619 293.11 215.599 299.605 221.826 303.198C228.052 306.791 235.167 306.121 237.717 301.703Z" fill="#FFC727"/>
<path opacity="0.1" d="M237.717 301.703C240.267 297.284 237.286 290.789 231.06 287.196C224.833 283.603 217.719 284.272 215.169 288.691C212.619 293.11 215.599 299.605 221.826 303.198C228.052 306.791 235.167 306.121 237.717 301.703Z" fill="black"/>
<path opacity="0.1" d="M312.552 372.44C312.552 372.44 297.387 382.6 282.38 373.789C263.908 362.937 225.966 324.716 218.457 323.174C211.679 321.773 182.657 328.525 168.012 330.31C162.904 330.933 159.441 327.899 159.441 327.899L155.764 295.899L302.575 352.022L312.552 372.44Z" fill="black"/>
<path d="M237.32 368.609C237.32 368.609 244.959 403.535 244.965 403.559C246.461 410.231 247.653 416.106 247.987 419.203C247.991 419.219 247.995 419.235 247.992 419.254C248.119 420.422 248.122 421.185 247.962 421.425C247.95 421.445 247.946 421.463 247.932 421.476C246.248 423.266 193.281 436.776 191.276 436.624C189.264 436.483 189.542 430.745 191.179 428.58C192.832 426.411 210.79 412.172 210.79 412.172L203.486 377.188L237.32 368.609Z" fill="#455A64"/>
<path d="M249.373 426.537L246.649 427.28C246.55 426.989 246.4 426.709 246.195 426.455C245.237 425.275 243.495 425.094 242.316 426.052C241.496 426.718 241.156 427.757 241.341 428.732L238.867 429.409C238.769 429.107 238.61 428.815 238.399 428.556C237.437 427.37 235.705 427.191 234.52 428.153C233.694 428.823 233.358 429.88 233.564 430.857L231.084 431.539C230.987 431.226 230.829 430.924 230.609 430.652C229.646 429.466 227.909 429.291 226.73 430.249C225.887 430.934 225.555 431.996 225.782 432.986L223.308 433.663C223.201 433.339 223.039 433.03 222.809 432.747C221.851 431.567 220.115 431.382 218.93 432.344C218.086 433.029 217.751 434.123 217.989 435.114L215.515 435.792C215.415 435.452 215.254 435.133 215.019 434.844C214.061 433.664 212.319 433.483 211.14 434.441C210.279 435.14 209.953 436.246 210.2 437.249L207.732 437.922C207.639 437.567 207.469 437.236 207.229 436.941C206.266 435.755 204.529 435.58 203.35 436.538C202.483 437.242 202.156 438.358 202.413 439.373L199.939 440.051C199.847 439.685 199.678 439.343 199.429 439.037C198.471 437.857 196.735 437.672 195.55 438.634C194.677 439.343 194.348 440.481 194.631 441.504L192.302 442.142L191.276 436.624L247.966 421.425L249.373 426.537Z" fill="#37474F"/>
<path d="M244.84 409.946C241.438 410.394 238.415 412.57 236.921 414.901C235.487 417.141 234.444 420.121 235.056 423.057C235.073 423.141 235.23 423.117 235.228 423.027C235.076 417.312 239.297 411.537 244.871 410.124C244.984 410.096 244.957 409.931 244.84 409.946Z" fill="#37474F"/>
<path d="M242.606 403.327C238.694 403.872 234.833 404.741 230.99 405.644C227.187 406.537 223.39 407.451 219.598 408.391C217.428 408.929 215.251 409.473 213.113 410.127C212.971 410.17 213.025 410.375 213.169 410.352C217.067 409.75 220.927 408.855 224.783 408.029C228.604 407.211 232.418 406.364 236.215 405.444C238.395 404.916 240.55 404.339 242.686 403.65C242.89 403.585 242.813 403.298 242.606 403.327Z" fill="#37474F"/>
<path d="M241.521 400.411C237.609 400.956 233.748 401.826 229.905 402.728C226.102 403.621 222.305 404.536 218.513 405.475C216.343 406.013 214.166 406.557 212.028 407.211C211.886 407.254 211.94 407.459 212.084 407.436C215.982 406.834 219.842 405.939 223.698 405.113C227.519 404.295 231.333 403.448 235.13 402.528C237.31 402 239.465 401.423 241.601 400.734C241.805 400.67 241.728 400.382 241.521 400.411Z" fill="#37474F"/>
<path d="M295.374 337.318C295.374 337.318 280.383 341.389 279.256 341.7C278.65 341.867 278.192 346.595 278.192 346.595C278.192 346.595 236.266 323.327 219.099 322.906C213.219 322.762 199.698 332.436 198.945 341.726C197.725 356.792 199.318 377.886 202.166 390.249C203.437 395.767 207.228 400.556 207.228 400.556L243.051 393.888C243.051 393.888 243.688 386.54 242.969 382.477C241.882 376.333 237.831 362.389 237.831 362.389C249.334 364.324 280.508 379.861 280.508 379.861C280.508 379.861 297.335 392.978 315.418 377.769L295.374 337.318Z" fill="#FFC727"/>
<path d="M279.373 340.518C279.07 344.089 278.319 347.685 277.469 351.167C277.436 351.304 277.254 351.28 277.276 351.137C277.814 347.584 278.286 343.985 278.996 340.46C279.051 340.181 279.396 340.244 279.373 340.518Z" fill="#263238"/>
<path d="M295.39 335.403C295.472 335.384 295.524 335.535 295.437 335.563C292.683 336.441 290.306 337.428 287.792 338.527C286.625 339.037 280.265 342.266 281.248 344.423C281.413 344.784 281.797 344.87 282.332 344.76C282.976 344.628 283.688 344.112 284.287 343.792C285.611 343.084 286.951 342.425 288.317 341.837C290.866 340.739 293.466 339.876 296.138 339.381C296.226 339.365 296.249 339.505 296.163 339.533C292.559 340.707 288.986 341.988 285.548 343.758C283.896 344.608 281.524 346.418 280.824 344.499C280.111 342.543 284.149 339.808 285.277 339.172C288.429 337.396 291.987 336.203 295.39 335.403Z" fill="#263238"/>
<path d="M281.066 344.166C280.577 344.598 280.054 344.988 279.522 345.347C279.109 345.626 278.671 345.966 278.197 346.061C278.105 346.079 278.068 345.951 278.117 345.878C278.424 345.424 278.911 345.116 279.32 344.785C279.793 344.401 280.261 344.006 280.743 343.637C281.063 343.393 281.368 343.9 281.066 344.166Z" fill="#263238"/>
<path d="M209.76 394.52C213.618 394.054 217.429 393.261 221.224 392.436C224.979 391.62 228.728 390.781 232.472 389.918C234.615 389.424 236.765 388.923 238.878 388.312C239.018 388.271 238.968 388.066 238.826 388.086C234.981 388.61 231.17 389.428 227.364 390.176C223.593 390.917 219.828 391.688 216.078 392.531C213.925 393.015 211.797 393.549 209.686 394.194C209.484 394.256 209.556 394.545 209.76 394.52Z" fill="#263238"/>
<path opacity="0.1" d="M218.611 337.324C218.379 338.695 218.811 340.099 219.247 341.388C219.475 342.044 219.771 342.66 220.043 343.298C220.345 343.911 220.668 344.52 221.002 345.117C222.336 347.516 224.001 349.67 225.736 351.743C227.503 353.787 229.385 355.721 231.409 357.493C233.409 359.29 235.542 360.936 237.831 362.389C236.279 360.145 234.557 358.109 232.852 356.07C231.145 354.034 229.418 352.038 227.699 350.046C226.006 348.038 224.282 346.056 222.678 343.995C221.891 342.956 221.09 341.921 220.382 340.826C219.659 339.737 218.956 338.628 218.611 337.324Z" fill="black"/>
<path d="M226.132 325.98C223.897 321.394 216.846 320.229 210.383 323.378C203.92 326.528 200.493 332.799 202.729 337.386C204.964 341.972 212.015 343.137 218.478 339.988C224.94 336.838 228.367 330.566 226.132 325.98Z" fill="#FFC727"/>
<path opacity="0.1" d="M226.132 325.98C223.897 321.394 216.846 320.229 210.383 323.378C203.92 326.528 200.493 332.799 202.729 337.386C204.964 341.972 212.015 343.137 218.478 339.988C224.94 336.838 228.367 330.566 226.132 325.98Z" fill="black"/>
<path d="M332.212 334.309C319.345 315.964 312.237 300.518 312.591 293.67C312.901 287.673 315.987 270.039 321.601 260.477C323.291 257.598 341.145 264.577 340.702 268.118C340.252 271.724 334.954 290.137 334.455 294.757C334.173 297.373 339.447 323.974 340.762 329.993C342.957 340.044 337.923 342.451 332.212 334.309Z" fill="#F7A9A0"/>
<path d="M329.322 247.536C328.365 248.539 327.832 248.043 328.068 245.591C328.301 243.109 331.317 233.629 327.912 232.858C324.496 232.078 320.447 245.564 320.368 249.679C320.279 253.795 321.602 260.478 321.602 260.478C322.917 258.012 326.679 252.338 329.322 247.536Z" fill="#A6A6A6"/>
<path d="M340.702 268.118C344.154 261.04 348.883 252.439 348.189 243.581C348.053 241.843 347.104 240.912 347.104 240.912C346.863 236.936 344.914 235.856 344.914 235.856C343.556 232.221 341.41 231.391 341.41 231.391C341.41 231.391 341.077 226.727 338.224 226.46C335.026 226.151 336.12 232.763 334.498 236.766C330.782 245.939 322.935 257.937 321.6 260.476L340.702 268.118Z" fill="#A6A6A6"/>
<path d="M337.36 249.116C338.4 246.395 339.492 243.749 340.158 240.901C340.888 237.776 341.067 234.647 341.329 231.466C341.337 231.367 341.476 231.368 341.483 231.467C341.921 237.301 340.29 244.046 337.483 249.165C337.416 249.289 337.308 249.253 337.36 249.116Z" fill="#263238"/>
<path d="M342.571 252.163C343.436 249.459 344.925 244.697 344.82 235.857C344.82 235.828 344.869 235.818 344.873 235.85C345.705 241.58 344.9 246.901 342.7 252.204C342.631 252.369 342.514 252.343 342.571 252.163Z" fill="#263238"/>
<path d="M345.401 253.749C346.697 249.095 346.924 245.997 347.083 240.932C347.084 240.903 347.134 240.897 347.136 240.929C347.56 246.704 347.059 248.847 345.554 253.816C345.503 253.986 345.351 253.93 345.401 253.749Z" fill="#263238"/>
<path d="M340.702 268.118L321.601 260.477C321.601 260.477 318.588 261.805 316.623 265.126C314.657 268.448 310.929 291.574 312.375 298.115C313.821 304.656 326.28 328.602 333.057 336.633C339.834 344.663 342.675 338.827 341.547 332.038C340.418 325.249 335.387 296.893 335.407 295.194C335.427 293.495 340.642 278.24 341.434 275.087C342.226 271.934 340.702 268.118 340.702 268.118Z" fill="#FFC727"/>
<path opacity="0.1" d="M333.055 336.633C327.917 330.547 319.507 315.291 315.106 305.425L338.277 313.095C339.609 320.832 341.017 328.832 341.55 332.038C342.678 338.83 339.839 344.661 333.055 336.633Z" fill="black"/>
<path opacity="0.1" d="M339.825 272.908C337.191 271.701 334.488 270.631 331.784 269.578C329.109 268.536 326.431 267.504 323.749 266.484C322.214 265.9 320.672 265.315 319.12 264.785C319.017 264.75 318.986 264.843 319.084 264.887C321.727 266.068 324.439 267.129 327.126 268.215C329.788 269.29 332.456 270.352 335.135 271.382C336.673 271.973 338.212 272.538 339.773 273.055C339.922 273.104 339.964 272.972 339.825 272.908Z" fill="black"/>
<path d="M292.033 335.056L315.535 377.027C315.535 377.027 318.827 378.017 322.664 375.743C331.386 370.575 345.793 358.104 351.188 346.854C355.074 338.751 351.968 332.294 345.988 329.774C344.475 329.136 324.768 322.869 317.703 323.517C310.23 324.202 300.933 327.697 295.819 330.888C293.303 332.457 292.033 335.056 292.033 335.056Z" fill="#FFC727"/>
<path d="M289.498 335.353C289.412 334.736 292.835 332.941 293.331 333.119C293.826 333.297 317.996 376.9 318.05 377.217C318.104 377.533 313.897 379.58 313.596 379.198C313.294 378.815 289.613 336.177 289.498 335.353Z" fill="#FFC727"/>
<path opacity="0.1" d="M289.498 335.353C289.412 334.736 292.835 332.941 293.331 333.119C293.826 333.297 317.996 376.9 318.05 377.217C318.104 377.533 313.897 379.58 313.596 379.198C313.294 378.815 289.613 336.177 289.498 335.353Z" fill="black"/>
<path d="M317.302 344.156L313.179 323.129L331.764 322.921L335.887 343.947L317.302 344.156Z" fill="#FFC727"/>
<path opacity="0.2" d="M317.302 344.156L313.179 323.129L331.764 322.921L335.887 343.947L317.302 344.156Z" fill="black"/>
<path opacity="0.1" d="M317.302 344.156L316.78 341.493L335.365 341.284L335.887 343.947L317.302 344.156Z" fill="black"/>
<path opacity="0.1" d="M328.132 326.575C327.469 326.583 326.838 326.107 326.721 325.512C326.605 324.918 327.047 324.43 327.709 324.422C328.372 324.415 329.003 324.891 329.12 325.485C329.237 326.08 328.795 326.568 328.132 326.575Z" fill="black"/>
<path opacity="0.1" d="M324.199 326.62C323.536 326.627 322.905 326.151 322.788 325.557C322.671 324.962 323.114 324.475 323.776 324.467C324.438 324.459 325.07 324.935 325.187 325.53C325.304 326.124 324.862 326.612 324.199 326.62Z" fill="black"/>
<path opacity="0.1" d="M320.267 326.664C319.605 326.671 318.973 326.196 318.856 325.601C318.739 325.006 319.182 324.519 319.844 324.511C320.507 324.504 321.138 324.98 321.255 325.574C321.372 326.168 320.929 326.656 320.267 326.664Z" fill="black"/>
<path opacity="0.1" d="M328.789 329.925C328.126 329.933 327.495 329.457 327.378 328.862C327.261 328.268 327.704 327.78 328.366 327.772C329.029 327.765 329.66 328.24 329.777 328.835C329.894 329.429 329.451 329.917 328.789 329.925Z" fill="black"/>
<path opacity="0.1" d="M324.856 329.969C324.194 329.976 323.562 329.501 323.446 328.906C323.329 328.311 323.772 327.823 324.434 327.816C325.097 327.809 325.728 328.285 325.845 328.879C325.961 329.473 325.519 329.961 324.856 329.969Z" fill="black"/>
<path opacity="0.1" d="M320.923 330.013C320.261 330.021 319.629 329.545 319.513 328.95C319.396 328.355 319.839 327.868 320.501 327.86C321.163 327.853 321.795 328.329 321.911 328.923C322.028 329.518 321.586 330.006 320.923 330.013Z" fill="black"/>
<path opacity="0.1" d="M329.446 333.274C328.784 333.281 328.152 332.805 328.035 332.211C327.918 331.617 328.361 331.129 329.023 331.121C329.686 331.114 330.317 331.59 330.434 332.184C330.551 332.779 330.108 333.267 329.446 333.274Z" fill="black"/>
<path opacity="0.1" d="M325.513 333.318C324.851 333.325 324.219 332.85 324.103 332.255C323.986 331.661 324.429 331.173 325.091 331.165C325.753 331.158 326.385 331.634 326.501 332.228C326.618 332.823 326.175 333.311 325.513 333.318Z" fill="black"/>
<path opacity="0.1" d="M321.58 333.362C320.918 333.37 320.286 332.893 320.169 332.299C320.052 331.704 320.495 331.216 321.157 331.209C321.819 331.201 322.451 331.677 322.568 332.272C322.685 332.867 322.242 333.355 321.58 333.362Z" fill="black"/>
<path d="M338.049 334.025C339.244 336.936 346.108 338.483 350.399 337.962C350.693 337.925 352.688 336.005 355.223 333.787C356.767 332.447 358.517 330.991 360.21 329.778C360.559 329.531 350.023 321.007 350.023 321.007C350.023 321.007 347.222 324.594 344.257 326.69C344.007 326.863 343.76 327.002 343.51 327.115C343.475 327.134 343.43 327.153 343.384 327.182C341.91 327.913 336.896 331.211 338.049 334.025Z" fill="#F7A9A0"/>
<path d="M359.698 329.157C356.483 330.715 348.292 333.889 344.104 328.315C343.812 327.927 343.572 327.551 343.384 327.186C343.43 327.149 343.473 327.136 343.51 327.116C343.76 326.999 344.006 326.865 344.256 326.695C347.225 324.594 350.024 321.005 350.024 321.005C350.024 321.005 357.626 327.154 359.698 329.157Z" fill="#263238"/>
<path d="M372.315 324.25C368.805 327.586 355.744 331.384 351.602 329.772C345.597 327.435 341.73 320.627 345.221 314.773C348.604 309.098 365.714 304.45 369.784 306.528C375.78 309.589 377.5 319.322 372.315 324.25Z" fill="#F7A9A0"/>
<path d="M358.412 316.32C358.448 316.315 358.395 316.404 358.358 316.416C357.466 316.704 356.494 317.184 356.487 318.087C356.487 318.115 356.442 318.128 356.435 318.097C356.223 317.074 357.521 316.45 358.412 316.32Z" fill="#263238"/>
<path d="M359.615 316.778C360.231 318.157 357.426 319.288 356.856 318.01C356.294 316.752 359.099 315.621 359.615 316.778Z" fill="#263238"/>
<path d="M356.566 311.544C356.596 311.524 356.498 311.492 356.462 311.508C355.603 311.883 354.556 312.168 353.953 311.496C353.935 311.475 353.892 311.495 353.907 311.523C354.427 312.429 355.813 312.037 356.566 311.544Z" fill="#263238"/>
<path d="M357.165 310.405C356.713 308.964 353.863 309.975 354.282 311.31C354.694 312.624 357.544 311.613 357.165 310.405Z" fill="#263238"/>
<path d="M361.445 317.363C361.41 316.94 361.448 316.544 361.456 316.121C361.465 315.645 361.424 315.264 361.709 314.857C361.862 314.639 362.248 314.575 362.475 314.704C363.002 315.003 363.135 315.589 363.147 316.163C363.16 316.786 363.011 317.269 362.629 317.759C362.257 318.235 361.491 317.921 361.445 317.363Z" fill="#263238"/>
<path d="M358.012 308.75C358.232 309.113 358.496 309.412 358.75 309.748C359.038 310.128 359.227 310.46 359.697 310.622C359.949 310.709 360.299 310.533 360.407 310.296C360.658 309.745 360.421 309.192 360.093 308.721C359.738 308.21 359.333 307.906 358.735 307.734C358.157 307.567 357.722 308.271 358.012 308.75Z" fill="#263238"/>
<path d="M351.606 319.413C351.607 318.136 350.904 316.773 350.437 315.919C350.412 315.813 350.574 315.643 350.662 315.589L350.668 315.587C350.7 315.575 352.53 314.915 352.53 314.915C352.313 314.721 351.27 313.706 351.624 313.589C354.557 312.628 357.818 311.559 360.94 311.221C361.042 311.205 361.078 311.358 360.98 311.387C358.198 312.422 355.252 312.962 352.441 313.958C352.746 314.293 353.277 314.825 353.407 315.175C353.417 315.28 351.399 315.785 351.115 315.934C351.115 315.934 352.336 317.483 351.99 319.278C351.901 319.742 351.606 320.022 351.606 319.413Z" fill="#263238"/>
<path d="M349.573 318.394C349.55 317.827 351.233 316.278 351.69 317.077C352.147 317.876 352.376 320.051 351.391 321.263C350.528 322.325 350.371 319.514 350.046 319.176C349.775 318.894 349.59 318.802 349.573 318.394Z" fill="#263238"/>
<path d="M350.043 319.174C349.98 319.11 349.927 319.065 349.885 319.014C350.516 318.735 351.462 318.914 351.956 320.072C351.85 320.51 351.674 320.927 351.396 321.264C350.529 322.319 350.368 319.512 350.043 319.174Z" fill="#FF9ABB"/>
<path d="M350.378 322.891C350.095 322.763 349.736 322.664 349.588 322.361C349.446 322.07 349.444 321.664 349.444 321.347C349.444 321.316 349.404 321.299 349.385 321.327C349.141 321.681 349.117 322.234 349.343 322.607C349.564 322.972 349.977 323.034 350.372 322.99C350.427 322.983 350.42 322.91 350.378 322.891Z" fill="#263238"/>
<path d="M362.245 328.486C360.701 325.497 363.683 322.304 366.951 321.752C366.951 321.752 362.333 314.025 368.743 310.797C368.743 310.797 364.698 310.05 362.999 306.375L360.674 306.87C360.555 305.925 362.559 304 365.319 305.25C365.319 305.25 368.66 303.979 371.67 305.548C374.68 307.117 374.421 310.078 374.421 310.078C374.421 310.078 376.854 311.309 377.768 314.495C378.682 317.681 376.464 320.11 376.464 320.11C376.464 320.11 377.437 324.505 374.851 326.438C372.265 328.372 369.689 327.714 369.689 327.714C369.689 327.714 368.995 329.221 366.311 329.764C364.586 330.114 362.708 329.383 362.245 328.486Z" fill="#263238"/>
<path d="M369.405 310.727C368.845 310.904 368.297 311.115 367.79 311.401C367.271 311.661 366.797 311.997 366.364 312.368C365.512 313.127 364.924 314.158 364.82 315.283C364.634 316.412 365.015 317.543 365.363 318.631C365.608 319.155 365.817 319.701 366.093 320.215C366.377 320.725 366.673 321.23 366.95 321.752C366.597 321.283 366.264 320.797 365.918 320.316C365.603 319.817 365.355 319.275 365.069 318.753C364.647 317.652 364.246 316.47 364.41 315.236C364.554 314.018 365.21 312.874 366.16 312.127C367.111 311.382 368.245 310.916 369.405 310.727Z" fill="#263238"/>
<path d="M376.465 320.11C376.9 321.143 377.125 322.272 377.111 323.413C377.102 324.551 376.742 325.728 375.967 326.622C375.563 327.052 375.096 327.4 374.593 327.674C374.097 327.964 373.547 328.171 372.981 328.276C371.852 328.497 370.644 328.309 369.69 327.714C370.718 328.151 371.867 328.234 372.913 327.965C373.946 327.695 374.954 327.132 375.658 326.347C376.016 325.954 376.284 325.487 376.474 324.985C376.645 324.476 376.755 323.943 376.794 323.398C376.873 322.308 376.737 321.193 376.465 320.11Z" fill="#263238"/>
<path d="M374.421 310.078C374.362 309.175 374.18 308.287 373.849 307.469C373.517 306.654 373.015 305.915 372.339 305.377C371.664 304.838 370.829 304.525 369.961 304.377C369.089 304.238 368.184 304.246 367.287 304.37C368.15 304.078 369.079 303.984 370.002 304.062C370.925 304.141 371.848 304.467 372.597 305.055C373.334 305.652 373.87 306.476 374.146 307.361C374.431 308.243 374.532 309.175 374.421 310.078Z" fill="#263238"/>
<path d="M363.783 308.14C364.508 308.909 365.295 309.58 366.193 310.049C366.635 310.297 367.116 310.456 367.607 310.577C368.102 310.711 368.616 310.708 369.149 310.729C368.644 310.878 368.097 310.965 367.556 310.89C367.015 310.837 366.481 310.672 366.001 310.414C365.522 310.155 365.08 309.831 364.709 309.441C364.336 309.054 364.006 308.625 363.783 308.14Z" fill="#263238"/>
<path d="M360.799 326.213C360.799 326.213 366.006 327.088 365.874 329.324C365.742 331.561 359.101 332.198 357.337 330.485C355.573 328.772 357.127 327.107 357.127 327.107L360.799 326.213Z" fill="#F7A9A0"/>
<path d="M363.966 329.46C363.985 329.492 363.941 329.521 363.916 329.497C362.631 328.319 360.912 328.193 359.253 328.322C360 328.499 360.576 328.95 360.404 329.919C360.395 329.97 360.318 329.962 360.307 329.916C360.151 329.257 359.842 328.875 359.171 328.699C358.696 328.574 358.174 328.583 357.686 328.564C357.523 328.558 357.48 328.289 357.655 328.267C357.668 328.266 357.682 328.264 357.695 328.263C359.537 327.342 362.829 327.551 363.966 329.46Z" fill="#263238"/>
<g opacity="0.2">
<path d="M355.991 321.352C355.901 321.4 355.866 321.512 355.914 321.602C355.962 321.692 356.074 321.727 356.164 321.679C356.254 321.631 356.289 321.519 356.241 321.429C356.194 321.338 356.081 321.304 355.991 321.352Z" fill="black"/>
<path d="M354.341 317.835C354.251 317.883 354.216 317.995 354.264 318.085C354.312 318.175 354.424 318.21 354.514 318.162C354.604 318.114 354.639 318.002 354.591 317.912C354.543 317.822 354.431 317.788 354.341 317.835Z" fill="black"/>
<path d="M353.775 319.68C353.685 319.728 353.65 319.84 353.698 319.93C353.746 320.02 353.858 320.055 353.948 320.007C354.038 319.959 354.073 319.847 354.025 319.757C353.977 319.667 353.865 319.632 353.775 319.68Z" fill="black"/>
<path d="M357.297 320.544C357.207 320.592 357.172 320.704 357.22 320.794C357.268 320.884 357.38 320.919 357.47 320.871C357.56 320.823 357.595 320.711 357.547 320.621C357.5 320.531 357.388 320.496 357.297 320.544Z" fill="black"/>
<path d="M355.519 319.412C355.429 319.46 355.394 319.572 355.442 319.662C355.49 319.753 355.602 319.787 355.692 319.739C355.783 319.691 355.817 319.579 355.769 319.489C355.722 319.399 355.61 319.365 355.519 319.412Z" fill="black"/>
<path d="M353.436 309.72C353.346 309.768 353.311 309.88 353.359 309.97C353.407 310.06 353.519 310.095 353.609 310.047C353.699 309.999 353.734 309.887 353.686 309.797C353.638 309.707 353.526 309.672 353.436 309.72Z" fill="black"/>
<path d="M353.179 311.491C353.089 311.539 353.054 311.651 353.102 311.741C353.15 311.831 353.262 311.866 353.352 311.818C353.442 311.77 353.477 311.658 353.429 311.568C353.382 311.478 353.27 311.443 353.179 311.491Z" fill="black"/>
<path d="M351.927 311.734C351.837 311.782 351.802 311.894 351.85 311.984C351.898 312.074 352.01 312.109 352.1 312.061C352.19 312.013 352.225 311.901 352.177 311.811C352.129 311.721 352.017 311.687 351.927 311.734Z" fill="black"/>
<path d="M352.089 310.223C351.999 310.271 351.964 310.383 352.012 310.473C352.06 310.563 352.172 310.598 352.262 310.55C352.352 310.502 352.387 310.39 352.339 310.3C352.292 310.209 352.18 310.175 352.089 310.223Z" fill="black"/>
</g>
<path d="M350.309 339.052C350.309 339.052 355.227 335.824 355.07 335.147C354.913 334.469 348.805 333.893 346.72 331.88C344.635 329.867 343.862 326.915 343.62 326.54C343.378 326.165 339.204 329.436 338.374 330.345C337.397 331.415 336.701 332.902 337.872 334.62C340.04 337.797 347.682 339.818 350.309 339.052Z" fill="#FFC727"/>
<path d="M353.489 335.341C352.118 336.095 350.889 337.1 349.882 338.297C351.254 337.546 352.481 336.538 353.489 335.341Z" fill="#263238"/>
<path d="M343.439 327.337C342.024 328.004 340.734 328.93 339.655 330.063C341.071 329.398 342.358 328.468 343.439 327.337Z" fill="#263238"/>
<path d="M343.357 329.116C341.524 330.084 339.826 331.305 338.328 332.739C340.163 331.772 341.858 330.548 343.357 329.116Z" fill="#263238"/>
<path d="M344.414 331.027C342.581 331.995 340.883 333.216 339.385 334.65C341.22 333.683 342.915 332.459 344.414 331.027Z" fill="#263238"/>
<path d="M346.379 332.717C344.546 333.685 342.848 334.906 341.35 336.34C343.185 335.373 344.88 334.149 346.379 332.717Z" fill="#263238"/>
<path d="M348.446 333.925C346.696 334.833 345.08 335.995 343.665 337.369C345.417 336.463 347.031 335.297 348.446 333.925Z" fill="#263238"/>
<path d="M350.911 334.796C349.374 335.636 347.977 336.727 346.794 338.019C348.332 337.18 349.726 336.086 350.911 334.796Z" fill="#263238"/>
<path d="M349.697 343.733C348.656 344.137 347.48 344.283 346.183 344.067C342.365 343.424 337.889 339.414 336.523 334.206C335.654 330.88 336.16 328.42 337.4 326.784C338.763 334.049 343.682 340.488 349.697 343.733Z" fill="#455A64"/>
<path d="M384.264 329.958C388.147 318.006 383.314 301.223 364.864 299.296C352.109 297.963 340.696 306.24 337.436 315.992C332.831 329.791 343.614 344.534 355.501 346.358C364.527 347.747 380.169 342.591 384.264 329.958ZM354.303 338.226C345.652 336.442 337.453 324.402 340.411 313.52C342.489 305.839 350.503 299.563 359.769 300.981C373.158 303.027 378.02 316.235 375.543 325.652C372.931 335.613 360.857 339.583 354.303 338.226Z" fill="#FFC727"/>
<path opacity="0.1" d="M354.303 338.226C345.652 336.442 337.453 324.402 340.411 313.52C342.489 305.839 350.503 299.563 359.769 300.981C373.158 303.027 378.02 316.235 375.543 325.652C372.931 335.613 360.857 339.583 354.303 338.226Z" fill="#455A64"/>
<path opacity="0.1" d="M354.303 338.226C345.652 336.442 337.453 324.402 340.411 313.52C342.489 305.839 350.503 299.563 359.769 300.981C373.158 303.027 378.02 316.235 375.543 325.652C372.931 335.613 360.857 339.583 354.303 338.226Z" fill="#455A64"/>
<g opacity="0.2">
<path d="M374.375 312.131C365.97 308.558 356.855 305.79 347.171 303.999C349.126 302.602 351.396 301.588 353.856 301.111C359.542 302.444 365.011 304.117 370.243 306.079C372.034 307.837 373.404 309.909 374.375 312.131Z" fill="white"/>
<path d="M361.534 337.933C358.888 338.557 356.333 338.647 354.303 338.226C351.74 337.698 349.22 336.27 347.018 334.241C352.055 335.154 356.903 336.395 361.534 337.933Z" fill="white"/>
<path d="M375.602 315.845C366.062 311.594 355.53 308.407 344.249 306.587C344.442 306.372 344.644 306.161 344.849 305.957C355.815 307.787 366.068 310.889 375.391 315.005C375.47 315.285 375.541 315.567 375.602 315.845Z" fill="white"/>
<path d="M369.251 334.473C360.878 331.002 351.678 328.471 341.86 327.126C341.741 326.887 341.633 326.636 341.525 326.384C351.705 327.757 361.228 330.397 369.859 334.027C369.658 334.181 369.454 334.327 369.251 334.473Z" fill="white"/>
<path d="M364.837 336.885C364.526 337.008 364.223 337.129 363.903 337.231C358.04 335.142 351.814 333.517 345.278 332.431C345.055 332.176 344.838 331.919 344.633 331.649C351.752 332.782 358.514 334.562 364.837 336.885Z" fill="white"/>
<path d="M373.724 329.822C363.605 325.204 352.216 321.915 339.921 320.383C339.823 319.539 339.784 318.697 339.806 317.846C352.559 319.441 364.364 322.892 374.821 327.744C374.505 328.474 374.142 329.166 373.724 329.822Z" fill="white"/>
</g>
<path d="M366.174 348.903C369.272 348.922 374.696 346.796 376.198 343.012C377.617 339.435 376.076 334.84 369.734 335.06C365.35 335.212 361.362 338.053 360.17 340.977C358.483 345.115 362.092 348.878 366.174 348.903Z" fill="#FFC727"/>
<path opacity="0.1" d="M366.174 348.903C369.272 348.922 374.696 346.796 376.198 343.012C377.617 339.435 376.076 334.84 369.734 335.06C365.35 335.212 361.362 338.053 360.17 340.977C358.483 345.115 362.092 348.878 366.174 348.903Z" fill="black"/>
<path d="M367.477 349.346C369.857 349.361 374.024 347.728 375.178 344.82C376.269 342.072 375.085 338.542 370.212 338.711C366.844 338.828 363.78 341.01 362.864 343.257C361.568 346.436 364.341 349.327 367.477 349.346Z" fill="#FFC727"/>
<path d="M340.948 354.358C323.099 354.059 298.523 343.565 292.734 339.708C283.92 333.837 287.367 300.282 287.632 293.507C287.745 290.618 313.55 295.582 313.493 298.673C313.444 301.366 309.902 327.163 310.885 327.747C311.703 328.233 329.581 337.745 341.477 344.708C351.728 350.708 345.671 354.438 340.948 354.358Z" fill="#F7A9A0"/>
<path d="M312.875 304.712C312.875 304.712 313.367 300.304 313.392 300.014C313.476 299.024 313.757 297.96 314.667 295.634C316.822 290.13 318.554 275.345 306.356 264.066C301.682 259.744 296.61 261.136 300.667 266.488C303.525 270.257 305.83 272.624 306.418 274.115C306.418 274.115 299.401 272.325 296.202 275.039C294.772 276.252 290.947 279.655 288.347 282.728C288.347 282.728 288.864 283.474 289.654 284.327C289.654 284.327 285.738 287.877 287.632 293.506L287.175 301.018L312.875 304.712Z" fill="#A6A6A6"/>
<path d="M315.885 290.053C314.839 287.137 312.518 280.993 308.871 276.628C304.821 271.779 295.711 263.531 292.163 266.558C289.561 268.777 292.762 272.232 292.762 272.232C292.762 272.232 288.278 269.616 286.366 272.135C284.624 274.431 287.26 276.955 287.26 276.955C287.26 276.955 284.267 275.836 283.015 278.37C281.509 281.418 288.028 283.263 289.17 287.669C289.428 288.659 315.885 290.053 315.885 290.053Z" fill="#A6A6A6"/>
<path d="M304.462 281.763C303.028 279.182 298.268 274.155 292.891 272.208C292.769 272.164 292.67 272.232 292.773 272.296C298.238 275.697 302.651 279.904 304.416 281.801C304.44 281.826 304.478 281.792 304.462 281.763Z" fill="#263238"/>
<path d="M299.449 285.709C297.983 283.609 292.845 278.647 287.329 276.861C287.206 276.821 287.111 276.896 287.217 276.956C293.073 280.274 297.531 283.961 299.406 285.75C299.43 285.774 299.468 285.736 299.449 285.709Z" fill="#263238"/>
<path d="M312.875 304.712L287.175 301.019C287.175 301.019 284.582 302.922 284.32 309.726C284.058 316.53 286.605 335.893 291.348 339.716C296.091 343.539 319.089 352.673 335.368 354.604C351.647 356.535 348.834 347.757 341.353 344.056C333.872 340.355 311.855 327.582 311.583 327.144C311.311 326.706 313.867 315.033 314.074 310.913C314.281 306.793 312.875 304.712 312.875 304.712Z" fill="#FFC727"/>
<path d="M315.212 329.4C316.508 330.333 317.844 331.193 319.187 332.043C320.525 332.9 321.893 333.705 323.261 334.509C324.638 335.298 326.016 336.086 327.425 336.824L329.539 337.928C330.258 338.272 330.964 338.639 331.695 338.964C331.053 338.492 330.385 338.062 329.731 337.609L327.724 336.322C326.385 335.466 325.016 334.66 323.646 333.855C322.267 333.066 320.888 332.277 319.479 331.54C318.075 330.794 316.664 330.061 315.212 329.4Z" fill="#263238"/>
<path d="M327.628 336.563C328.155 336.812 328.697 336.961 329.241 337.1C329.789 337.228 330.331 337.329 330.907 337.403C330.676 337.219 330.411 337.099 330.146 336.99C329.881 336.877 329.606 336.801 329.33 336.731C328.775 336.605 328.211 336.522 327.628 336.563Z" fill="#263238"/>
<path d="M293.848 341.326C295.131 342.11 296.466 342.801 297.796 343.503C299.141 344.173 300.498 344.821 301.866 345.445C304.604 346.69 307.408 347.785 310.234 348.814C313.078 349.794 315.943 350.719 318.859 351.462C321.765 352.239 324.718 352.828 327.685 353.293C326.238 352.88 324.772 352.569 323.336 352.136C321.889 351.746 320.445 351.35 319.017 350.899L314.729 349.568C313.313 349.084 311.889 348.624 310.488 348.098C307.655 347.134 304.87 346.034 302.095 344.909C299.321 343.783 296.571 342.592 293.848 341.326Z" fill="#263238"/>
<path d="M322.496 352.133C322.923 352.569 323.408 352.907 323.907 353.222C324.414 353.525 324.935 353.805 325.518 353.989C325.094 353.554 324.607 353.215 324.107 352.899C323.599 352.596 323.077 352.316 322.496 352.133Z" fill="#263238"/>
<path opacity="0.1" d="M310.712 308.72C307.876 308.13 305.001 307.689 302.131 307.265C299.291 306.845 296.451 306.436 293.608 306.039C291.981 305.812 290.348 305.585 288.717 305.414C288.609 305.403 288.6 305.5 288.705 305.521C291.545 306.084 294.425 306.514 297.286 306.973C300.121 307.428 302.958 307.869 305.8 308.276C307.432 308.51 309.057 308.717 310.694 308.874C310.85 308.889 310.862 308.751 310.712 308.72Z" fill="black"/>
</g>
<defs>
<clipPath id="clip0_1845_3">
<rect width="500" height="500" fill="white"/>
</clipPath>
</defs>
</svg>
