<svg width="36" height="36" viewBox="0 0 36 36" fill="none" xmlns="http://www.w3.org/2000/svg">
<mask id="mask0_838_12757" style="mask-type:alpha" maskUnits="userSpaceOnUse" x="0" y="0" width="36" height="36">
<rect width="36" height="36" fill="#D9D9D9"/>
</mask>
<g mask="url(#mask0_838_12757)">
<path d="M7.5 33C6.25 33 5.1875 32.5625 4.3125 31.6875C3.4375 30.8125 3 29.75 3 28.5C3 27.525 3.28125 26.6562 3.84375 25.8937C4.40625 25.1313 5.125 24.5875 6 24.2625V11.7375C5.125 11.4125 4.40625 10.8688 3.84375 10.1063C3.28125 9.34375 3 8.475 3 7.5C3 6.25 3.4375 5.1875 4.3125 4.3125C5.1875 3.4375 6.25 3 7.5 3C8.475 3 9.34375 3.28125 10.1063 3.84375C10.8688 4.40625 11.4125 5.125 11.7375 6H24.2625C24.5625 5.125 25.0938 4.40625 25.8563 3.84375C26.6187 3.28125 27.5 3 28.5 3C29.75 3 30.8125 3.4375 31.6875 4.3125C32.5625 5.1875 33 6.25 33 7.5C33 8.5 32.7188 9.38125 32.1562 10.1438C31.5938 10.9063 30.875 11.4375 30 11.7375V24.2625C30.875 24.5875 31.5938 25.1313 32.1562 25.8937C32.7188 26.6562 33 27.525 33 28.5C33 29.75 32.5625 30.8125 31.6875 31.6875C30.8125 32.5625 29.75 33 28.5 33C27.525 33 26.6562 32.7188 25.8937 32.1562C25.1313 31.5938 24.5875 30.875 24.2625 30H11.7375C11.4125 30.875 10.8688 31.5938 10.1063 32.1562C9.34375 32.7188 8.475 33 7.5 33ZM7.5 9C7.925 9 8.28125 8.85625 8.56875 8.56875C8.85625 8.28125 9 7.925 9 7.5C9 7.075 8.85625 6.71875 8.56875 6.43125C8.28125 6.14375 7.925 6 7.5 6C7.075 6 6.71875 6.14375 6.43125 6.43125C6.14375 6.71875 6 7.075 6 7.5C6 7.925 6.14375 8.28125 6.43125 8.56875C6.71875 8.85625 7.075 9 7.5 9ZM28.5 9C28.925 9 29.2812 8.85625 29.5687 8.56875C29.8562 8.28125 30 7.925 30 7.5C30 7.075 29.8562 6.71875 29.5687 6.43125C29.2812 6.14375 28.925 6 28.5 6C28.075 6 27.7188 6.14375 27.4313 6.43125C27.1438 6.71875 27 7.075 27 7.5C27 7.925 27.1438 8.28125 27.4313 8.56875C27.7188 8.85625 28.075 9 28.5 9ZM11.7375 27H24.2625C24.4875 26.35 24.8375 25.7875 25.3125 25.3125C25.7875 24.8375 26.35 24.4875 27 24.2625V11.7375C26.35 11.5125 25.7875 11.1625 25.3125 10.6875C24.8375 10.2125 24.4875 9.65 24.2625 9H11.7375C11.5125 9.65 11.1625 10.2125 10.6875 10.6875C10.2125 11.1625 9.65 11.5125 9 11.7375V24.2625C9.65 24.4875 10.2125 24.8375 10.6875 25.3125C11.1625 25.7875 11.5125 26.35 11.7375 27ZM28.5 30C28.925 30 29.2812 29.8562 29.5687 29.5687C29.8562 29.2812 30 28.925 30 28.5C30 28.075 29.8562 27.7188 29.5687 27.4313C29.2812 27.1438 28.925 27 28.5 27C28.075 27 27.7188 27.1438 27.4313 27.4313C27.1438 27.7188 27 28.075 27 28.5C27 28.925 27.1438 29.2812 27.4313 29.5687C27.7188 29.8562 28.075 30 28.5 30ZM7.5 30C7.925 30 8.28125 29.8562 8.56875 29.5687C8.85625 29.2812 9 28.925 9 28.5C9 28.075 8.85625 27.7188 8.56875 27.4313C8.28125 27.1438 7.925 27 7.5 27C7.075 27 6.71875 27.1438 6.43125 27.4313C6.14375 27.7188 6 28.075 6 28.5C6 28.925 6.14375 29.2812 6.43125 29.5687C6.71875 29.8562 7.075 30 7.5 30Z" fill="#415765"/>
</g>
</svg>
