<svg width="618" height="415" viewBox="0 0 618 415" fill="none" xmlns="http://www.w3.org/2000/svg">
<rect width="618" height="415" fill="white"/>
<g clip-path="url(#clip0_975_9115)">
<rect x="24" width="570" height="391" rx="4" fill="white"/>
<rect width="618" height="400" fill="#F6F4EE"/>
<rect x="159" y="24" width="300" height="64" rx="4" fill="white"/>
<path d="M178.112 49L175.288 38.8182H176.904L178.888 46.7031H178.982L181.045 38.8182H182.646L184.71 46.7081H184.804L186.783 38.8182H188.403L185.575 49H184.028L181.886 41.3736H181.806L179.663 49H178.112ZM191.171 44.4659V49H189.685V38.8182H191.151V42.6065H191.246C191.425 42.1955 191.698 41.8691 192.066 41.6271C192.434 41.3852 192.915 41.2642 193.508 41.2642C194.032 41.2642 194.489 41.3719 194.88 41.5874C195.275 41.8028 195.579 42.1243 195.795 42.5518C196.014 42.9761 196.123 43.5064 196.123 44.1428V49H194.637V44.3217C194.637 43.7616 194.492 43.3274 194.204 43.0192C193.916 42.7076 193.515 42.5518 193.001 42.5518C192.65 42.5518 192.335 42.6264 192.056 42.7756C191.781 42.9247 191.564 43.1435 191.405 43.4318C191.249 43.7169 191.171 44.0616 191.171 44.4659ZM201.398 49.1541C200.646 49.1541 199.998 48.9934 199.454 48.6719C198.914 48.3471 198.496 47.8913 198.201 47.3047C197.91 46.7147 197.764 46.0237 197.764 45.2315C197.764 44.4493 197.91 43.7599 198.201 43.1634C198.496 42.5668 198.907 42.1011 199.434 41.7663C199.964 41.4316 200.584 41.2642 201.294 41.2642C201.724 41.2642 202.142 41.3355 202.546 41.478C202.951 41.6205 203.314 41.8442 203.635 42.1491C203.957 42.4541 204.21 42.8501 204.396 43.3374C204.581 43.8213 204.674 44.4096 204.674 45.1023V45.6293H198.604V44.5156H203.218C203.218 44.1245 203.138 43.7782 202.979 43.4766C202.82 43.1716 202.596 42.9313 202.308 42.7557C202.023 42.58 201.688 42.4922 201.303 42.4922C200.886 42.4922 200.521 42.5949 200.21 42.8004C199.901 43.0026 199.663 43.2678 199.494 43.5959C199.328 43.9207 199.245 44.2737 199.245 44.6548V45.5249C199.245 46.0353 199.335 46.4695 199.514 46.8274C199.696 47.1854 199.95 47.4588 200.274 47.6477C200.599 47.8333 200.979 47.9261 201.413 47.9261C201.695 47.9261 201.951 47.8864 202.183 47.8068C202.415 47.724 202.616 47.6013 202.785 47.4389C202.954 47.2765 203.083 47.076 203.173 46.8374L204.58 47.0909C204.467 47.5052 204.265 47.8681 203.973 48.1797C203.685 48.4879 203.322 48.7282 202.884 48.9006C202.45 49.0696 201.955 49.1541 201.398 49.1541ZM207.81 44.4659V49H206.324V41.3636H207.75V42.6065H207.845C208.02 42.2022 208.296 41.8774 208.67 41.6321C209.048 41.3868 209.524 41.2642 210.097 41.2642C210.617 41.2642 211.073 41.3736 211.464 41.5923C211.855 41.8078 212.158 42.1293 212.374 42.5568C212.589 42.9844 212.697 43.513 212.697 44.1428V49H211.211V44.3217C211.211 43.7682 211.066 43.3357 210.778 43.0241C210.49 42.7093 210.094 42.5518 209.59 42.5518C209.245 42.5518 208.939 42.6264 208.67 42.7756C208.405 42.9247 208.194 43.1435 208.039 43.4318C207.886 43.7169 207.81 44.0616 207.81 44.4659ZM221.96 41.3636V42.5568H217.789V41.3636H221.96ZM218.908 39.5341H220.394V46.7578C220.394 47.0462 220.437 47.2633 220.524 47.4091C220.61 47.5516 220.721 47.6494 220.857 47.7024C220.996 47.7521 221.147 47.777 221.309 47.777C221.428 47.777 221.533 47.7687 221.622 47.7521C221.712 47.7356 221.781 47.7223 221.831 47.7124L222.1 48.9403C222.013 48.9735 221.891 49.0066 221.732 49.0398C221.573 49.0762 221.374 49.0961 221.135 49.0994C220.744 49.1061 220.379 49.0365 220.041 48.8906C219.703 48.7448 219.43 48.5194 219.221 48.2145C219.012 47.9096 218.908 47.5268 218.908 47.0661V39.5341ZM225.255 44.4659V49H223.769V38.8182H225.235V42.6065H225.33C225.509 42.1955 225.782 41.8691 226.15 41.6271C226.518 41.3852 226.999 41.2642 227.592 41.2642C228.116 41.2642 228.573 41.3719 228.964 41.5874C229.359 41.8028 229.663 42.1243 229.879 42.5518C230.098 42.9761 230.207 43.5064 230.207 44.1428V49H228.721V44.3217C228.721 43.7616 228.576 43.3274 228.288 43.0192C228 42.7076 227.599 42.5518 227.085 42.5518C226.734 42.5518 226.419 42.6264 226.14 42.7756C225.865 42.9247 225.648 43.1435 225.489 43.4318C225.333 43.7169 225.255 44.0616 225.255 44.4659ZM232.191 49V41.3636H233.677V49H232.191ZM232.941 40.1854C232.683 40.1854 232.461 40.0992 232.275 39.9268C232.093 39.7512 232.002 39.5424 232.002 39.3004C232.002 39.0552 232.093 38.8464 232.275 38.674C232.461 38.4983 232.683 38.4105 232.941 38.4105C233.2 38.4105 233.42 38.4983 233.603 38.674C233.788 38.8464 233.881 39.0552 233.881 39.3004C233.881 39.5424 233.788 39.7512 233.603 39.9268C233.42 40.0992 233.2 40.1854 232.941 40.1854ZM241.399 43.228L240.052 43.4666C239.996 43.2943 239.906 43.1302 239.784 42.9744C239.664 42.8187 239.502 42.6911 239.296 42.5916C239.091 42.4922 238.834 42.4425 238.526 42.4425C238.105 42.4425 237.753 42.5369 237.472 42.7259C237.19 42.9115 237.049 43.1518 237.049 43.4467C237.049 43.7019 237.144 43.9074 237.333 44.0632C237.521 44.219 237.826 44.3466 238.247 44.446L239.46 44.7244C240.163 44.8868 240.687 45.1371 241.031 45.4751C241.376 45.8132 241.548 46.2524 241.548 46.7926C241.548 47.25 241.416 47.6577 241.151 48.0156C240.889 48.3703 240.523 48.6487 240.052 48.8509C239.585 49.053 239.043 49.1541 238.426 49.1541C237.571 49.1541 236.874 48.9718 236.333 48.6072C235.793 48.2393 235.462 47.7173 235.339 47.0412L236.776 46.8224C236.865 47.197 237.049 47.4804 237.328 47.6726C237.606 47.8615 237.969 47.956 238.416 47.956C238.904 47.956 239.293 47.8549 239.585 47.6527C239.876 47.4472 240.022 47.197 240.022 46.902C240.022 46.6634 239.933 46.4628 239.754 46.3004C239.578 46.138 239.308 46.0154 238.943 45.9325L237.651 45.6491C236.938 45.4867 236.411 45.2282 236.07 44.8736C235.732 44.5189 235.563 44.0698 235.563 43.5263C235.563 43.0755 235.689 42.6811 235.941 42.343C236.192 42.005 236.54 41.7415 236.985 41.5526C237.429 41.3603 237.937 41.2642 238.511 41.2642C239.336 41.2642 239.986 41.4432 240.46 41.8011C240.934 42.1558 241.247 42.6314 241.399 43.228ZM248.374 44.4659V49H246.888V38.8182H248.355V42.6065H248.449C248.628 42.1955 248.901 41.8691 249.269 41.6271C249.637 41.3852 250.118 41.2642 250.711 41.2642C251.235 41.2642 251.692 41.3719 252.083 41.5874C252.478 41.8028 252.783 42.1243 252.998 42.5518C253.217 42.9761 253.326 43.5064 253.326 44.1428V49H251.84V44.3217C251.84 43.7616 251.695 43.3274 251.407 43.0192C251.119 42.7076 250.718 42.5518 250.204 42.5518C249.853 42.5518 249.538 42.6264 249.259 42.7756C248.984 42.9247 248.767 43.1435 248.608 43.4318C248.452 43.7169 248.374 44.0616 248.374 44.4659ZM257.532 49.169C257.048 49.169 256.611 49.0795 256.22 48.9006C255.829 48.7183 255.519 48.4548 255.29 48.1101C255.065 47.7654 254.952 47.3428 254.952 46.8423C254.952 46.4115 255.035 46.0568 255.2 45.7784C255.366 45.5 255.59 45.2796 255.872 45.1172C256.153 44.9548 256.468 44.8321 256.816 44.7493C257.164 44.6664 257.519 44.6035 257.88 44.5604C258.338 44.5073 258.709 44.4643 258.994 44.4311C259.279 44.3946 259.486 44.3366 259.615 44.2571C259.744 44.1776 259.809 44.0483 259.809 43.8693V43.8345C259.809 43.4003 259.686 43.0639 259.441 42.8253C259.199 42.5866 258.838 42.4673 258.357 42.4673C257.857 42.4673 257.463 42.5784 257.174 42.8004C256.889 43.0192 256.692 43.2628 256.583 43.5312L255.186 43.2131C255.351 42.7491 255.593 42.3745 255.911 42.0895C256.233 41.8011 256.602 41.5923 257.02 41.4631C257.438 41.3305 257.877 41.2642 258.338 41.2642C258.642 41.2642 258.966 41.3007 259.307 41.3736C259.652 41.4432 259.973 41.5724 260.271 41.7614C260.573 41.9503 260.82 42.2204 261.012 42.5717C261.204 42.9197 261.301 43.3722 261.301 43.929V49H259.849V47.956H259.789C259.693 48.1482 259.549 48.3371 259.357 48.5227C259.164 48.7083 258.918 48.8625 258.616 48.9851C258.314 49.1077 257.953 49.169 257.532 49.169ZM257.855 47.9759C258.266 47.9759 258.618 47.8946 258.909 47.7322C259.204 47.5698 259.428 47.3577 259.58 47.0959C259.736 46.8307 259.814 46.5473 259.814 46.2457V45.2614C259.761 45.3144 259.658 45.3641 259.506 45.4105C259.357 45.4536 259.186 45.4917 258.994 45.5249C258.802 45.5547 258.614 45.5829 258.432 45.6094C258.25 45.6326 258.097 45.6525 257.975 45.669C257.686 45.7055 257.423 45.7668 257.184 45.853C256.949 45.9392 256.76 46.0634 256.617 46.2259C256.478 46.3849 256.409 46.5971 256.409 46.8622C256.409 47.2301 256.544 47.5085 256.816 47.6974C257.088 47.883 257.434 47.9759 257.855 47.9759ZM263.281 51.8636V41.3636H264.732V42.6016H264.857C264.943 42.4425 265.067 42.2585 265.229 42.0497C265.392 41.8409 265.617 41.6586 265.906 41.5028C266.194 41.3438 266.575 41.2642 267.049 41.2642C267.665 41.2642 268.216 41.42 268.7 41.7315C269.183 42.0431 269.563 42.4922 269.838 43.0788C270.116 43.6655 270.256 44.3714 270.256 45.1967C270.256 46.022 270.118 46.7296 269.843 47.3196C269.568 47.9062 269.19 48.3587 268.71 48.6768C268.229 48.9917 267.68 49.1491 267.064 49.1491C266.6 49.1491 266.22 49.0713 265.925 48.9155C265.634 48.7597 265.405 48.5774 265.239 48.3686C265.074 48.1598 264.946 47.9742 264.857 47.8118H264.767V51.8636H263.281ZM264.737 45.1818C264.737 45.7187 264.815 46.1894 264.971 46.5938C265.127 46.9981 265.352 47.3146 265.647 47.5433C265.942 47.7687 266.303 47.8814 266.731 47.8814C267.175 47.8814 267.546 47.7637 267.844 47.5284C268.143 47.2898 268.368 46.9666 268.521 46.5589C268.676 46.1513 268.754 45.6922 268.754 45.1818C268.754 44.678 268.678 44.2256 268.526 43.8246C268.376 43.4235 268.151 43.107 267.849 42.875C267.551 42.643 267.178 42.527 266.731 42.527C266.3 42.527 265.935 42.638 265.637 42.8601C265.342 43.0821 265.118 43.392 264.966 43.7898C264.813 44.1875 264.737 44.6515 264.737 45.1818ZM271.921 51.8636V41.3636H273.373V42.6016H273.497C273.583 42.4425 273.708 42.2585 273.87 42.0497C274.032 41.8409 274.258 41.6586 274.546 41.5028C274.835 41.3438 275.216 41.2642 275.69 41.2642C276.306 41.2642 276.856 41.42 277.34 41.7315C277.824 42.0431 278.204 42.4922 278.479 43.0788C278.757 43.6655 278.896 44.3714 278.896 45.1967C278.896 46.022 278.759 46.7296 278.484 47.3196C278.209 47.9062 277.831 48.3587 277.35 48.6768C276.87 48.9917 276.321 49.1491 275.705 49.1491C275.241 49.1491 274.861 49.0713 274.566 48.9155C274.274 48.7597 274.046 48.5774 273.88 48.3686C273.714 48.1598 273.587 47.9742 273.497 47.8118H273.408V51.8636H271.921ZM273.378 45.1818C273.378 45.7187 273.456 46.1894 273.612 46.5938C273.767 46.9981 273.993 47.3146 274.288 47.5433C274.583 47.7687 274.944 47.8814 275.371 47.8814C275.816 47.8814 276.187 47.7637 276.485 47.5284C276.783 47.2898 277.009 46.9666 277.161 46.5589C277.317 46.1513 277.395 45.6922 277.395 45.1818C277.395 44.678 277.319 44.2256 277.166 43.8246C277.017 43.4235 276.792 43.107 276.49 42.875C276.192 42.643 275.819 42.527 275.371 42.527C274.941 42.527 274.576 42.638 274.278 42.8601C273.983 43.0821 273.759 43.392 273.607 43.7898C273.454 44.1875 273.378 44.6515 273.378 45.1818ZM283.853 49.1541C283.101 49.1541 282.453 48.9934 281.909 48.6719C281.369 48.3471 280.951 47.8913 280.656 47.3047C280.365 46.7147 280.219 46.0237 280.219 45.2315C280.219 44.4493 280.365 43.7599 280.656 43.1634C280.951 42.5668 281.362 42.1011 281.889 41.7663C282.42 41.4316 283.039 41.2642 283.749 41.2642C284.179 41.2642 284.597 41.3355 285.001 41.478C285.406 41.6205 285.769 41.8442 286.09 42.1491C286.412 42.4541 286.665 42.8501 286.851 43.3374C287.036 43.8213 287.129 44.4096 287.129 45.1023V45.6293H281.059V44.5156H285.673C285.673 44.1245 285.593 43.7782 285.434 43.4766C285.275 43.1716 285.051 42.9313 284.763 42.7557C284.478 42.58 284.143 42.4922 283.759 42.4922C283.341 42.4922 282.976 42.5949 282.665 42.8004C282.357 43.0026 282.118 43.2678 281.949 43.5959C281.783 43.9207 281.7 44.2737 281.7 44.6548V45.5249C281.7 46.0353 281.79 46.4695 281.969 46.8274C282.151 47.1854 282.405 47.4588 282.729 47.6477C283.054 47.8333 283.434 47.9261 283.868 47.9261C284.15 47.9261 284.406 47.8864 284.638 47.8068C284.871 47.724 285.071 47.6013 285.24 47.4389C285.409 47.2765 285.538 47.076 285.628 46.8374L287.035 47.0909C286.922 47.5052 286.72 47.8681 286.428 48.1797C286.14 48.4879 285.777 48.7282 285.339 48.9006C284.905 49.0696 284.41 49.1541 283.853 49.1541ZM290.265 44.4659V49H288.779V41.3636H290.205V42.6065H290.3C290.476 42.2022 290.751 41.8774 291.125 41.6321C291.503 41.3868 291.979 41.2642 292.552 41.2642C293.072 41.2642 293.528 41.3736 293.919 41.5923C294.31 41.8078 294.614 42.1293 294.829 42.5568C295.044 42.9844 295.152 43.513 295.152 44.1428V49H293.666V44.3217C293.666 43.7682 293.521 43.3357 293.233 43.0241C292.945 42.7093 292.549 42.5518 292.045 42.5518C291.7 42.5518 291.394 42.6264 291.125 42.7756C290.86 42.9247 290.65 43.1435 290.494 43.4318C290.341 43.7169 290.265 44.0616 290.265 44.4659ZM300.437 49.1541C299.685 49.1541 299.037 48.9934 298.493 48.6719C297.953 48.3471 297.535 47.8913 297.24 47.3047C296.949 46.7147 296.803 46.0237 296.803 45.2315C296.803 44.4493 296.949 43.7599 297.24 43.1634C297.535 42.5668 297.946 42.1011 298.473 41.7663C299.003 41.4316 299.623 41.2642 300.333 41.2642C300.763 41.2642 301.181 41.3355 301.585 41.478C301.99 41.6205 302.353 41.8442 302.674 42.1491C302.996 42.4541 303.249 42.8501 303.435 43.3374C303.62 43.8213 303.713 44.4096 303.713 45.1023V45.6293H297.643V44.5156H302.257C302.257 44.1245 302.177 43.7782 302.018 43.4766C301.859 43.1716 301.635 42.9313 301.347 42.7557C301.062 42.58 300.727 42.4922 300.343 42.4922C299.925 42.4922 299.56 42.5949 299.249 42.8004C298.941 43.0026 298.702 43.2678 298.533 43.5959C298.367 43.9207 298.284 44.2737 298.284 44.6548V45.5249C298.284 46.0353 298.374 46.4695 298.553 46.8274C298.735 47.1854 298.989 47.4588 299.313 47.6477C299.638 47.8333 300.018 47.9261 300.452 47.9261C300.734 47.9261 300.99 47.8864 301.222 47.8068C301.454 47.724 301.655 47.6013 301.824 47.4389C301.993 47.2765 302.122 47.076 302.212 46.8374L303.619 47.0909C303.506 47.5052 303.304 47.8681 303.012 48.1797C302.724 48.4879 302.361 48.7282 301.923 48.9006C301.489 49.0696 300.994 49.1541 300.437 49.1541ZM308.221 49.1491C307.605 49.1491 307.055 48.9917 306.571 48.6768C306.09 48.3587 305.712 47.9062 305.437 47.3196C305.165 46.7296 305.029 46.022 305.029 45.1967C305.029 44.3714 305.167 43.6655 305.442 43.0788C305.721 42.4922 306.102 42.0431 306.586 41.7315C307.069 41.42 307.618 41.2642 308.231 41.2642C308.705 41.2642 309.086 41.3438 309.375 41.5028C309.666 41.6586 309.892 41.8409 310.051 42.0497C310.213 42.2585 310.339 42.4425 310.429 42.6016H310.518V38.8182H312.005V49H310.553V47.8118H310.429C310.339 47.9742 310.21 48.1598 310.041 48.3686C309.875 48.5774 309.646 48.7597 309.355 48.9155C309.063 49.0713 308.685 49.1491 308.221 49.1491ZM308.549 47.8814C308.977 47.8814 309.338 47.7687 309.633 47.5433C309.931 47.3146 310.157 46.9981 310.309 46.5938C310.465 46.1894 310.543 45.7187 310.543 45.1818C310.543 44.6515 310.467 44.1875 310.314 43.7898C310.162 43.392 309.938 43.0821 309.643 42.8601C309.348 42.638 308.984 42.527 308.549 42.527C308.102 42.527 307.729 42.643 307.431 42.875C307.132 43.107 306.907 43.4235 306.755 43.8246C306.605 44.2256 306.531 44.678 306.531 45.1818C306.531 45.6922 306.607 46.1513 306.76 46.5589C306.912 46.9666 307.137 47.2898 307.436 47.5284C307.737 47.7637 308.109 47.8814 308.549 47.8814Z" fill="#4D4D4D"/>
<rect x="175" y="62" width="167" height="16" rx="2" fill="#F1F6EE"/>
<path d="M308.293 112.707C308.683 113.098 309.317 113.098 309.707 112.707L316.071 106.343C316.462 105.953 316.462 105.319 316.071 104.929C315.681 104.538 315.047 104.538 314.657 104.929L309 110.586L303.343 104.929C302.953 104.538 302.319 104.538 301.929 104.929C301.538 105.319 301.538 105.953 301.929 106.343L308.293 112.707ZM308 96V112H310V96H308Z" fill="#B3B3B3"/>
<rect x="159" y="128" width="300" height="64" rx="4" fill="white"/>
<path d="M179.415 153H176.119V142.818H179.519C180.517 142.818 181.374 143.022 182.089 143.43C182.805 143.834 183.354 144.416 183.735 145.175C184.12 145.93 184.312 146.837 184.312 147.894C184.312 148.955 184.118 149.866 183.73 150.629C183.346 151.391 182.789 151.978 182.06 152.388C181.33 152.796 180.449 153 179.415 153ZM177.655 151.658H179.33C180.106 151.658 180.75 151.512 181.264 151.22C181.778 150.925 182.162 150.499 182.418 149.942C182.673 149.382 182.8 148.7 182.8 147.894C182.8 147.095 182.673 146.418 182.418 145.861C182.166 145.304 181.79 144.881 181.289 144.593C180.789 144.305 180.167 144.161 179.425 144.161H177.655V151.658ZM189.319 153.154C188.604 153.154 187.979 152.99 187.445 152.662C186.912 152.334 186.497 151.875 186.202 151.285C185.907 150.695 185.76 150.005 185.76 149.217C185.76 148.424 185.907 147.732 186.202 147.138C186.497 146.545 186.912 146.085 187.445 145.756C187.979 145.428 188.604 145.264 189.319 145.264C190.035 145.264 190.66 145.428 191.194 145.756C191.727 146.085 192.142 146.545 192.437 147.138C192.732 147.732 192.879 148.424 192.879 149.217C192.879 150.005 192.732 150.695 192.437 151.285C192.142 151.875 191.727 152.334 191.194 152.662C190.66 152.99 190.035 153.154 189.319 153.154ZM189.324 151.906C189.788 151.906 190.173 151.784 190.478 151.538C190.783 151.293 191.008 150.967 191.154 150.559C191.303 150.151 191.378 149.702 191.378 149.212C191.378 148.724 191.303 148.277 191.154 147.869C191.008 147.458 190.783 147.129 190.478 146.88C190.173 146.631 189.788 146.507 189.324 146.507C188.857 146.507 188.469 146.631 188.161 146.88C187.856 147.129 187.629 147.458 187.48 147.869C187.334 148.277 187.261 148.724 187.261 149.212C187.261 149.702 187.334 150.151 187.48 150.559C187.629 150.967 187.856 151.293 188.161 151.538C188.469 151.784 188.857 151.906 189.324 151.906ZM201.808 145.364V146.557H197.637V145.364H201.808ZM198.756 143.534H200.242V150.758C200.242 151.046 200.285 151.263 200.371 151.409C200.457 151.552 200.568 151.649 200.704 151.702C200.844 151.752 200.994 151.777 201.157 151.777C201.276 151.777 201.381 151.769 201.47 151.752C201.559 151.736 201.629 151.722 201.679 151.712L201.947 152.94C201.861 152.973 201.738 153.007 201.579 153.04C201.42 153.076 201.221 153.096 200.983 153.099C200.592 153.106 200.227 153.036 199.889 152.891C199.551 152.745 199.278 152.519 199.069 152.214C198.86 151.91 198.756 151.527 198.756 151.066V143.534ZM205.103 148.466V153H203.616V142.818H205.083V146.607H205.178C205.357 146.196 205.63 145.869 205.998 145.627C206.366 145.385 206.846 145.264 207.44 145.264C207.963 145.264 208.421 145.372 208.812 145.587C209.206 145.803 209.511 146.124 209.727 146.552C209.945 146.976 210.055 147.506 210.055 148.143V153H208.568V148.322C208.568 147.762 208.424 147.327 208.136 147.019C207.847 146.708 207.446 146.552 206.933 146.552C206.581 146.552 206.266 146.626 205.988 146.776C205.713 146.925 205.496 147.143 205.337 147.432C205.181 147.717 205.103 148.062 205.103 148.466ZM212.038 153V145.364H213.525V153H212.038ZM212.789 144.185C212.531 144.185 212.308 144.099 212.123 143.927C211.941 143.751 211.849 143.542 211.849 143.3C211.849 143.055 211.941 142.846 212.123 142.674C212.308 142.498 212.531 142.411 212.789 142.411C213.048 142.411 213.268 142.498 213.45 142.674C213.636 142.846 213.729 143.055 213.729 143.3C213.729 143.542 213.636 143.751 213.45 143.927C213.268 144.099 213.048 144.185 212.789 144.185ZM221.247 147.228L219.9 147.467C219.843 147.294 219.754 147.13 219.631 146.974C219.512 146.819 219.349 146.691 219.144 146.592C218.939 146.492 218.682 146.442 218.373 146.442C217.952 146.442 217.601 146.537 217.319 146.726C217.038 146.911 216.897 147.152 216.897 147.447C216.897 147.702 216.991 147.907 217.18 148.063C217.369 148.219 217.674 148.347 218.095 148.446L219.308 148.724C220.011 148.887 220.534 149.137 220.879 149.475C221.224 149.813 221.396 150.252 221.396 150.793C221.396 151.25 221.264 151.658 220.998 152.016C220.737 152.37 220.37 152.649 219.9 152.851C219.432 153.053 218.89 153.154 218.274 153.154C217.419 153.154 216.721 152.972 216.181 152.607C215.641 152.239 215.309 151.717 215.187 151.041L216.623 150.822C216.713 151.197 216.897 151.48 217.175 151.673C217.454 151.862 217.817 151.956 218.264 151.956C218.751 151.956 219.141 151.855 219.432 151.653C219.724 151.447 219.87 151.197 219.87 150.902C219.87 150.663 219.78 150.463 219.601 150.3C219.426 150.138 219.156 150.015 218.791 149.933L217.498 149.649C216.786 149.487 216.259 149.228 215.917 148.874C215.579 148.519 215.41 148.07 215.41 147.526C215.41 147.076 215.536 146.681 215.788 146.343C216.04 146.005 216.388 145.741 216.832 145.553C217.276 145.36 217.785 145.264 218.358 145.264C219.184 145.264 219.833 145.443 220.307 145.801C220.781 146.156 221.095 146.631 221.247 147.228Z" fill="#4D4D4D"/>
<rect x="175" y="166" width="16" height="16" rx="2" fill="#EFEDF7"/>
<rect x="199" y="166" width="167" height="16" rx="2" fill="#EFEDF7"/>
<path d="M196.293 216.707C196.683 217.098 197.317 217.098 197.707 216.707L204.071 210.343C204.462 209.953 204.462 209.319 204.071 208.929C203.681 208.538 203.047 208.538 202.657 208.929L197 214.586L191.343 208.929C190.953 208.538 190.319 208.538 189.929 208.929C189.538 209.319 189.538 209.953 189.929 210.343L196.293 216.707ZM196 200V216H198V200H196Z" fill="#B3B3B3"/>
<path d="M420.293 216.707C420.683 217.098 421.317 217.098 421.707 216.707L428.071 210.343C428.462 209.953 428.462 209.319 428.071 208.929C427.681 208.538 427.047 208.538 426.657 208.929L421 214.586L415.343 208.929C414.953 208.538 414.319 208.538 413.929 208.929C413.538 209.319 413.538 209.953 413.929 210.343L420.293 216.707ZM420 200V216H422V200H420Z" fill="#B3B3B3"/>
<path d="M420.293 320.707C420.683 321.098 421.317 321.098 421.707 320.707L428.071 314.343C428.462 313.953 428.462 313.319 428.071 312.929C427.681 312.538 427.047 312.538 426.657 312.929L421 318.586L415.343 312.929C414.953 312.538 414.319 312.538 413.929 312.929C413.538 313.319 413.538 313.953 413.929 314.343L420.293 320.707ZM420 304V320H422V304H420Z" fill="#B3B3B3"/>
<rect x="97" y="232" width="200" height="64" rx="4" fill="white"/>
<path d="M114.979 257H113.348L117.012 246.818H118.787L122.451 257H120.82L117.942 248.668H117.862L114.979 257ZM115.252 253.013H120.542V254.305H115.252V253.013ZM125.289 252.466V257H123.802V249.364H125.229V250.607H125.323C125.499 250.202 125.774 249.877 126.149 249.632C126.526 249.387 127.002 249.264 127.575 249.264C128.096 249.264 128.552 249.374 128.943 249.592C129.334 249.808 129.637 250.129 129.852 250.557C130.068 250.984 130.176 251.513 130.176 252.143V257H128.689V252.322C128.689 251.768 128.545 251.336 128.257 251.024C127.968 250.709 127.572 250.552 127.068 250.552C126.724 250.552 126.417 250.626 126.149 250.776C125.883 250.925 125.673 251.143 125.517 251.432C125.365 251.717 125.289 252.062 125.289 252.466ZM135.028 257.149C134.411 257.149 133.861 256.992 133.377 256.677C132.897 256.359 132.519 255.906 132.244 255.32C131.972 254.73 131.836 254.022 131.836 253.197C131.836 252.371 131.974 251.665 132.249 251.079C132.527 250.492 132.908 250.043 133.392 249.732C133.876 249.42 134.425 249.264 135.038 249.264C135.512 249.264 135.893 249.344 136.181 249.503C136.473 249.659 136.698 249.841 136.857 250.05C137.02 250.259 137.146 250.442 137.235 250.602H137.325V246.818H138.811V257H137.36V255.812H137.235C137.146 255.974 137.017 256.16 136.847 256.369C136.682 256.577 136.453 256.76 136.161 256.915C135.87 257.071 135.492 257.149 135.028 257.149ZM135.356 255.881C135.784 255.881 136.145 255.769 136.44 255.543C136.738 255.315 136.963 254.998 137.116 254.594C137.272 254.189 137.35 253.719 137.35 253.182C137.35 252.652 137.273 252.187 137.121 251.79C136.968 251.392 136.745 251.082 136.45 250.86C136.155 250.638 135.79 250.527 135.356 250.527C134.909 250.527 134.536 250.643 134.237 250.875C133.939 251.107 133.714 251.424 133.561 251.825C133.412 252.226 133.338 252.678 133.338 253.182C133.338 253.692 133.414 254.151 133.566 254.559C133.719 254.967 133.944 255.29 134.242 255.528C134.544 255.764 134.915 255.881 135.356 255.881ZM147.497 257.149C146.88 257.149 146.33 256.992 145.846 256.677C145.365 256.359 144.988 255.906 144.713 255.32C144.441 254.73 144.305 254.022 144.305 253.197C144.305 252.371 144.442 251.665 144.718 251.079C144.996 250.492 145.377 250.043 145.861 249.732C146.345 249.42 146.893 249.264 147.507 249.264C147.981 249.264 148.362 249.344 148.65 249.503C148.942 249.659 149.167 249.841 149.326 250.05C149.489 250.259 149.615 250.442 149.704 250.602H149.794V246.818H151.28V257H149.828V255.812H149.704C149.615 255.974 149.485 256.16 149.316 256.369C149.151 256.577 148.922 256.76 148.63 256.915C148.338 257.071 147.961 257.149 147.497 257.149ZM147.825 255.881C148.252 255.881 148.614 255.769 148.909 255.543C149.207 255.315 149.432 254.998 149.585 254.594C149.74 254.189 149.818 253.719 149.818 253.182C149.818 252.652 149.742 252.187 149.59 251.79C149.437 251.392 149.213 251.082 148.919 250.86C148.624 250.638 148.259 250.527 147.825 250.527C147.377 250.527 147.004 250.643 146.706 250.875C146.408 251.107 146.182 251.424 146.03 251.825C145.881 252.226 145.806 252.678 145.806 253.182C145.806 253.692 145.883 254.151 146.035 254.559C146.187 254.967 146.413 255.29 146.711 255.528C147.013 255.764 147.384 255.881 147.825 255.881ZM156.618 257.154C155.902 257.154 155.278 256.99 154.744 256.662C154.21 256.334 153.796 255.875 153.501 255.285C153.206 254.695 153.059 254.005 153.059 253.217C153.059 252.424 153.206 251.732 153.501 251.138C153.796 250.545 154.21 250.085 154.744 249.756C155.278 249.428 155.902 249.264 156.618 249.264C157.334 249.264 157.959 249.428 158.493 249.756C159.026 250.085 159.44 250.545 159.735 251.138C160.03 251.732 160.178 252.424 160.178 253.217C160.178 254.005 160.03 254.695 159.735 255.285C159.44 255.875 159.026 256.334 158.493 256.662C157.959 256.99 157.334 257.154 156.618 257.154ZM156.623 255.906C157.087 255.906 157.472 255.784 157.777 255.538C158.082 255.293 158.307 254.967 158.453 254.559C158.602 254.151 158.676 253.702 158.676 253.212C158.676 252.724 158.602 252.277 158.453 251.869C158.307 251.458 158.082 251.129 157.777 250.88C157.472 250.631 157.087 250.507 156.623 250.507C156.156 250.507 155.768 250.631 155.46 250.88C155.155 251.129 154.928 251.458 154.779 251.869C154.633 252.277 154.56 252.724 154.56 253.212C154.56 253.702 154.633 254.151 154.779 254.559C154.928 254.967 155.155 255.293 155.46 255.538C155.768 255.784 156.156 255.906 156.623 255.906ZM169.107 249.364V250.557H164.936V249.364H169.107ZM166.054 247.534H167.541V254.758C167.541 255.046 167.584 255.263 167.67 255.409C167.756 255.552 167.867 255.649 168.003 255.702C168.142 255.752 168.293 255.777 168.456 255.777C168.575 255.777 168.679 255.769 168.769 255.752C168.858 255.736 168.928 255.722 168.978 255.712L169.246 256.94C169.16 256.973 169.037 257.007 168.878 257.04C168.719 257.076 168.52 257.096 168.282 257.099C167.891 257.106 167.526 257.036 167.188 256.891C166.85 256.745 166.576 256.519 166.368 256.214C166.159 255.91 166.054 255.527 166.054 255.066V247.534ZM172.402 252.466V257H170.915V246.818H172.382V250.607H172.476C172.655 250.196 172.929 249.869 173.297 249.627C173.665 249.385 174.145 249.264 174.738 249.264C175.262 249.264 175.72 249.372 176.111 249.587C176.505 249.803 176.81 250.124 177.025 250.552C177.244 250.976 177.354 251.506 177.354 252.143V257H175.867V252.322C175.867 251.762 175.723 251.327 175.434 251.019C175.146 250.708 174.745 250.552 174.231 250.552C173.88 250.552 173.565 250.626 173.287 250.776C173.012 250.925 172.795 251.143 172.635 251.432C172.48 251.717 172.402 252.062 172.402 252.466ZM179.337 257V249.364H180.824V257H179.337ZM180.088 248.185C179.829 248.185 179.607 248.099 179.422 247.927C179.239 247.751 179.148 247.542 179.148 247.3C179.148 247.055 179.239 246.846 179.422 246.674C179.607 246.498 179.829 246.411 180.088 246.411C180.346 246.411 180.567 246.498 180.749 246.674C180.935 246.846 181.028 247.055 181.028 247.3C181.028 247.542 180.935 247.751 180.749 247.927C180.567 248.099 180.346 248.185 180.088 248.185ZM188.546 251.228L187.199 251.467C187.142 251.294 187.053 251.13 186.93 250.974C186.811 250.819 186.648 250.691 186.443 250.592C186.237 250.492 185.98 250.442 185.672 250.442C185.251 250.442 184.9 250.537 184.618 250.726C184.337 250.911 184.196 251.152 184.196 251.447C184.196 251.702 184.29 251.907 184.479 252.063C184.668 252.219 184.973 252.347 185.394 252.446L186.607 252.724C187.31 252.887 187.833 253.137 188.178 253.475C188.523 253.813 188.695 254.252 188.695 254.793C188.695 255.25 188.562 255.658 188.297 256.016C188.035 256.37 187.669 256.649 187.199 256.851C186.731 257.053 186.189 257.154 185.573 257.154C184.718 257.154 184.02 256.972 183.48 256.607C182.94 256.239 182.608 255.717 182.485 255.041L183.922 254.822C184.012 255.197 184.196 255.48 184.474 255.673C184.752 255.862 185.115 255.956 185.563 255.956C186.05 255.956 186.44 255.855 186.731 255.653C187.023 255.447 187.169 255.197 187.169 254.902C187.169 254.663 187.079 254.463 186.9 254.3C186.725 254.138 186.454 254.015 186.09 253.933L184.797 253.649C184.085 253.487 183.558 253.228 183.216 252.874C182.878 252.519 182.709 252.07 182.709 251.526C182.709 251.076 182.835 250.681 183.087 250.343C183.339 250.005 183.687 249.741 184.131 249.553C184.575 249.36 185.084 249.264 185.657 249.264C186.483 249.264 187.132 249.443 187.606 249.801C188.08 250.156 188.393 250.631 188.546 251.228Z" fill="#4D4D4D"/>
<rect x="113" y="270" width="16" height="16" rx="2" fill="#F7EFED"/>
<rect x="137" y="270" width="118" height="16" rx="2" fill="#F7EFED"/>
<rect x="321" y="336" width="200" height="64" rx="4" fill="white"/>
<path d="M341.415 361H338.119V350.818H341.519C342.517 350.818 343.374 351.022 344.089 351.43C344.805 351.834 345.354 352.416 345.735 353.175C346.12 353.93 346.312 354.837 346.312 355.894C346.312 356.955 346.118 357.866 345.73 358.629C345.346 359.391 344.789 359.978 344.06 360.388C343.33 360.796 342.449 361 341.415 361ZM339.655 359.658H341.33C342.106 359.658 342.75 359.512 343.264 359.22C343.778 358.925 344.162 358.499 344.418 357.942C344.673 357.382 344.8 356.7 344.8 355.894C344.8 355.095 344.673 354.418 344.418 353.861C344.166 353.304 343.79 352.881 343.289 352.593C342.789 352.305 342.167 352.161 341.425 352.161H339.655V359.658ZM351.319 361.154C350.604 361.154 349.979 360.99 349.445 360.662C348.912 360.334 348.497 359.875 348.202 359.285C347.907 358.695 347.76 358.005 347.76 357.217C347.76 356.424 347.907 355.732 348.202 355.138C348.497 354.545 348.912 354.085 349.445 353.756C349.979 353.428 350.604 353.264 351.319 353.264C352.035 353.264 352.66 353.428 353.194 353.756C353.727 354.085 354.142 354.545 354.437 355.138C354.732 355.732 354.879 356.424 354.879 357.217C354.879 358.005 354.732 358.695 354.437 359.285C354.142 359.875 353.727 360.334 353.194 360.662C352.66 360.99 352.035 361.154 351.319 361.154ZM351.324 359.906C351.788 359.906 352.173 359.784 352.478 359.538C352.783 359.293 353.008 358.967 353.154 358.559C353.303 358.151 353.378 357.702 353.378 357.212C353.378 356.724 353.303 356.277 353.154 355.869C353.008 355.458 352.783 355.129 352.478 354.88C352.173 354.631 351.788 354.507 351.324 354.507C350.857 354.507 350.469 354.631 350.161 354.88C349.856 355.129 349.629 355.458 349.48 355.869C349.334 356.277 349.261 356.724 349.261 357.212C349.261 357.702 349.334 358.151 349.48 358.559C349.629 358.967 349.856 359.293 350.161 359.538C350.469 359.784 350.857 359.906 351.324 359.906ZM363.808 353.364V354.557H359.637V353.364H363.808ZM360.756 351.534H362.242V358.758C362.242 359.046 362.285 359.263 362.371 359.409C362.457 359.552 362.568 359.649 362.704 359.702C362.844 359.752 362.994 359.777 363.157 359.777C363.276 359.777 363.381 359.769 363.47 359.752C363.559 359.736 363.629 359.722 363.679 359.712L363.947 360.94C363.861 360.973 363.738 361.007 363.579 361.04C363.42 361.076 363.221 361.096 362.983 361.099C362.592 361.106 362.227 361.036 361.889 360.891C361.551 360.745 361.278 360.519 361.069 360.214C360.86 359.91 360.756 359.527 360.756 359.066V351.534ZM367.103 356.466V361H365.616V350.818H367.083V354.607H367.178C367.357 354.196 367.63 353.869 367.998 353.627C368.366 353.385 368.846 353.264 369.44 353.264C369.963 353.264 370.421 353.372 370.812 353.587C371.206 353.803 371.511 354.124 371.727 354.552C371.945 354.976 372.055 355.506 372.055 356.143V361H370.568V356.322C370.568 355.762 370.424 355.327 370.136 355.019C369.847 354.708 369.446 354.552 368.933 354.552C368.581 354.552 368.266 354.626 367.988 354.776C367.713 354.925 367.496 355.143 367.337 355.432C367.181 355.717 367.103 356.062 367.103 356.466ZM374.038 361V353.364H375.525V361H374.038ZM374.789 352.185C374.531 352.185 374.308 352.099 374.123 351.927C373.941 351.751 373.849 351.542 373.849 351.3C373.849 351.055 373.941 350.846 374.123 350.674C374.308 350.498 374.531 350.411 374.789 350.411C375.048 350.411 375.268 350.498 375.45 350.674C375.636 350.846 375.729 351.055 375.729 351.3C375.729 351.542 375.636 351.751 375.45 351.927C375.268 352.099 375.048 352.185 374.789 352.185ZM383.247 355.228L381.9 355.467C381.843 355.294 381.754 355.13 381.631 354.974C381.512 354.819 381.349 354.691 381.144 354.592C380.939 354.492 380.682 354.442 380.373 354.442C379.952 354.442 379.601 354.537 379.319 354.726C379.038 354.911 378.897 355.152 378.897 355.447C378.897 355.702 378.991 355.907 379.18 356.063C379.369 356.219 379.674 356.347 380.095 356.446L381.308 356.724C382.011 356.887 382.534 357.137 382.879 357.475C383.224 357.813 383.396 358.252 383.396 358.793C383.396 359.25 383.264 359.658 382.998 360.016C382.737 360.37 382.37 360.649 381.9 360.851C381.432 361.053 380.89 361.154 380.274 361.154C379.419 361.154 378.721 360.972 378.181 360.607C377.641 360.239 377.309 359.717 377.187 359.041L378.623 358.822C378.713 359.197 378.897 359.48 379.175 359.673C379.454 359.862 379.817 359.956 380.264 359.956C380.751 359.956 381.141 359.855 381.432 359.653C381.724 359.447 381.87 359.197 381.87 358.902C381.87 358.663 381.78 358.463 381.601 358.3C381.426 358.138 381.156 358.015 380.791 357.933L379.498 357.649C378.786 357.487 378.259 357.228 377.917 356.874C377.579 356.519 377.41 356.07 377.41 355.526C377.41 355.076 377.536 354.681 377.788 354.343C378.04 354.005 378.388 353.741 378.832 353.553C379.276 353.36 379.785 353.264 380.358 353.264C381.184 353.264 381.833 353.443 382.307 353.801C382.781 354.156 383.095 354.631 383.247 355.228Z" fill="#4D4D4D"/>
<rect x="337" y="374" width="16" height="16" rx="2" fill="#EDF3F7"/>
<rect x="361" y="374" width="145" height="16" rx="2" fill="#EDF3F7"/>
<rect x="321" y="232" width="200" height="64" rx="4" fill="white"/>
<path d="M339.655 246.818V257H338.119V246.818H339.655ZM345.407 249.364V250.557H341.092V249.364H345.407ZM342.275 257V248.479C342.275 248.001 342.379 247.605 342.588 247.29C342.797 246.972 343.074 246.735 343.418 246.58C343.763 246.42 344.138 246.341 344.542 246.341C344.84 246.341 345.095 246.366 345.308 246.415C345.52 246.462 345.677 246.505 345.78 246.545L345.432 247.748C345.362 247.728 345.273 247.705 345.163 247.678C345.054 247.648 344.921 247.634 344.766 247.634C344.404 247.634 344.146 247.723 343.99 247.902C343.838 248.081 343.761 248.339 343.761 248.678V257H342.275ZM354.21 249.364V250.557H350.039V249.364H354.21ZM351.158 247.534H352.644V254.758C352.644 255.046 352.687 255.263 352.774 255.409C352.86 255.552 352.971 255.649 353.107 255.702C353.246 255.752 353.397 255.777 353.559 255.777C353.678 255.777 353.783 255.769 353.872 255.752C353.962 255.736 354.031 255.722 354.081 255.712L354.35 256.94C354.263 256.973 354.141 257.007 353.982 257.04C353.823 257.076 353.624 257.096 353.385 257.099C352.994 257.106 352.629 257.036 352.291 256.891C351.953 256.745 351.68 256.519 351.471 256.214C351.262 255.91 351.158 255.527 351.158 255.066V247.534ZM357.505 252.466V257H356.019V246.818H357.485V250.607H357.58C357.759 250.196 358.032 249.869 358.4 249.627C358.768 249.385 359.249 249.264 359.842 249.264C360.366 249.264 360.823 249.372 361.214 249.587C361.609 249.803 361.913 250.124 362.129 250.552C362.348 250.976 362.457 251.506 362.457 252.143V257H360.971V252.322C360.971 251.762 360.826 251.327 360.538 251.019C360.25 250.708 359.849 250.552 359.335 250.552C358.984 250.552 358.669 250.626 358.39 250.776C358.115 250.925 357.898 251.143 357.739 251.432C357.583 251.717 357.505 252.062 357.505 252.466ZM364.441 257V249.364H365.927V257H364.441ZM365.191 248.185C364.933 248.185 364.711 248.099 364.525 247.927C364.343 247.751 364.252 247.542 364.252 247.3C364.252 247.055 364.343 246.846 364.525 246.674C364.711 246.498 364.933 246.411 365.191 246.411C365.45 246.411 365.67 246.498 365.853 246.674C366.038 246.846 366.131 247.055 366.131 247.3C366.131 247.542 366.038 247.751 365.853 247.927C365.67 248.099 365.45 248.185 365.191 248.185ZM373.649 251.228L372.302 251.467C372.246 251.294 372.156 251.13 372.034 250.974C371.914 250.819 371.752 250.691 371.546 250.592C371.341 250.492 371.084 250.442 370.776 250.442C370.355 250.442 370.003 250.537 369.722 250.726C369.44 250.911 369.299 251.152 369.299 251.447C369.299 251.702 369.394 251.907 369.583 252.063C369.771 252.219 370.076 252.347 370.497 252.446L371.71 252.724C372.413 252.887 372.937 253.137 373.281 253.475C373.626 253.813 373.798 254.252 373.798 254.793C373.798 255.25 373.666 255.658 373.401 256.016C373.139 256.37 372.773 256.649 372.302 256.851C371.835 257.053 371.293 257.154 370.676 257.154C369.821 257.154 369.124 256.972 368.583 256.607C368.043 256.239 367.712 255.717 367.589 255.041L369.026 254.822C369.115 255.197 369.299 255.48 369.578 255.673C369.856 255.862 370.219 255.956 370.666 255.956C371.154 255.956 371.543 255.855 371.835 255.653C372.126 255.447 372.272 255.197 372.272 254.902C372.272 254.663 372.183 254.463 372.004 254.3C371.828 254.138 371.558 254.015 371.193 253.933L369.901 253.649C369.188 253.487 368.661 253.228 368.32 252.874C367.982 252.519 367.813 252.07 367.813 251.526C367.813 251.076 367.939 250.681 368.191 250.343C368.442 250.005 368.79 249.741 369.235 249.553C369.679 249.36 370.187 249.264 370.761 249.264C371.586 249.264 372.236 249.443 372.71 249.801C373.184 250.156 373.497 250.631 373.649 251.228ZM380.624 252.466V257H379.138V246.818H380.605V250.607H380.699C380.878 250.196 381.151 249.869 381.519 249.627C381.887 249.385 382.368 249.264 382.961 249.264C383.485 249.264 383.942 249.372 384.333 249.587C384.728 249.803 385.033 250.124 385.248 250.552C385.467 250.976 385.576 251.506 385.576 252.143V257H384.09V252.322C384.09 251.762 383.945 251.327 383.657 251.019C383.369 250.708 382.968 250.552 382.454 250.552C382.103 250.552 381.788 250.626 381.509 250.776C381.234 250.925 381.017 251.143 380.858 251.432C380.702 251.717 380.624 252.062 380.624 252.466ZM389.782 257.169C389.298 257.169 388.861 257.08 388.47 256.901C388.079 256.718 387.769 256.455 387.54 256.11C387.315 255.765 387.202 255.343 387.202 254.842C387.202 254.411 387.285 254.057 387.45 253.778C387.616 253.5 387.84 253.28 388.122 253.117C388.403 252.955 388.718 252.832 389.066 252.749C389.414 252.666 389.769 252.603 390.13 252.56C390.588 252.507 390.959 252.464 391.244 252.431C391.529 252.395 391.736 252.337 391.865 252.257C391.994 252.178 392.059 252.048 392.059 251.869V251.835C392.059 251.4 391.936 251.064 391.691 250.825C391.449 250.587 391.088 250.467 390.607 250.467C390.107 250.467 389.713 250.578 389.424 250.8C389.139 251.019 388.942 251.263 388.833 251.531L387.436 251.213C387.601 250.749 387.843 250.375 388.161 250.089C388.483 249.801 388.852 249.592 389.27 249.463C389.688 249.33 390.127 249.264 390.588 249.264C390.892 249.264 391.216 249.301 391.557 249.374C391.902 249.443 392.223 249.572 392.521 249.761C392.823 249.95 393.07 250.22 393.262 250.572C393.454 250.92 393.551 251.372 393.551 251.929V257H392.099V255.956H392.039C391.943 256.148 391.799 256.337 391.607 256.523C391.414 256.708 391.168 256.862 390.866 256.985C390.564 257.108 390.203 257.169 389.782 257.169ZM390.105 255.976C390.516 255.976 390.868 255.895 391.159 255.732C391.454 255.57 391.678 255.358 391.83 255.096C391.986 254.831 392.064 254.547 392.064 254.246V253.261C392.011 253.314 391.908 253.364 391.756 253.411C391.607 253.454 391.436 253.492 391.244 253.525C391.052 253.555 390.864 253.583 390.682 253.609C390.5 253.633 390.347 253.652 390.225 253.669C389.936 253.705 389.673 253.767 389.434 253.853C389.199 253.939 389.01 254.063 388.867 254.226C388.728 254.385 388.659 254.597 388.659 254.862C388.659 255.23 388.794 255.509 389.066 255.697C389.338 255.883 389.684 255.976 390.105 255.976ZM395.531 259.864V249.364H396.982V250.602H397.107C397.193 250.442 397.317 250.259 397.479 250.05C397.642 249.841 397.867 249.659 398.156 249.503C398.444 249.344 398.825 249.264 399.299 249.264C399.915 249.264 400.466 249.42 400.95 249.732C401.433 250.043 401.813 250.492 402.088 251.079C402.366 251.665 402.506 252.371 402.506 253.197C402.506 254.022 402.368 254.73 402.093 255.32C401.818 255.906 401.44 256.359 400.96 256.677C400.479 256.992 399.93 257.149 399.314 257.149C398.85 257.149 398.47 257.071 398.175 256.915C397.884 256.76 397.655 256.577 397.489 256.369C397.324 256.16 397.196 255.974 397.107 255.812H397.017V259.864H395.531ZM396.987 253.182C396.987 253.719 397.065 254.189 397.221 254.594C397.377 254.998 397.602 255.315 397.897 255.543C398.192 255.769 398.553 255.881 398.981 255.881C399.425 255.881 399.796 255.764 400.094 255.528C400.393 255.29 400.618 254.967 400.771 254.559C400.926 254.151 401.004 253.692 401.004 253.182C401.004 252.678 400.928 252.226 400.776 251.825C400.626 251.424 400.401 251.107 400.099 250.875C399.801 250.643 399.428 250.527 398.981 250.527C398.55 250.527 398.185 250.638 397.887 250.86C397.592 251.082 397.368 251.392 397.216 251.79C397.063 252.187 396.987 252.652 396.987 253.182ZM404.171 259.864V249.364H405.623V250.602H405.747C405.833 250.442 405.958 250.259 406.12 250.05C406.282 249.841 406.508 249.659 406.796 249.503C407.085 249.344 407.466 249.264 407.94 249.264C408.556 249.264 409.106 249.42 409.59 249.732C410.074 250.043 410.454 250.492 410.729 251.079C411.007 251.665 411.146 252.371 411.146 253.197C411.146 254.022 411.009 254.73 410.734 255.32C410.459 255.906 410.081 256.359 409.6 256.677C409.12 256.992 408.571 257.149 407.955 257.149C407.491 257.149 407.111 257.071 406.816 256.915C406.524 256.76 406.296 256.577 406.13 256.369C405.964 256.16 405.837 255.974 405.747 255.812H405.658V259.864H404.171ZM405.628 253.182C405.628 253.719 405.706 254.189 405.862 254.594C406.017 254.998 406.243 255.315 406.538 255.543C406.833 255.769 407.194 255.881 407.621 255.881C408.066 255.881 408.437 255.764 408.735 255.528C409.033 255.29 409.259 254.967 409.411 254.559C409.567 254.151 409.645 253.692 409.645 253.182C409.645 252.678 409.569 252.226 409.416 251.825C409.267 251.424 409.042 251.107 408.74 250.875C408.442 250.643 408.069 250.527 407.621 250.527C407.191 250.527 406.826 250.638 406.528 250.86C406.233 251.082 406.009 251.392 405.857 251.79C405.704 252.187 405.628 252.652 405.628 253.182ZM416.103 257.154C415.351 257.154 414.703 256.993 414.159 256.672C413.619 256.347 413.201 255.891 412.906 255.305C412.615 254.715 412.469 254.024 412.469 253.232C412.469 252.449 412.615 251.76 412.906 251.163C413.201 250.567 413.612 250.101 414.139 249.766C414.67 249.432 415.289 249.264 415.999 249.264C416.429 249.264 416.847 249.335 417.251 249.478C417.656 249.621 418.019 249.844 418.34 250.149C418.662 250.454 418.915 250.85 419.101 251.337C419.286 251.821 419.379 252.41 419.379 253.102V253.629H413.309V252.516H417.923C417.923 252.125 417.843 251.778 417.684 251.477C417.525 251.172 417.301 250.931 417.013 250.756C416.728 250.58 416.393 250.492 416.009 250.492C415.591 250.492 415.226 250.595 414.915 250.8C414.607 251.003 414.368 251.268 414.199 251.596C414.033 251.921 413.95 252.274 413.95 252.655V253.525C413.95 254.035 414.04 254.469 414.219 254.827C414.401 255.185 414.655 255.459 414.979 255.648C415.304 255.833 415.684 255.926 416.118 255.926C416.4 255.926 416.656 255.886 416.888 255.807C417.121 255.724 417.321 255.601 417.49 255.439C417.659 255.277 417.788 255.076 417.878 254.837L419.285 255.091C419.172 255.505 418.97 255.868 418.678 256.18C418.39 256.488 418.027 256.728 417.589 256.901C417.155 257.07 416.66 257.154 416.103 257.154ZM422.515 252.466V257H421.029V249.364H422.455V250.607H422.55C422.726 250.202 423.001 249.877 423.375 249.632C423.753 249.387 424.229 249.264 424.802 249.264C425.322 249.264 425.778 249.374 426.169 249.592C426.56 249.808 426.864 250.129 427.079 250.557C427.294 250.984 427.402 251.513 427.402 252.143V257H425.916V252.322C425.916 251.768 425.771 251.336 425.483 251.024C425.195 250.709 424.799 250.552 424.295 250.552C423.95 250.552 423.644 250.626 423.375 250.776C423.11 250.925 422.9 251.143 422.744 251.432C422.591 251.717 422.515 252.062 422.515 252.466Z" fill="#4D4D4D"/>
<rect x="337" y="270" width="16" height="16" rx="2" fill="#F7EDF6"/>
<rect x="361" y="270" width="131" height="16" rx="2" fill="#F7EDF6"/>
</g>
<rect x="24.5" y="0.5" width="569" height="390" rx="3.5" stroke="#D5D9DC"/>
<defs>
<clipPath id="clip0_975_9115">
<rect x="24" width="570" height="391" rx="4" fill="white"/>
</clipPath>
</defs>
</svg>
