<svg width="56" height="56" viewBox="0 0 56 56" fill="none" xmlns="http://www.w3.org/2000/svg">
<rect width="56" height="56" rx="8" fill="#415765"/>
<path d="M23.4166 19.8818C23.4166 18.5377 22.3145 17.4355 20.9704 17.4355C19.6263 17.4355 18.5242 18.5377 18.5242 19.8818C18.5242 21.2259 19.6263 22.328 20.9704 22.328C22.3145 22.328 23.4166 21.2259 23.4166 19.8818Z" fill="white"/>
<path d="M37.3145 19.8818C37.3145 18.5377 36.2123 17.4355 34.8682 17.4355C33.5241 17.4355 32.422 18.5377 32.422 19.8818C32.422 21.2259 33.5241 22.328 34.8682 22.328C36.2123 22.328 37.3145 21.2259 37.3145 19.8818Z" fill="white"/>
<path d="M47.2876 44.9086H44.4381V42.6774H47.2876C47.7983 42.6774 48.2016 42.2742 48.2016 41.7634C48.2016 41.2527 47.7983 40.8495 47.2876 40.8495H44.4381V40.5269C44.4381 40.0161 44.0349 39.6129 43.5242 39.6129C41.2392 39.6129 39.5994 40.6344 39.008 42.328C38.9274 42.3011 38.8467 42.2742 38.7392 42.2742H10.8629V11.0645H44.5457V32.5699C44.5457 33.4032 45.2446 34.1022 46.0779 34.1022C46.9112 34.1022 47.6102 33.4301 47.6102 32.5699V9.53226C47.6102 8.69892 46.9112 8 46.0779 8H9.3306C8.49726 8 7.79834 8.67204 7.79834 9.53226V43.8065C7.79834 44.6398 8.47038 45.3387 9.3306 45.3387H38.7392C38.8199 45.3387 38.9005 45.3118 38.9811 45.2849C39.6532 47.2473 41.6424 48 43.5242 48C44.0349 48 44.4381 47.5968 44.4381 47.086V46.7634H47.2876C47.7983 46.7634 48.2016 46.3602 48.2016 45.8495C48.2016 45.3387 47.7983 44.9086 47.2876 44.9086ZM42.6102 46.0914C41.6155 45.9032 40.5672 45.3387 40.5672 43.8065C40.5672 42.2473 41.6155 41.7097 42.6102 41.5215V46.0914Z" fill="white"/>
<path d="M28.3628 33.6452C25.6478 33.6452 23.4166 33.242 23.2822 33.242C22.3682 33.0807 21.7768 32.2205 21.9381 31.3065C22.0994 30.3925 22.9327 29.8012 23.8736 29.9624C23.9273 29.9624 28.4972 30.7689 32.0725 29.9624C32.9865 29.7743 33.8736 30.3388 34.0618 31.2259C34.2499 32.1399 33.6854 33.027 32.7983 33.2151C31.3198 33.5377 29.7876 33.6452 28.3628 33.6452Z" fill="white"/>
</svg>
