<svg width="48" height="48" viewBox="0 0 48 48" fill="none" xmlns="http://www.w3.org/2000/svg">
<path d="M43.975 42.8675H41.0492V40.4005H43.975C44.4994 40.4005 44.9135 39.9546 44.9135 39.3899C44.9135 38.8251 44.4994 38.3793 43.975 38.3793H41.0492V38.0226C41.0492 37.4578 40.6351 37.012 40.1107 37.012C37.7645 37.012 36.0808 38.1415 35.4736 40.014C35.3908 39.9843 35.308 39.9546 35.1976 39.9546H6.57436V5.44561H41.1596V29.2244C41.1596 30.1458 41.8772 30.9187 42.7329 30.9187C43.5886 30.9187 44.3062 30.1756 44.3062 29.2244V3.75137C44.3062 2.82994 43.5886 2.05713 42.7329 2.05713H5.00105C4.14539 2.05713 3.42773 2.80022 3.42773 3.75137V41.6488C3.42773 42.5703 4.11778 43.3431 5.00105 43.3431H35.1976C35.2804 43.3431 35.3632 43.3134 35.446 43.2836C36.136 45.4534 38.1786 46.2857 40.1107 46.2857C40.6351 46.2857 41.0492 45.8399 41.0492 45.2751V44.9184H43.975C44.4994 44.9184 44.9135 44.4726 44.9135 43.9078C44.9135 43.3431 44.4994 42.8675 43.975 42.8675Z" fill="black"/>
<path d="M23.1441 35.9033C22.9876 36.1772 22.6982 36.3429 22.3827 36.3429C21.8478 36.3429 21.4369 35.8691 21.5125 35.3395L22.5669 27.9591C22.739 26.7542 21.8041 25.6762 20.587 25.6762H17.5597C16.2187 25.6762 17.0568 24.5334 17.0873 24.4876C19.0107 21.0882 21.8823 16.0547 25.7023 9.35877C25.8587 9.08463 26.1507 8.91431 26.4663 8.91431C27.0012 8.91431 27.412 9.38801 27.3364 9.91748L26.282 17.2981C26.1099 18.503 27.0448 19.581 28.2619 19.581H31.3044C31.914 19.581 32.2492 19.8705 31.914 20.5867C26.8999 29.3327 23.9796 34.4412 23.1441 35.9033Z" fill="black"/>
</svg>
