<svg width="128" height="44" viewBox="0 0 128 44" fill="none" xmlns="http://www.w3.org/2000/svg">
<path d="M36.6448 37.723H34.2067V35.6671H36.6448C37.0819 35.6671 37.4269 35.2956 37.4269 34.825C37.4269 34.3543 37.0819 33.9828 36.6448 33.9828H34.2067V33.6856C34.2067 33.2149 33.8616 32.8434 33.4246 32.8434C31.4695 32.8434 30.0664 33.7846 29.5603 35.3451C29.4913 35.3204 29.4223 35.2956 29.3303 35.2956H5.47765V6.53809H34.2987V26.3538C34.2987 27.1216 34.8967 27.7656 35.6098 27.7656C36.3228 27.7656 36.9209 27.1464 36.9209 26.3538V5.12622C36.9209 4.35836 36.3228 3.71436 35.6098 3.71436H4.16656C3.45351 3.71436 2.85547 4.33359 2.85547 5.12622V36.7074C2.85547 37.4753 3.43051 38.1193 4.16656 38.1193H29.3303C29.3993 38.1193 29.4683 38.0945 29.5373 38.0698C30.1124 39.878 31.8145 40.5715 33.4246 40.5715C33.8616 40.5715 34.2067 40.2 34.2067 39.7293V39.4321H36.6448C37.0819 39.4321 37.4269 39.0606 37.4269 38.5899C37.4269 38.1193 37.0819 37.723 36.6448 37.723Z" fill="#443B2C"/>
<path d="M19.2861 31.9195C19.1557 32.1478 18.9146 32.2859 18.6516 32.2859C18.2058 32.2859 17.8634 31.891 17.9265 31.4497L18.7507 25.6798C18.9229 24.4749 17.9879 23.397 16.7708 23.397H14.6324C13.5149 23.397 14.2134 22.4446 14.2388 22.4065C15.8416 19.5736 18.2346 15.3791 21.4179 9.7991C21.5483 9.57065 21.7916 9.42871 22.0546 9.42871C22.5003 9.42871 22.8427 9.82347 22.7796 10.2647L21.9554 16.0348C21.7832 17.2396 22.7182 18.3176 23.9352 18.3176H26.0864C26.5943 18.3176 26.8737 18.5589 26.5943 19.1557C22.4159 26.444 19.9823 30.7011 19.2861 31.9195Z" fill="#443B2C"/>
<path d="M50.5824 35V8.81818H67.3551V12.794H55.3253V19.902H66.2045V23.8778H55.3253V35H50.5824ZM75.3794 8.81818V35H70.7516V8.81818H75.3794ZM87.9837 35.3835C86.066 35.3835 84.4041 34.9616 82.9979 34.1179C81.5916 33.2741 80.5007 32.0937 79.7251 30.5767C78.9581 29.0597 78.5746 27.2869 78.5746 25.2585C78.5746 23.2301 78.9581 21.4531 79.7251 19.9276C80.5007 18.402 81.5916 17.2173 82.9979 16.3736C84.4041 15.5298 86.066 15.108 87.9837 15.108C89.9013 15.108 91.5632 15.5298 92.9694 16.3736C94.3757 17.2173 95.4623 18.402 96.2294 19.9276C97.005 21.4531 97.3927 23.2301 97.3927 25.2585C97.3927 27.2869 97.005 29.0597 96.2294 30.5767C95.4623 32.0937 94.3757 33.2741 92.9694 34.1179C91.5632 34.9616 89.9013 35.3835 87.9837 35.3835ZM88.0092 31.6761C89.049 31.6761 89.9183 31.3906 90.6172 30.8196C91.316 30.2401 91.8359 29.4645 92.1768 28.4929C92.5263 27.5213 92.701 26.4389 92.701 25.2457C92.701 24.044 92.5263 22.9574 92.1768 21.9858C91.8359 21.0057 91.316 20.2259 90.6172 19.6463C89.9183 19.0668 89.049 18.777 88.0092 18.777C86.9439 18.777 86.0575 19.0668 85.3501 19.6463C84.6513 20.2259 84.1271 21.0057 83.7777 21.9858C83.4368 22.9574 83.2663 24.044 83.2663 25.2457C83.2663 26.4389 83.4368 27.5213 83.7777 28.4929C84.1271 29.4645 84.6513 30.2401 85.3501 30.8196C86.0575 31.3906 86.9439 31.6761 88.0092 31.6761ZM104.091 35L98.5424 15.3636H103.26L106.711 29.1705H106.89L110.419 15.3636H115.085L118.613 29.0938H118.805L122.206 15.3636H126.936L121.375 35H116.555L112.873 21.7301H112.605L108.923 35H104.091Z" fill="#443B2C"/>
</svg>
