<svg width="159" height="40" viewBox="0 0 159 40" fill="none" xmlns="http://www.w3.org/2000/svg">
<path d="M61.801 5.72577C61.1021 5.16126 60.215 4.83868 59.1129 4.78491H54.8118C53.5215 4.83868 52.5537 5.18814 51.9623 5.8333C51.3709 6.47846 51.0752 7.20427 51.0752 8.06448V16.2365C51.0752 17.1236 51.5322 17.7957 52.3924 18.1989C53.0914 18.5215 53.7903 18.6828 54.4623 18.6828H58.4139C59.543 18.6828 59.8118 18.8709 59.8387 18.8709C59.8924 18.9247 60.0268 19.0322 60.0268 19.4086V26.8279C60.0268 27.3387 59.9193 27.7419 59.7311 28.0107C59.543 28.2795 59.0591 28.3333 58.7096 28.3333H55.4301C54.4354 28.3333 54.2204 28.0914 54.1935 28.0645C54.0591 27.9032 53.9247 27.5537 53.9247 26.8548V21.6666H51.0483V27.7688C51.0483 28.5484 51.4247 29.2473 52.1774 29.8387C52.8763 30.4032 53.7634 30.7258 54.8655 30.7795H59.1666C60.4569 30.7258 61.4247 30.3763 62.0161 29.7311C62.6075 29.086 62.9032 28.3602 62.9032 27.5V18.629C62.9032 18.1989 62.7419 17.7957 62.4462 17.5C62.2043 17.258 61.9354 17.0161 61.6397 16.8279C61.344 16.6398 60.9946 16.5053 60.6451 16.3978C60.2688 16.2903 59.9731 16.2365 59.7311 16.2365H55.1075C54.3279 16.2365 54.1129 16.129 54.086 16.1559C54.0053 15.9946 53.9516 15.7527 53.9516 15.4301V8.70964C53.9516 8.19889 54.0322 7.76878 54.2204 7.49997C54.3548 7.31179 54.7311 7.20427 55.2688 7.20427H58.5483C59.4892 7.20427 59.7311 7.41932 59.7849 7.49997C59.9731 7.7419 60.0537 8.17201 60.0537 8.73652V13.8709H62.9301V7.79566C62.9301 7.01609 62.5537 6.31717 61.801 5.72577Z" fill="#415765"/>
<path d="M80.8602 5.72577C80.1613 5.16126 79.2742 4.83868 78.172 4.78491H73.8978C72.5806 4.78491 71.6129 5.13437 71.0215 5.80642C70.4301 6.45158 70.1344 7.20427 70.1344 8.06448V27.5C70.1344 28.2795 70.4032 29.0053 70.9677 29.6774C71.5323 30.3494 72.5 30.7258 73.8172 30.7795H78.4946H78.5215C79.6505 30.7258 80.5108 30.4032 81.1021 29.7849C81.6935 29.1666 82.0161 28.4677 82.0161 27.715V7.82255C81.9892 7.01609 81.6129 6.31717 80.8602 5.72577ZM79.1129 8.73652V26.7742C79.1129 27.3387 79.0054 27.7688 78.8441 28.0107C78.7903 28.0914 78.5484 28.3064 77.6075 28.3064H75C73.6828 28.3064 73.3602 28.0376 73.3064 27.9838C73.0914 27.7419 72.9839 27.3387 72.9839 26.801V8.70964C72.9839 8.22577 73.1183 7.87631 73.3602 7.60749C73.629 7.33868 73.9247 7.20427 74.3011 7.20427H77.5806C78.5215 7.20427 78.7634 7.41932 78.8172 7.49997C79.0054 7.7419 79.1129 8.17201 79.1129 8.73652Z" fill="#415765"/>
<path d="M99.8924 5.72577C99.1935 5.16126 98.3064 4.83868 97.2043 4.78491H92.9301C91.7742 4.78491 90.8333 5.10749 90.1612 5.77953C89.4892 6.45158 89.1666 7.20427 89.1666 8.06448V27.5C89.1666 28.2795 89.4354 29.0053 90 29.6774C90.5645 30.3494 91.5053 30.7258 92.8494 30.7795H97.5268C98.6559 30.7258 99.5161 30.4032 100.134 29.7849C100.726 29.1666 101.048 28.4677 101.048 27.715V21.6666H98.172V26.801C98.172 27.3656 98.0645 27.7957 97.9032 28.0376C97.8494 28.1182 97.6075 28.3333 96.6666 28.3333H94.1666C92.9032 28.3333 92.5268 28.0914 92.4193 27.9838C92.1774 27.7419 92.0698 27.3387 92.0698 26.8279V8.70964C92.0698 8.22577 92.2043 7.87631 92.4462 7.60749C92.715 7.33868 93.0107 7.20427 93.3871 7.20427H96.6666C97.6612 7.20427 97.8763 7.4462 97.9032 7.47308C98.0376 7.63437 98.172 7.98384 98.172 8.68276V13.8441H101.048V7.79566C101.021 7.01609 100.645 6.31717 99.8924 5.72577Z" fill="#415765"/>
<path d="M120.591 4.78491H117.419L111.075 15.9139V4.78491H108.226V30.7527H111.075V21.1021L112.634 18.5215L117.661 30.7527H120.672L114.516 15.5914L120.591 4.78491Z" fill="#415765"/>
<path d="M127.554 30.7527H139.462V28.3064H130.43V18.6021H138.441V16.1828H130.43V7.20427H139.462V4.78491H127.554V30.7527Z" fill="#415765"/>
<path d="M146.64 4.78491V7.20427H151.156V30.7527H154.086V7.20427H158.602V4.78491H146.64Z" fill="#415765"/>
<path d="M15.6183 11.8818C15.6183 10.5377 14.5162 9.43555 13.1721 9.43555C11.828 9.43555 10.7258 10.5377 10.7258 11.8818C10.7258 13.2259 11.828 14.328 13.1721 14.328C14.5162 14.328 15.6183 13.2259 15.6183 11.8818Z" fill="#415765"/>
<path d="M29.5161 11.8818C29.5161 10.5377 28.414 9.43555 27.0699 9.43555C25.7258 9.43555 24.6237 10.5377 24.6237 11.8818C24.6237 13.2259 25.7258 14.328 27.0699 14.328C28.414 14.328 29.5161 13.2259 29.5161 11.8818Z" fill="#415765"/>
<path d="M39.4893 36.9086H36.6398V34.6774H39.4893C40 34.6774 40.4032 34.2742 40.4032 33.7634C40.4032 33.2527 40 32.8495 39.4893 32.8495H36.6398V32.5269C36.6398 32.0161 36.2366 31.6129 35.7258 31.6129C33.4409 31.6129 31.8011 32.6344 31.2097 34.328C31.129 34.3011 31.0484 34.2742 30.9409 34.2742H3.06452V3.06452H36.7473V24.5699C36.7473 25.4032 37.4462 26.1022 38.2796 26.1022C39.1129 26.1022 39.8118 25.4301 39.8118 24.5699V1.53226C39.8118 0.698924 39.1129 0 38.2796 0H1.53226C0.698925 0 0 0.672043 0 1.53226V35.8065C0 36.6398 0.672043 37.3387 1.53226 37.3387H30.9409C31.0215 37.3387 31.1022 37.3118 31.1828 37.2849C31.8548 39.2473 33.8441 40 35.7258 40C36.2366 40 36.6398 39.5968 36.6398 39.086V38.7634H39.4893C40 38.7634 40.4032 38.3602 40.4032 37.8495C40.4032 37.3387 40 36.9086 39.4893 36.9086ZM34.8118 38.0914C33.8172 37.9032 32.7688 37.3387 32.7688 35.8065C32.7688 34.2473 33.8172 33.7097 34.8118 33.5215V38.0914Z" fill="#415765"/>
<path d="M20.5645 25.6452C17.8494 25.6452 15.6183 25.242 15.4838 25.242C14.5699 25.0807 13.9785 24.2205 14.1398 23.3065C14.301 22.3925 15.1344 21.8012 16.0752 21.9624C16.129 21.9624 20.6989 22.7689 24.2742 21.9624C25.1881 21.7743 26.0752 22.3388 26.2634 23.2259C26.4516 24.1399 25.8871 25.027 25 25.2151C23.5215 25.5377 21.9892 25.6452 20.5645 25.6452Z" fill="#415765"/>
</svg>
