<svg width="41" height="40" viewBox="0 0 41 40" fill="none" xmlns="http://www.w3.org/2000/svg">
<path d="M15.619 11.8817C15.619 10.5376 14.5169 9.43542 13.1728 9.43542C11.8287 9.43542 10.7266 10.5376 10.7266 11.8817C10.7266 13.2257 11.8287 14.3279 13.1728 14.3279C14.5169 14.3279 15.619 13.2257 15.619 11.8817Z" fill="#212528"/>
<path d="M29.5155 11.8817C29.5155 10.5376 28.4134 9.43542 27.0693 9.43542C25.7252 9.43542 24.623 10.5376 24.623 11.8817C24.623 13.2257 25.7252 14.3279 27.0693 14.3279C28.4134 14.3279 29.5155 13.2257 29.5155 11.8817Z" fill="#212528"/>
<path d="M39.4893 36.9086H36.6398V34.6774H39.4893C40 34.6774 40.4032 34.2742 40.4032 33.7634C40.4032 33.2527 40 32.8495 39.4893 32.8495H36.6398V32.5269C36.6398 32.0161 36.2366 31.6129 35.7258 31.6129C33.4409 31.6129 31.8011 32.6344 31.2097 34.328C31.129 34.3011 31.0484 34.2742 30.9409 34.2742H3.06452V3.06452H36.7473V24.5699C36.7473 25.4032 37.4462 26.1022 38.2796 26.1022C39.1129 26.1022 39.8118 25.4301 39.8118 24.5699V1.53226C39.8118 0.698924 39.1129 0 38.2796 0H1.53226C0.698925 0 0 0.672043 0 1.53226V35.8065C0 36.6398 0.672043 37.3387 1.53226 37.3387H30.9409C31.0215 37.3387 31.1022 37.3118 31.1828 37.2849C31.8548 39.2473 33.8441 40 35.7258 40C36.2366 40 36.6398 39.5968 36.6398 39.086V38.7634H39.4893C40 38.7634 40.4032 38.3602 40.4032 37.8495C40.4032 37.3387 40 36.9086 39.4893 36.9086ZM34.8118 38.0914C33.8172 37.9032 32.7688 37.3387 32.7688 35.8065C32.7688 34.2473 33.8172 33.7097 34.8118 33.5215V38.0914Z" fill="#212528"/>
<path d="M20.5645 25.6452C17.8494 25.6452 15.6183 25.242 15.4838 25.242C14.5699 25.0807 13.9785 24.2205 14.1398 23.3065C14.301 22.3925 15.1344 21.8012 16.0752 21.9624C16.129 21.9624 20.6989 22.7689 24.2742 21.9624C25.1881 21.7743 26.0752 22.3388 26.2634 23.2259C26.4516 24.1399 25.8871 25.027 25 25.2151C23.5215 25.5377 21.9892 25.6452 20.5645 25.6452Z" fill="#212528"/>
</svg>
