<svg width="48" height="48" viewBox="0 0 48 48" fill="none" xmlns="http://www.w3.org/2000/svg">
<path d="M43.975 42.8675H41.0492V40.4005H43.975C44.4994 40.4005 44.9135 39.9546 44.9135 39.3899C44.9135 38.8251 44.4994 38.3793 43.975 38.3793H41.0492V38.0226C41.0492 37.4578 40.6351 37.012 40.1107 37.012C37.7645 37.012 36.0808 38.1415 35.4736 40.014C35.3908 39.9843 35.308 39.9546 35.1976 39.9546H6.57436V5.44561H41.1596V29.2244C41.1596 30.1458 41.8772 30.9187 42.7329 30.9187C43.5886 30.9187 44.3062 30.1756 44.3062 29.2244V3.75137C44.3062 2.82994 43.5886 2.05713 42.7329 2.05713H5.00105C4.14539 2.05713 3.42773 2.80022 3.42773 3.75137V41.6488C3.42773 42.5703 4.11778 43.3431 5.00105 43.3431H35.1976C35.2804 43.3431 35.3632 43.3134 35.446 43.2836C36.136 45.4534 38.1786 46.2857 40.1107 46.2857C40.6351 46.2857 41.0492 45.8399 41.0492 45.2751V44.9184H43.975C44.4994 44.9184 44.9135 44.4726 44.9135 43.9078C44.9135 43.3431 44.4994 42.8675 43.975 42.8675Z" fill="black"/>
<path fill-rule="evenodd" clip-rule="evenodd" d="M13.3714 34.6287C12.614 34.6287 12 34.0147 12 33.2572V12.0001C12 11.2427 12.614 10.6287 13.3714 10.6287H34.6286C35.386 10.6287 36 11.2427 36 12.0001V33.2572C36 34.0147 35.386 34.6287 34.6286 34.6287H13.3714ZM15.2571 17.8287C14.5944 17.8287 14.0571 17.2914 14.0571 16.6287V13.8858C14.0571 13.2231 14.5944 12.6858 15.2571 12.6858H21.7714C22.4342 12.6858 22.9714 13.2231 22.9714 13.8858V16.6287C22.9714 17.2914 22.4342 17.8287 21.7714 17.8287H15.2571ZM22.9714 21.0858C22.9714 20.4231 22.4342 19.8858 21.7714 19.8858H15.2571C14.5944 19.8858 14.0571 20.4231 14.0571 21.0858V23.8287C14.0571 24.4914 14.5944 25.0287 15.2571 25.0287H21.7714C22.4342 25.0287 22.9714 24.4914 22.9714 23.8287V21.0858ZM26.2286 25.0287C25.5658 25.0287 25.0286 24.4914 25.0286 23.8287V21.0858C25.0286 20.4231 25.5658 19.8858 26.2286 19.8858H32.7429C33.4056 19.8858 33.9429 20.4231 33.9429 21.0858V23.8287C33.9429 24.4914 33.4056 25.0287 32.7429 25.0287H26.2286ZM22.9714 28.2858C22.9714 27.6231 22.4342 27.0858 21.7714 27.0858H15.2571C14.5944 27.0858 14.0571 27.6231 14.0571 28.2858V31.3715C14.0571 32.0343 14.5944 32.5715 15.2571 32.5715H21.7714C22.4342 32.5715 22.9714 32.0343 22.9714 31.3715V28.2858ZM26.2286 32.5715C25.5658 32.5715 25.0286 32.0343 25.0286 31.3715V28.2858C25.0286 27.6231 25.5658 27.0858 26.2286 27.0858H32.7429C33.4056 27.0858 33.9429 27.6231 33.9429 28.2858V31.3715C33.9429 32.0343 33.4056 32.5715 32.7429 32.5715H26.2286ZM25.0286 13.8858C25.0286 13.2231 25.5658 12.6858 26.2286 12.6858H32.7429C33.4056 12.6858 33.9429 13.2231 33.9429 13.8858V16.6287C33.9429 17.2914 33.4056 17.8287 32.7429 17.8287H26.2286C25.5658 17.8287 25.0286 17.2914 25.0286 16.6287V13.8858Z" fill="black"/>
</svg>
