<svg width="141" height="44" viewBox="0 0 141 44" fill="none" xmlns="http://www.w3.org/2000/svg">
<path d="M36.6468 37.723H34.2086V35.6671H36.6468C37.0838 35.6671 37.4289 35.2956 37.4289 34.825C37.4289 34.3543 37.0838 33.9828 36.6468 33.9828H34.2086V33.6856C34.2086 33.2149 33.8636 32.8434 33.4266 32.8434C31.4714 32.8434 30.0683 33.7846 29.5623 35.3451C29.4933 35.3204 29.4243 35.2956 29.3323 35.2956H5.47961V6.53809H34.3006V26.3538C34.3006 27.1216 34.8987 27.7656 35.6117 27.7656C36.3248 27.7656 36.9228 27.1464 36.9228 26.3538V5.12622C36.9228 4.35836 36.3248 3.71436 35.6117 3.71436H4.16851C3.45546 3.71436 2.85742 4.33359 2.85742 5.12622V36.7074C2.85742 37.4753 3.43246 38.1193 4.16851 38.1193H29.3323C29.4013 38.1193 29.4703 38.0945 29.5393 38.0698C30.1143 39.878 31.8165 40.5715 33.4266 40.5715C33.8636 40.5715 34.2086 40.2 34.2086 39.7293V39.4321H36.6468C37.0838 39.4321 37.4289 39.0606 37.4289 38.5899C37.4289 38.1193 37.0838 37.723 36.6468 37.723Z" fill="#443B2C"/>
<path fill-rule="evenodd" clip-rule="evenodd" d="M11.1429 30.8569C10.5117 30.8569 10 30.3453 10 29.7141V11.9998C10 11.3686 10.5117 10.8569 11.1429 10.8569H28.8571C29.4883 10.8569 30 11.3686 30 11.9998V29.7141C30 30.3453 29.4883 30.8569 28.8571 30.8569H11.1429ZM13.7143 16.8569C12.6097 16.8569 11.7143 15.9615 11.7143 14.8569V14.5712C11.7143 13.4667 12.6097 12.5712 13.7143 12.5712H17.1429C18.2474 12.5712 19.1429 13.4667 19.1429 14.5712V14.8569C19.1429 15.9615 18.2474 16.8569 17.1429 16.8569H13.7143ZM19.1429 20.5712C19.1429 19.4667 18.2474 18.5712 17.1429 18.5712H13.7143C12.6097 18.5712 11.7143 19.4667 11.7143 20.5712V20.8569C11.7143 21.9615 12.6097 22.8569 13.7143 22.8569H17.1429C18.2474 22.8569 19.1429 21.9615 19.1429 20.8569V20.5712ZM22.8571 22.8569C21.7526 22.8569 20.8571 21.9615 20.8571 20.8569V20.5712C20.8571 19.4667 21.7526 18.5712 22.8571 18.5712H26.2857C27.3903 18.5712 28.2857 19.4667 28.2857 20.5712V20.8569C28.2857 21.9615 27.3903 22.8569 26.2857 22.8569H22.8571ZM19.1429 26.5712C19.1429 25.4667 18.2474 24.5712 17.1429 24.5712H13.7143C12.6097 24.5712 11.7143 25.4667 11.7143 26.5712V27.1426C11.7143 28.2472 12.6097 29.1426 13.7143 29.1426H17.1429C18.2474 29.1426 19.1429 28.2472 19.1429 27.1426V26.5712ZM22.8571 29.1426C21.7526 29.1426 20.8571 28.2472 20.8571 27.1426V26.5712C20.8571 25.4667 21.7526 24.5712 22.8571 24.5712H26.2857C27.3903 24.5712 28.2857 25.4667 28.2857 26.5712V27.1426C28.2857 28.2472 27.3903 29.1426 26.2857 29.1426H22.8571ZM20.8571 14.5712C20.8571 13.4667 21.7526 12.5712 22.8571 12.5712H26.2857C27.3903 12.5712 28.2857 13.4667 28.2857 14.5712V14.8569C28.2857 15.9615 27.3903 16.8569 26.2857 16.8569H22.8571C21.7526 16.8569 20.8571 15.9615 20.8571 14.8569V14.5712Z" fill="#443B2C"/>
<path d="M49.4318 12.794V8.81818H70.321V12.794H62.2287V35H57.5241V12.794H49.4318ZM76.4022 35.3963C75.1578 35.3963 74.0371 35.1747 73.0399 34.7315C72.0513 34.2798 71.2672 33.6151 70.6877 32.7372C70.1166 31.8594 69.8311 30.777 69.8311 29.4901C69.8311 28.3821 70.0357 27.4659 70.4448 26.7415C70.8539 26.017 71.4121 25.4375 72.1195 25.0028C72.8269 24.5682 73.6238 24.2401 74.5101 24.0185C75.405 23.7884 76.3297 23.6222 77.2843 23.5199C78.4348 23.4006 79.3681 23.294 80.084 23.2003C80.7999 23.098 81.3198 22.9446 81.6436 22.7401C81.976 22.527 82.1422 22.1989 82.1422 21.7557V21.679C82.1422 20.7159 81.8567 19.9702 81.2857 19.4418C80.7147 18.9134 79.8922 18.6491 78.8184 18.6491C77.6848 18.6491 76.7857 18.8963 76.1209 19.3906C75.4647 19.8849 75.0215 20.4687 74.7914 21.142L70.4703 20.5284C70.8113 19.3352 71.3738 18.3381 72.1578 17.5369C72.9419 16.7273 73.9007 16.1222 75.0343 15.7216C76.1678 15.3125 77.4206 15.108 78.7928 15.108C79.7388 15.108 80.6806 15.2188 81.6181 15.4403C82.5556 15.6619 83.4121 16.0284 84.1877 16.5398C84.9632 17.0426 85.5854 17.7287 86.0541 18.598C86.5314 19.4673 86.7701 20.554 86.7701 21.858V35H82.3212V32.3026H82.1678C81.8865 32.848 81.4902 33.3594 80.9789 33.8366C80.476 34.3054 79.8411 34.6847 79.074 34.9744C78.3155 35.2557 77.4249 35.3963 76.4022 35.3963ZM77.6039 31.9957C78.5328 31.9957 79.3382 31.8125 80.0201 31.446C80.7019 31.071 81.226 30.5767 81.5925 29.9631C81.9675 29.3494 82.155 28.6804 82.155 27.956V25.642C82.0101 25.7614 81.763 25.8722 81.4135 25.9744C81.0726 26.0767 80.6891 26.1662 80.263 26.2429C79.8368 26.3196 79.4149 26.3878 78.9973 26.4474C78.5797 26.5071 78.2175 26.5582 77.9107 26.6009C77.2203 26.6946 76.6024 26.848 76.057 27.0611C75.5115 27.2741 75.0811 27.5724 74.7658 27.956C74.4505 28.331 74.2928 28.8168 74.2928 29.4134C74.2928 30.2656 74.6039 30.9091 75.226 31.3438C75.8482 31.7784 76.6408 31.9957 77.6039 31.9957ZM90.908 35V8.81818H95.5359V18.6108H95.7276C95.9663 18.1335 96.3029 17.6264 96.7376 17.0895C97.1722 16.544 97.7603 16.0795 98.5018 15.696C99.2432 15.304 100.189 15.108 101.34 15.108C102.857 15.108 104.225 15.4957 105.444 16.2713C106.671 17.0384 107.642 18.1761 108.358 19.6847C109.083 21.1847 109.445 23.0256 109.445 25.2074C109.445 27.3636 109.091 29.196 108.384 30.7045C107.676 32.2131 106.713 33.3636 105.495 34.1562C104.276 34.9489 102.895 35.3452 101.353 35.3452C100.228 35.3452 99.2944 35.1577 98.5529 34.7827C97.8114 34.4077 97.2148 33.956 96.7631 33.4276C96.3199 32.8906 95.9748 32.3835 95.7276 31.9062H95.4591V35H90.908ZM95.4464 25.1818C95.4464 26.4517 95.6253 27.5639 95.9833 28.5185C96.3498 29.473 96.8739 30.2187 97.5557 30.7557C98.2461 31.2841 99.0813 31.5483 100.061 31.5483C101.084 31.5483 101.941 31.2756 102.631 30.7301C103.321 30.1761 103.841 29.4219 104.191 28.4673C104.549 27.5043 104.728 26.4091 104.728 25.1818C104.728 23.9631 104.553 22.8807 104.203 21.9347C103.854 20.9886 103.334 20.2472 102.644 19.7102C101.953 19.1733 101.093 18.9048 100.061 18.9048C99.0728 18.9048 98.2333 19.1648 97.543 19.6847C96.8526 20.2045 96.3285 20.9332 95.9705 21.8707C95.6211 22.8082 95.4464 23.9119 95.4464 25.1818ZM117.287 8.81818V35H112.659V8.81818H117.287ZM130.019 35.3835C128.05 35.3835 126.35 34.9744 124.918 34.1562C123.495 33.3295 122.4 32.1619 121.633 30.6534C120.866 29.1364 120.482 27.3509 120.482 25.2969C120.482 23.277 120.866 21.5043 121.633 19.9787C122.408 18.4446 123.491 17.2514 124.88 16.3991C126.269 15.5384 127.901 15.108 129.776 15.108C130.986 15.108 132.129 15.304 133.202 15.696C134.285 16.0795 135.239 16.6761 136.066 17.4858C136.901 18.2955 137.558 19.3267 138.035 20.5795C138.512 21.8239 138.751 23.3068 138.751 25.0284V26.4474H122.656V23.3281H134.315C134.306 22.4418 134.114 21.6534 133.739 20.9631C133.364 20.2642 132.84 19.7145 132.167 19.3139C131.502 18.9134 130.727 18.7131 129.84 18.7131C128.894 18.7131 128.063 18.9432 127.347 19.4034C126.631 19.8551 126.073 20.4517 125.673 21.1932C125.281 21.9261 125.08 22.7315 125.072 23.6094V26.3324C125.072 27.4744 125.281 28.4545 125.698 29.2727C126.116 30.0824 126.7 30.7045 127.45 31.1392C128.2 31.5653 129.077 31.7784 130.083 31.7784C130.756 31.7784 131.366 31.6847 131.911 31.4972C132.457 31.3011 132.93 31.0156 133.33 30.6406C133.731 30.2656 134.033 29.8011 134.238 29.2472L138.559 29.733C138.286 30.875 137.766 31.8722 136.999 32.7244C136.241 33.5682 135.269 34.2244 134.084 34.6932C132.9 35.1534 131.545 35.3835 130.019 35.3835Z" fill="#443B2C"/>
</svg>
