<svg width="98" height="22" viewBox="0 0 98 22" fill="none" xmlns="http://www.w3.org/2000/svg">
<path fill-rule="evenodd" clip-rule="evenodd" d="M18.5843 3.28722C18.4521 2.92899 18.2261 2.61289 17.9298 2.37204C17.6335 2.13118 17.2779 1.97444 16.9003 1.91822L7.68627 0.541223C7.31114 0.484994 6.92775 0.537099 6.58122 0.691404C6.2347 0.84571 5.93947 1.09579 5.73027 1.41222L0.268274 9.65822C0.0949905 9.92119 0.00180105 10.2288 2.58433e-05 10.5437C-0.00174936 10.8587 0.0879661 11.1673 0.258274 11.4322L4.69427 18.2902C5.05242 18.8446 5.60082 19.249 6.23627 19.4272L15.1663 21.9462C15.4838 22.0359 15.8225 22.0129 16.1249 21.8811C16.4274 21.7493 16.6748 21.5168 16.8253 21.2232L21.2063 12.6762C21.3613 12.3734 21.4518 12.0417 21.4721 11.7021C21.4925 11.3625 21.4421 11.0224 21.3243 10.7032L18.5843 3.28722Z" fill="#DC281E"/>
<path fill-rule="evenodd" clip-rule="evenodd" d="M14.1856 5.10708C14.7126 5.19708 14.8316 5.77808 14.4426 6.40708C14.292 6.65491 14.0913 6.86851 13.8533 7.03418C13.6153 7.19985 13.3452 7.31393 13.0606 7.36908L10.5936 9.74908C10.5316 10.5311 9.49955 11.4961 8.72455 11.3281C7.84655 11.1381 8.42455 9.99208 8.87155 9.57408L8.70155 8.21608C8.6039 8.23597 8.5031 8.23447 8.40609 8.21168C8.30907 8.18889 8.21814 8.14536 8.13955 8.08408L6.18555 9.17908C5.95355 9.78608 5.13255 10.5441 4.45755 10.3981C3.97855 10.2981 3.90055 9.72408 4.28155 9.12108C4.44737 8.8615 4.66489 8.63887 4.92055 8.46708L5.32055 6.84908L5.26255 6.84008C4.78555 6.74808 4.70555 6.19308 5.08155 5.60108C5.27445 5.30038 5.53638 5.0501 5.84555 4.87108L6.28555 3.38608C5.92855 3.23608 5.87755 2.77508 6.22955 2.22008C6.38761 1.9501 6.61084 1.72405 6.87883 1.56263C7.14681 1.40121 7.451 1.30957 7.76355 1.29608C8.24255 1.37008 8.33555 1.90908 7.96355 2.49608C7.78388 2.7751 7.54487 3.01104 7.26355 3.18708L6.80855 4.74608C7.12955 4.92408 7.15055 5.40808 6.82455 5.92308C6.69228 6.13044 6.52672 6.31457 6.33455 6.46808L5.89655 8.22308C5.93361 8.23367 5.96947 8.24808 6.00355 8.26608L8.11655 7.08008C8.14122 7.03208 8.16889 6.98341 8.19955 6.93408C8.35886 6.65013 8.59124 6.41397 8.87257 6.25009C9.15391 6.08622 9.47397 6.00058 9.79955 6.00208C10.2996 6.09408 10.4046 6.66508 10.0196 7.27808C9.89122 7.48065 9.73118 7.66128 9.54555 7.81308C9.60089 8.23908 9.65589 8.66541 9.71055 9.09208C9.81722 9.06439 9.92751 9.05326 10.0376 9.05908L12.3196 6.85908C12.305 6.57655 12.3848 6.2972 12.5466 6.06508C12.7105 5.77461 12.9486 5.53286 13.2366 5.36455C13.5245 5.19624 13.852 5.10739 14.1856 5.10708ZM18.3656 6.43908C18.6046 5.93908 18.9586 6.03908 19.1546 6.65808C19.3444 7.30477 19.3216 7.99532 19.0896 8.62808C18.8606 9.12308 18.5126 9.05508 18.3096 8.46408C18.103 7.80157 18.1227 7.08917 18.3656 6.43908ZM19.0846 11.7391C19.3066 11.2481 19.6306 11.2891 19.8086 11.8151C19.979 12.4027 19.9544 13.0296 19.7386 13.6021C19.5256 14.0831 19.2066 14.0761 19.0226 13.5721C18.8379 12.9712 18.8601 12.3258 19.0856 11.7391H19.0846ZM17.2726 11.3391C17.5156 10.8181 17.8806 10.8671 18.0876 11.4301C18.2877 12.0507 18.2697 12.7211 18.0366 13.3301C17.8046 13.8401 17.4456 13.8301 17.2316 13.2911C17.0136 12.6561 17.0281 11.9644 17.2726 11.3391ZM17.1116 16.0971C17.3476 15.5761 17.7036 15.5701 17.9116 16.0661C18.1065 16.6478 18.0895 17.2797 17.8636 17.8501C17.6386 18.3581 17.2886 18.3991 17.0786 17.9271C16.8694 17.3354 16.8839 16.6877 17.1196 16.1061L17.1116 16.0971ZM15.1766 14.6221C15.4366 14.0681 15.8426 14.0801 16.0766 14.6291C16.3073 15.2538 16.298 15.9418 16.0506 16.5601C15.8026 17.1001 15.4056 17.1271 15.1596 16.6071C14.9126 15.9702 14.9201 15.2626 15.1806 14.6311L15.1766 14.6221ZM13.1546 12.4861C13.4426 11.8991 13.9026 11.9391 14.1826 12.5551C14.4536 13.2288 14.4536 13.9813 14.1826 14.6551C13.9096 15.2261 13.4586 15.2301 13.1706 14.6481C13.0235 14.3069 12.9464 13.9397 12.9436 13.5682C12.9409 13.1967 13.0126 12.8284 13.1546 12.4851V12.4861ZM11.2546 16.0641C11.8937 16.2769 12.4364 16.71 12.7856 17.2861C13.0556 17.7951 12.8136 18.0691 12.2596 17.9101C11.6425 17.6967 11.1169 17.2789 10.7696 16.7261C10.4856 16.2151 10.6936 15.9131 11.2556 16.0631L11.2546 16.0641ZM11.6546 18.9981C12.2345 19.2034 12.73 19.5952 13.0636 20.1121C13.3106 20.5551 13.0856 20.7731 12.5736 20.6121C12.0129 20.4068 11.5321 20.0286 11.2006 19.5321C10.9396 19.0871 11.1336 18.8441 11.6546 19.0021V18.9981ZM8.40055 16.3261C8.99317 16.5373 9.49987 16.9375 9.84255 17.4651C10.1206 17.9371 9.93355 18.1921 9.43455 18.0421C8.8634 17.83 8.37356 17.4433 8.03455 16.9371C7.74155 16.4621 7.89755 16.1841 8.40255 16.3261H8.40055ZM7.42355 17.7041C7.9714 17.9105 8.44264 18.2801 8.77355 18.7631C9.04255 19.1931 8.88055 19.4151 8.42155 19.2631C7.89189 19.0593 7.43411 18.7038 7.10555 18.2411C6.82455 17.8081 6.95955 17.5631 7.42355 17.7051V17.7041ZM4.54455 14.8041C5.11383 15.017 5.60299 15.4013 5.94455 15.9041C6.24455 16.3721 6.11455 16.6361 5.65755 16.5041C5.10551 16.2914 4.62976 15.9184 4.29155 15.4331C3.97655 14.9621 4.08155 14.6751 4.54255 14.8031L4.54455 14.8041ZM1.82255 11.7861C2.42133 12.0076 2.93384 12.4143 3.28555 12.9471C3.62155 13.4591 3.51655 13.7691 3.06155 13.6471C2.48399 13.4268 1.98726 13.0358 1.63755 12.5261C1.28755 12.0121 1.36155 11.6771 1.81955 11.7891L1.82255 11.7861Z" fill="white"/>
<path d="M28.2303 16.5192L24.9007 4.88286H27.5882L29.5144 12.9681H29.611L31.736 4.88286H34.0371L36.1564 12.9851H36.2587L38.1848 4.88286H40.8723L37.5428 16.5192H35.1451L32.9292 8.91127H32.8382L30.628 16.5192H28.2303ZM43.6948 16.684C43.138 16.684 42.6417 16.5874 42.2061 16.3942C41.7705 16.1973 41.4258 15.9075 41.1721 15.5249C40.9221 15.1385 40.7971 14.6575 40.7971 14.0817C40.7971 13.5969 40.8861 13.1897 41.0641 12.8601C41.2421 12.5306 41.4846 12.2654 41.7914 12.0647C42.0982 11.8639 42.4467 11.7124 42.8368 11.6101C43.2308 11.5079 43.6436 11.4359 44.0755 11.3942C44.583 11.3412 44.9921 11.292 45.3027 11.2465C45.6133 11.1973 45.8387 11.1253 45.9789 11.0306C46.119 10.9359 46.1891 10.7957 46.1891 10.6101V10.576C46.1891 10.2162 46.0755 9.93779 45.8482 9.74082C45.6247 9.54385 45.3065 9.44536 44.8936 9.44536C44.458 9.44536 44.1114 9.54195 43.8539 9.73514C43.5963 9.92453 43.4258 10.1632 43.3425 10.451L41.1039 10.2692C41.2175 9.73892 41.441 9.28059 41.7743 8.89423C42.1077 8.50407 42.5376 8.20483 43.0641 7.9965C43.5944 7.78438 44.208 7.67832 44.905 7.67832C45.3899 7.67832 45.8539 7.73514 46.2971 7.84877C46.744 7.96241 47.1399 8.13854 47.4846 8.37718C47.833 8.61582 48.1077 8.92264 48.3084 9.29764C48.5092 9.66885 48.6096 10.1139 48.6096 10.6329V16.5192H46.3141V15.309H46.2459C46.1058 15.5817 45.9183 15.8223 45.6834 16.0306C45.4486 16.2351 45.1664 16.3961 44.8368 16.5135C44.5073 16.6272 44.1266 16.684 43.6948 16.684ZM44.388 15.0135C44.744 15.0135 45.0584 14.9435 45.3311 14.8033C45.6039 14.6594 45.8179 14.4662 45.9732 14.2238C46.1285 13.9813 46.2061 13.7067 46.2061 13.3999V12.4738C46.1304 12.523 46.0262 12.5685 45.8936 12.6101C45.7649 12.648 45.619 12.684 45.4561 12.7181C45.2933 12.7484 45.1304 12.7768 44.9675 12.8033C44.8046 12.826 44.6569 12.8469 44.5243 12.8658C44.2402 12.9075 43.9921 12.9738 43.78 13.0647C43.5679 13.1556 43.4031 13.2787 43.2857 13.434C43.1683 13.5855 43.1096 13.7749 43.1096 14.0022C43.1096 14.3317 43.2289 14.5836 43.4675 14.7579C43.7099 14.9283 44.0167 15.0135 44.388 15.0135ZM52.9078 4.88286V16.5192H50.4874V4.88286H52.9078ZM57.04 14.0079L57.0456 11.1045H57.3979L60.1934 7.79195H62.9718L59.2161 12.1783H58.6422L57.04 14.0079ZM54.8468 16.5192V4.88286H57.2672V16.5192H54.8468ZM60.3013 16.5192L57.7331 12.7181L59.3468 11.0079L63.1365 16.5192H60.3013ZM67.7431 16.6897C66.8605 16.6897 66.0972 16.5022 65.4533 16.1272C64.8132 15.7484 64.3188 15.2219 63.9703 14.5476C63.6219 13.8696 63.4476 13.0836 63.4476 12.1897C63.4476 11.2882 63.6219 10.5003 63.9703 9.82604C64.3188 9.14801 64.8132 8.6215 65.4533 8.2465C66.0972 7.86771 66.8605 7.67832 67.7431 7.67832C68.6257 7.67832 69.387 7.86771 70.0272 8.2465C70.6711 8.6215 71.1673 9.14801 71.5158 9.82604C71.8643 10.5003 72.0385 11.2882 72.0385 12.1897C72.0385 13.0836 71.8643 13.8696 71.5158 14.5476C71.1673 15.2219 70.6711 15.7484 70.0272 16.1272C69.387 16.5022 68.6257 16.6897 67.7431 16.6897ZM67.7544 14.8147C68.156 14.8147 68.4912 14.701 68.7601 14.4738C69.0291 14.2427 69.2317 13.9283 69.3681 13.5306C69.5082 13.1329 69.5783 12.6802 69.5783 12.1726C69.5783 11.6651 69.5082 11.2124 69.3681 10.8147C69.2317 10.417 69.0291 10.1026 68.7601 9.8715C68.4912 9.64044 68.156 9.52491 67.7544 9.52491C67.3491 9.52491 67.0082 9.64044 66.7317 9.8715C66.459 10.1026 66.2525 10.417 66.1124 10.8147C65.976 11.2124 65.9078 11.6651 65.9078 12.1726C65.9078 12.6802 65.976 13.1329 66.1124 13.5306C66.2525 13.9283 66.459 14.2427 66.7317 14.4738C67.0082 14.701 67.3491 14.8147 67.7544 14.8147ZM81.4675 7.79195L78.4164 16.5192H75.6891L72.638 7.79195H75.1948L77.0073 14.0363H77.0982L78.905 7.79195H81.4675ZM86.4022 16.6897C85.5044 16.6897 84.7317 16.5079 84.084 16.1442C83.44 15.7768 82.9438 15.2579 82.5953 14.5874C82.2469 13.9132 82.0726 13.1158 82.0726 12.1954C82.0726 11.2976 82.2469 10.5098 82.5953 9.83173C82.9438 9.1537 83.4344 8.62529 84.0669 8.2465C84.7033 7.86771 85.4495 7.67832 86.3056 7.67832C86.8813 7.67832 87.4173 7.77112 87.9135 7.95673C88.4135 8.13854 88.8491 8.41317 89.2203 8.78059C89.5953 9.14801 89.887 9.61014 90.0953 10.167C90.3037 10.72 90.4078 11.3677 90.4078 12.1101V12.7749H83.0385V11.2749H88.1294C88.1294 10.9264 88.0537 10.6177 87.9022 10.3488C87.7507 10.0798 87.5404 9.8696 87.2715 9.71809C87.0063 9.56279 86.6976 9.48514 86.3453 9.48514C85.9779 9.48514 85.6522 9.57036 85.3681 9.74082C85.0878 9.90748 84.8681 10.1329 84.709 10.417C84.5499 10.6973 84.4685 11.0098 84.4647 11.3545V12.7806C84.4647 13.2124 84.5442 13.5855 84.7033 13.8999C84.8662 14.2143 85.0953 14.4567 85.3908 14.6272C85.6863 14.7976 86.0366 14.8829 86.4419 14.8829C86.7109 14.8829 86.9571 14.845 87.1806 14.7692C87.4041 14.6935 87.5953 14.5798 87.7544 14.4283C87.9135 14.2768 88.0347 14.0912 88.1181 13.8715L90.3567 14.0192C90.2431 14.5571 90.0101 15.0268 89.6578 15.4283C89.3094 15.826 88.8586 16.1367 88.3056 16.3601C87.7563 16.5798 87.1219 16.6897 86.4022 16.6897ZM91.9874 16.5192V7.79195H94.334V9.31468H94.4249C94.584 8.77301 94.851 8.36392 95.226 8.08741C95.601 7.8071 96.0328 7.66695 96.5215 7.66695C96.6427 7.66695 96.7734 7.67453 96.9135 7.68968C97.0537 7.70483 97.1768 7.72567 97.2828 7.75218V9.89991C97.1692 9.86582 97.012 9.83551 96.8113 9.809C96.6105 9.78248 96.4268 9.76923 96.2601 9.76923C95.9041 9.76923 95.5859 9.84688 95.3056 10.0022C95.0291 10.1537 94.8094 10.3658 94.6465 10.6385C94.4874 10.9113 94.4078 11.2257 94.4078 11.5817V16.5192H91.9874Z" fill="#111111"/>
</svg>
