<svg width="21" height="20" viewBox="0 0 21 20" fill="none" xmlns="http://www.w3.org/2000/svg">
<path d="M4.50055 20H0.354523V6.64702H4.50055V20ZM2.42104 4.8262C1.94412 4.82777 1.47743 4.68798 1.0799 4.42449C0.682376 4.16099 0.371842 3.78561 0.187515 3.34575C0.00318862 2.90588 -0.0466633 2.42126 0.0442548 1.95309C0.135173 1.48491 0.362783 1.05417 0.698343 0.715265C1.0339 0.376361 1.46236 0.14449 1.92962 0.0489332C2.39687 -0.0466234 2.88196 -0.00157997 3.32363 0.178375C3.7653 0.358331 4.14374 0.665127 4.41117 1.06002C4.67859 1.45492 4.823 1.9202 4.82616 2.39711C4.82829 3.03785 4.57634 3.65331 4.12552 4.10862C3.6747 4.56393 3.06177 4.82197 2.42104 4.8262ZM20.0189 20H15.8819V13.4998C15.8819 11.9507 15.8509 9.96404 13.7265 9.96404C11.5711 9.96404 11.2405 11.647 11.2405 13.3879V19.999H7.09843V6.64702H11.0757V8.46883H11.1336C11.5312 7.7882 12.1059 7.22817 12.7966 6.84842C13.4874 6.46867 14.2682 6.28342 15.0559 6.31242C19.2509 6.31242 20.0239 9.0761 20.0239 12.6648V20H20.0189Z" fill="#111111"/>
</svg>
